<?xml version="1.0" encoding="UTF-8" standalone="no"?><svg xmlns="http://www.w3.org/2000/svg" xmlns:xlink="http://www.w3.org/1999/xlink" contentScriptType="application/ecmascript" contentStyleType="text/css" height="796px" preserveAspectRatio="none" style="width:1065px;height:796px;" version="1.1" viewBox="0 0 1065 796" width="1065px" zoomAndPan="magnify"><defs><filter height="300%" id="fj7s379ub6zp1" width="300%" x="-1" y="-1"><feGaussianBlur result="blurOut" stdDeviation="2.0"/><feColorMatrix in="blurOut" result="blurOut2" type="matrix" values="0 0 0 0 0 0 0 0 0 0 0 0 0 0 0 0 0 0 .4 0"/><feOffset dx="4.0" dy="4.0" in="blurOut2" result="blurOut3"/><feBlend in="SourceGraphic" in2="blurOut3" mode="normal"/></filter></defs><g><text fill="#000000" font-family="sans-serif" font-size="14" font-weight="bold" lengthAdjust="spacingAndGlyphs" textLength="131" x="467.5" y="24.5332">SD_SHOW_DELETE</text><rect fill="#FEFECE" filter="url(#fj7s379ub6zp1)" height="31.6094" style="stroke: #A80036; stroke-width: 1.5;" width="114" x="452" y="159.5703"/><text fill="#000000" font-family="sans-serif" font-size="14" lengthAdjust="spacingAndGlyphs" textLength="100" x="459" y="181.1035">:ShowController</text><rect fill="#FEFECE" filter="url(#fj7s379ub6zp1)" height="31.6094" style="stroke: #A80036; stroke-width: 1.5;" width="122" x="78" y="266.8828"/><text fill="#000000" font-family="sans-serif" font-size="14" lengthAdjust="spacingAndGlyphs" textLength="108" x="85" y="288.416">:ShowDeleteView</text><rect fill="#FFFFFF" filter="url(#fj7s379ub6zp1)" height="399.7344" style="stroke: #000000; stroke-width: 2.0;" width="1040" x="13" y="320.4922"/><rect fill="#FEFECE" filter="url(#fj7s379ub6zp1)" height="31.6094" style="stroke: #A80036; stroke-width: 1.5;" width="114" x="580" y="399.5469"/><text fill="#000000" font-family="sans-serif" font-size="14" lengthAdjust="spacingAndGlyphs" textLength="100" x="587" y="421.0801">:ShowController</text><rect fill="#FEFECE" filter="url(#fj7s379ub6zp1)" height="31.6094" style="stroke: #A80036; stroke-width: 1.5;" width="94" x="818" y="476.5078"/><text fill="#000000" font-family="sans-serif" font-size="14" lengthAdjust="spacingAndGlyphs" textLength="80" x="825" y="498.041">Show : Show</text><rect fill="#FFFFFF" height="62.7031" style="stroke: none; stroke-width: 1.0;" width="1040" x="13" y="657.5234"/><line style="stroke: #A80036; stroke-width: 1.0; stroke-dasharray: 5.0,5.0;" x1="45" x2="45" y1="119.2188" y2="784.9297"/><line style="stroke: #A80036; stroke-width: 1.0; stroke-dasharray: 5.0,5.0;" x1="141" x2="141" y1="300.1875" y2="784.9297"/><line style="stroke: #A80036; stroke-width: 1.0; stroke-dasharray: 5.0,5.0;" x1="342.5" x2="342.5" y1="119.2188" y2="784.9297"/><line style="stroke: #A80036; stroke-width: 1.0; stroke-dasharray: 5.0,5.0;" x1="511" x2="511" y1="192.875" y2="784.9297"/><line style="stroke: #A80036; stroke-width: 1.0; stroke-dasharray: 5.0,5.0;" x1="639" x2="639" y1="432.8516" y2="784.9297"/><line style="stroke: #A80036; stroke-width: 1.0; stroke-dasharray: 5.0,5.0;" x1="763" x2="763" y1="119.2188" y2="784.9297"/><line style="stroke: #A80036; stroke-width: 1.0; stroke-dasharray: 5.0,5.0;" x1="867" x2="867" y1="509.8125" y2="784.9297"/><text fill="#000000" font-family="sans-serif" font-size="14" lengthAdjust="spacingAndGlyphs" textLength="39" x="23" y="116.1426">Admin</text><ellipse cx="45.5" cy="44.6094" fill="#FEFECE" filter="url(#fj7s379ub6zp1)" rx="8" ry="8" style="stroke: #A80036; stroke-width: 2.0;"/><path d="M45.5,52.6094 L45.5,79.6094 M32.5,60.6094 L58.5,60.6094 M45.5,79.6094 L32.5,94.6094 M45.5,79.6094 L58.5,94.6094 " fill="none" filter="url(#fj7s379ub6zp1)" style="stroke: #A80036; stroke-width: 2.0;"/><rect fill="#FEFECE" filter="url(#fj7s379ub6zp1)" height="31.6094" style="stroke: #A80036; stroke-width: 1.5;" width="69" x="306.5" y="82.6094"/><text fill="#000000" font-family="sans-serif" font-size="14" lengthAdjust="spacingAndGlyphs" textLength="55" x="313.5" y="104.1426">:Routeur</text><rect fill="#FEFECE" filter="url(#fj7s379ub6zp1)" height="49.2188" style="stroke: #A80036; stroke-width: 1.5;" width="62" x="730" y="65"/><text fill="#000000" font-family="sans-serif" font-size="14" font-style="italic" lengthAdjust="spacingAndGlyphs" textLength="48" x="737" y="86">«class»</text><text fill="#000000" font-family="sans-serif" font-size="14" lengthAdjust="spacingAndGlyphs" textLength="34" x="744" y="103.6094">Show</text><polygon fill="#A80036" points="331,147.5703,341,151.5703,331,155.5703,335,151.5703" style="stroke: #A80036; stroke-width: 1.0;"/><line style="stroke: #A80036; stroke-width: 1.0;" x1="3" x2="337" y1="151.5703" y2="151.5703"/><text fill="#000000" font-family="sans-serif" font-size="13" lengthAdjust="spacingAndGlyphs" textLength="169" x="10" y="146.7139">[GET]/show/delete/&lt;idShow&gt;</text><polygon fill="#A80036" points="440,177.9219,450,181.9219,440,185.9219,444,181.9219" style="stroke: #A80036; stroke-width: 1.0;"/><line style="stroke: #A80036; stroke-width: 1.0;" x1="343" x2="446" y1="181.9219" y2="181.9219"/><text fill="#000000" font-family="sans-serif" font-size="13" lengthAdjust="spacingAndGlyphs" textLength="85" x="350" y="177.0654">delete(idShow)</text><rect fill="#FEFECE" filter="url(#fj7s379ub6zp1)" height="31.6094" style="stroke: #A80036; stroke-width: 1.5;" width="114" x="452" y="159.5703"/><text fill="#000000" font-family="sans-serif" font-size="14" lengthAdjust="spacingAndGlyphs" textLength="100" x="459" y="181.1035">:ShowController</text><polygon fill="#A80036" points="751,224.5313,761,228.5313,751,232.5313,755,228.5313" style="stroke: #A80036; stroke-width: 1.0;"/><line style="stroke: #A80036; stroke-width: 1.0;" x1="511" x2="757" y1="228.5313" y2="228.5313"/><text fill="#000000" font-family="sans-serif" font-size="13" lengthAdjust="spacingAndGlyphs" textLength="144" x="518" y="223.6748">getShow(idShow) : Show</text><polygon fill="#A80036" points="522,254.8828,512,258.8828,522,262.8828,518,258.8828" style="stroke: #A80036; stroke-width: 1.0;"/><line style="stroke: #A80036; stroke-width: 1.0; stroke-dasharray: 2.0,2.0;" x1="516" x2="762" y1="258.8828" y2="258.8828"/><text fill="#000000" font-family="sans-serif" font-size="13" lengthAdjust="spacingAndGlyphs" textLength="30" x="528" y="254.0264">show</text><polygon fill="#A80036" points="215,285.2344,205,289.2344,215,293.2344,211,289.2344" style="stroke: #A80036; stroke-width: 1.0;"/><line style="stroke: #A80036; stroke-width: 1.0;" x1="209" x2="510" y1="289.2344" y2="289.2344"/><text fill="#000000" font-family="sans-serif" font-size="13" lengthAdjust="spacingAndGlyphs" textLength="61" x="221" y="284.3779">new(show)</text><rect fill="#FEFECE" filter="url(#fj7s379ub6zp1)" height="31.6094" style="stroke: #A80036; stroke-width: 1.5;" width="122" x="78" y="266.8828"/><text fill="#000000" font-family="sans-serif" font-size="14" lengthAdjust="spacingAndGlyphs" textLength="108" x="85" y="288.416">:ShowDeleteView</text><path d="M13,320.4922 L74,320.4922 L74,328.4922 L64,338.4922 L13,338.4922 L13,320.4922 " fill="#EEEEEE" style="stroke: #000000; stroke-width: 1.0;"/><rect fill="none" height="399.7344" style="stroke: #000000; stroke-width: 2.0;" width="1040" x="13" y="320.4922"/><text fill="#000000" font-family="sans-serif" font-size="13" font-weight="bold" lengthAdjust="spacingAndGlyphs" textLength="16" x="28" y="334.9873">alt</text><polygon fill="#A80036" points="129,357.1953,139,361.1953,129,365.1953,133,361.1953" style="stroke: #A80036; stroke-width: 1.0;"/><line style="stroke: #A80036; stroke-width: 1.0;" x1="45.5" x2="135" y1="361.1953" y2="361.1953"/><text fill="#000000" font-family="sans-serif" font-size="13" lengthAdjust="spacingAndGlyphs" textLength="50" x="52.5" y="356.3389">confirm()</text><polygon fill="#A80036" points="331,387.5469,341,391.5469,331,395.5469,335,391.5469" style="stroke: #A80036; stroke-width: 1.0;"/><line style="stroke: #A80036; stroke-width: 1.0;" x1="141" x2="337" y1="391.5469" y2="391.5469"/><text fill="#000000" font-family="sans-serif" font-size="13" lengthAdjust="spacingAndGlyphs" textLength="178" x="148" y="386.6904">[POST]/show/delete/&lt;idShow&gt;</text><polygon fill="#A80036" points="568,417.8984,578,421.8984,568,425.8984,572,421.8984" style="stroke: #A80036; stroke-width: 1.0;"/><line style="stroke: #A80036; stroke-width: 1.0;" x1="343" x2="574" y1="421.8984" y2="421.8984"/><text fill="#000000" font-family="sans-serif" font-size="13" lengthAdjust="spacingAndGlyphs" textLength="85" x="350" y="417.042">delete(idShow)</text><rect fill="#FEFECE" filter="url(#fj7s379ub6zp1)" height="31.6094" style="stroke: #A80036; stroke-width: 1.5;" width="114" x="580" y="399.5469"/><text fill="#000000" font-family="sans-serif" font-size="14" lengthAdjust="spacingAndGlyphs" textLength="100" x="587" y="421.0801">:ShowController</text><polygon fill="#A80036" points="751,464.5078,761,468.5078,751,472.5078,755,468.5078" style="stroke: #A80036; stroke-width: 1.0;"/><line style="stroke: #A80036; stroke-width: 1.0;" x1="639" x2="757" y1="468.5078" y2="468.5078"/><text fill="#000000" font-family="sans-serif" font-size="13" lengthAdjust="spacingAndGlyphs" textLength="100" x="646" y="463.6514">getShow(idShow)</text><polygon fill="#A80036" points="806,494.8594,816,498.8594,806,502.8594,810,498.8594" style="stroke: #A80036; stroke-width: 1.0;"/><line style="stroke: #A80036; stroke-width: 1.0;" x1="763" x2="812" y1="498.8594" y2="498.8594"/><text fill="#000000" font-family="sans-serif" font-size="13" lengthAdjust="spacingAndGlyphs" textLength="31" x="770" y="494.0029">new()</text><rect fill="#FEFECE" filter="url(#fj7s379ub6zp1)" height="31.6094" style="stroke: #A80036; stroke-width: 1.5;" width="94" x="818" y="476.5078"/><text fill="#000000" font-family="sans-serif" font-size="14" lengthAdjust="spacingAndGlyphs" textLength="80" x="825" y="498.041">Show : Show</text><polygon fill="#A80036" points="650,541.4688,640,545.4688,650,549.4688,646,545.4688" style="stroke: #A80036; stroke-width: 1.0;"/><line style="stroke: #A80036; stroke-width: 1.0; stroke-dasharray: 2.0,2.0;" x1="644" x2="762" y1="545.4688" y2="545.4688"/><text fill="#000000" font-family="sans-serif" font-size="13" lengthAdjust="spacingAndGlyphs" textLength="30" x="656" y="540.6123">show</text><polygon fill="#A80036" points="855,571.8203,865,575.8203,855,579.8203,859,575.8203" style="stroke: #A80036; stroke-width: 1.0;"/><line style="stroke: #A80036; stroke-width: 1.0;" x1="639" x2="861" y1="575.8203" y2="575.8203"/><text fill="#000000" font-family="sans-serif" font-size="13" lengthAdjust="spacingAndGlyphs" textLength="47" x="646" y="570.9639">delete ()</text><line style="stroke: #A80036; stroke-width: 1.0;" x1="867" x2="909" y1="606.1719" y2="606.1719"/><line style="stroke: #A80036; stroke-width: 1.0;" x1="909" x2="909" y1="606.1719" y2="619.1719"/><line style="stroke: #A80036; stroke-width: 1.0;" x1="868" x2="909" y1="619.1719" y2="619.1719"/><polygon fill="#A80036" points="878,615.1719,868,619.1719,878,623.1719,874,619.1719" style="stroke: #A80036; stroke-width: 1.0;"/><text fill="#000000" font-family="sans-serif" font-size="13" lengthAdjust="spacingAndGlyphs" textLength="167" x="874" y="601.3154">deleteRelatedPerformances()</text><polygon fill="#A80036" points="354,645.5234,344,649.5234,354,653.5234,350,649.5234" style="stroke: #A80036; stroke-width: 1.0;"/><line style="stroke: #A80036; stroke-width: 1.0;" x1="348" x2="638" y1="649.5234" y2="649.5234"/><text fill="#000000" font-family="sans-serif" font-size="13" lengthAdjust="spacingAndGlyphs" textLength="89" x="360" y="644.667">[GET]/show/list</text><line style="stroke: #000000; stroke-width: 1.0; stroke-dasharray: 2.0,2.0;" x1="13" x2="1053" y1="658.5234" y2="658.5234"/><polygon fill="#A80036" points="129,677.875,139,681.875,129,685.875,133,681.875" style="stroke: #A80036; stroke-width: 1.0;"/><line style="stroke: #A80036; stroke-width: 1.0;" x1="45.5" x2="135" y1="681.875" y2="681.875"/><text fill="#000000" font-family="sans-serif" font-size="13" lengthAdjust="spacingAndGlyphs" textLength="46" x="52.5" y="677.0186">cancel()</text><polygon fill="#A80036" points="331,708.2266,341,712.2266,331,716.2266,335,712.2266" style="stroke: #A80036; stroke-width: 1.0;"/><line style="stroke: #A80036; stroke-width: 1.0;" x1="141" x2="337" y1="712.2266" y2="712.2266"/><text fill="#000000" font-family="sans-serif" font-size="13" lengthAdjust="spacingAndGlyphs" textLength="89" x="148" y="707.3701">[GET]/show/list</text><rect fill="#FFFFFF" filter="url(#fj7s379ub6zp1)" height="42.7031" style="stroke: #000000; stroke-width: 2.0;" width="107" x="303.5" y="727.2266"/><polygon fill="#EEEEEE" points="303.5,727.2266,365.5,727.2266,365.5,735.2266,355.5,745.2266,303.5,745.2266,303.5,727.2266" style="stroke: #000000; stroke-width: 2.0;"/><text fill="#000000" font-family="sans-serif" font-size="13" font-weight="bold" lengthAdjust="spacingAndGlyphs" textLength="17" x="316.5" y="742.7217">ref</text><text fill="#000000" font-family="sans-serif" font-size="13" lengthAdjust="spacingAndGlyphs" textLength="99" x="309.5" y="762.7217">SD_SHOW_LIST</text><!--
@startuml SD_SHOW_DELETE
title SD_SHOW_DELETE
hide footbox
Actor "Admin" as A
Participant ":ShowDeleteView" as PV
Participant ":Routeur" as R
Participant ":ShowController" as PC
Participant ":ShowController" as PC2
Participant "Show"  as P <<class>>
Participant "Show : Show" as p

-> R : [GET]/show/delete/<idShow>
create PC
R -> PC : delete(idShow)
PC -> P : getShow(idShow) : Show
P - -> PC : show
create PV
PC -> PV : new(show)
alt
A -> PV : confirm()
PV -> R : [POST]/show/delete/<idShow>
create PC2
R -> PC2 : delete(idShow)
PC2 -> P : getShow(idShow)
create p
P -> p : new()
P - -> PC2 : show
PC2 -> p : delete ()
p -> p : deleteRelatedPerformances()
PC2 -> R : [GET]/show/list
else
A -> PV : cancel()
PV -> R : [GET]/show/list
end
ref over R : SD_SHOW_LIST
@enduml

PlantUML version 1.2019.09(Mon Aug 26 18:19:51 CEST 2019)
(GPL source distribution)
Java Runtime: Java(TM) SE Runtime Environment
JVM: Java HotSpot(TM) 64-Bit Server VM
Java Version: 1.8.0_221-b11
Operating System: Windows 10
OS Version: 10.0
Default Encoding: Cp1252
Language: fr
Country: FR
--></g></svg>