<?xml version="1.0" encoding="UTF-8" standalone="no"?><svg xmlns="http://www.w3.org/2000/svg" xmlns:xlink="http://www.w3.org/1999/xlink" contentScriptType="application/ecmascript" contentStyleType="text/css" height="637px" preserveAspectRatio="none" style="width:328px;height:637px;" version="1.1" viewBox="0 0 328 637" width="328px" zoomAndPan="magnify"><defs><filter height="300%" id="f1gp1vt8xoa3d6" width="300%" x="-1" y="-1"><feGaussianBlur result="blurOut" stdDeviation="2.0"/><feColorMatrix in="blurOut" result="blurOut2" type="matrix" values="0 0 0 0 0 0 0 0 0 0 0 0 0 0 0 0 0 0 .4 0"/><feOffset dx="4.0" dy="4.0" in="blurOut2" result="blurOut3"/><feBlend in="SourceGraphic" in2="blurOut3" mode="normal"/></filter></defs><g><text fill="#000000" font-family="sans-serif" font-size="14" font-weight="bold" lengthAdjust="spacingAndGlyphs" textLength="179" x="75.25" y="24.5332">SSD_CUSTOMER_CREATE</text><rect fill="#FFFFFF" filter="url(#f1gp1vt8xoa3d6)" height="185.9453" style="stroke: #000000; stroke-width: 2.0;" width="303.5" x="13" y="422.3828"/><rect fill="#FFFFFF" height="76.5391" style="stroke: none; stroke-width: 1.0;" width="303.5" x="13" y="531.7891"/><line style="stroke: #A80036; stroke-width: 1.0; stroke-dasharray: 5.0,5.0;" x1="45" x2="45" y1="119.2188" y2="625.3281"/><line style="stroke: #A80036; stroke-width: 1.0; stroke-dasharray: 5.0,5.0;" x1="176.5" x2="176.5" y1="119.2188" y2="625.3281"/><text fill="#000000" font-family="sans-serif" font-size="14" lengthAdjust="spacingAndGlyphs" textLength="39" x="23" y="116.1426">Admin</text><ellipse cx="45.5" cy="44.6094" fill="#FEFECE" filter="url(#f1gp1vt8xoa3d6)" rx="8" ry="8" style="stroke: #A80036; stroke-width: 2.0;"/><path d="M45.5,52.6094 L45.5,79.6094 M32.5,60.6094 L58.5,60.6094 M45.5,79.6094 L32.5,94.6094 M45.5,79.6094 L58.5,94.6094 " fill="none" filter="url(#f1gp1vt8xoa3d6)" style="stroke: #A80036; stroke-width: 2.0;"/><rect fill="#FEFECE" filter="url(#f1gp1vt8xoa3d6)" height="31.6094" style="stroke: #A80036; stroke-width: 1.5;" width="68" x="140.5" y="82.6094"/><text fill="#000000" font-family="sans-serif" font-size="14" lengthAdjust="spacingAndGlyphs" textLength="54" x="147.5" y="104.1426">Systeme</text><polygon fill="#A80036" points="56.5,147.5703,46.5,151.5703,56.5,155.5703,52.5,151.5703" style="stroke: #A80036; stroke-width: 1.0;"/><line style="stroke: #A80036; stroke-width: 1.0;" x1="50.5" x2="175.5" y1="151.5703" y2="151.5703"/><text fill="#000000" font-family="sans-serif" font-size="13" lengthAdjust="spacingAndGlyphs" textLength="102" x="62.5" y="146.7139">show create page</text><polygon fill="#A80036" points="164.5,177.9219,174.5,181.9219,164.5,185.9219,168.5,181.9219" style="stroke: #A80036; stroke-width: 1.0;"/><line style="stroke: #A80036; stroke-width: 1.0;" x1="45.5" x2="170.5" y1="181.9219" y2="181.9219"/><text fill="#000000" font-family="sans-serif" font-size="13" lengthAdjust="spacingAndGlyphs" textLength="81" x="52.5" y="177.0654">give firstName</text><polygon fill="#A80036" points="164.5,208.2734,174.5,212.2734,164.5,216.2734,168.5,212.2734" style="stroke: #A80036; stroke-width: 1.0;"/><line style="stroke: #A80036; stroke-width: 1.0;" x1="45.5" x2="170.5" y1="212.2734" y2="212.2734"/><text fill="#000000" font-family="sans-serif" font-size="13" lengthAdjust="spacingAndGlyphs" textLength="81" x="52.5" y="207.417">give lastName</text><polygon fill="#A80036" points="164.5,238.625,174.5,242.625,164.5,246.625,168.5,242.625" style="stroke: #A80036; stroke-width: 1.0;"/><line style="stroke: #A80036; stroke-width: 1.0;" x1="45.5" x2="170.5" y1="242.625" y2="242.625"/><text fill="#000000" font-family="sans-serif" font-size="13" lengthAdjust="spacingAndGlyphs" textLength="72" x="52.5" y="237.7686">give address</text><polygon fill="#A80036" points="164.5,268.9766,174.5,272.9766,164.5,276.9766,168.5,272.9766" style="stroke: #A80036; stroke-width: 1.0;"/><line style="stroke: #A80036; stroke-width: 1.0;" x1="45.5" x2="170.5" y1="272.9766" y2="272.9766"/><text fill="#000000" font-family="sans-serif" font-size="13" lengthAdjust="spacingAndGlyphs" textLength="43" x="52.5" y="268.1201">give zip</text><polygon fill="#A80036" points="164.5,299.3281,174.5,303.3281,164.5,307.3281,168.5,303.3281" style="stroke: #A80036; stroke-width: 1.0;"/><line style="stroke: #A80036; stroke-width: 1.0;" x1="45.5" x2="170.5" y1="303.3281" y2="303.3281"/><text fill="#000000" font-family="sans-serif" font-size="13" lengthAdjust="spacingAndGlyphs" textLength="47" x="52.5" y="298.4717">give city</text><polygon fill="#A80036" points="164.5,329.6797,174.5,333.6797,164.5,337.6797,168.5,333.6797" style="stroke: #A80036; stroke-width: 1.0;"/><line style="stroke: #A80036; stroke-width: 1.0;" x1="45.5" x2="170.5" y1="333.6797" y2="333.6797"/><text fill="#000000" font-family="sans-serif" font-size="13" lengthAdjust="spacingAndGlyphs" textLength="94" x="52.5" y="328.8232">give date of birth</text><polygon fill="#A80036" points="164.5,360.0313,174.5,364.0313,164.5,368.0313,168.5,364.0313" style="stroke: #A80036; stroke-width: 1.0;"/><line style="stroke: #A80036; stroke-width: 1.0;" x1="45.5" x2="170.5" y1="364.0313" y2="364.0313"/><text fill="#000000" font-family="sans-serif" font-size="13" lengthAdjust="spacingAndGlyphs" textLength="107" x="52.5" y="359.1748">click create button</text><line style="stroke: #A80036; stroke-width: 1.0;" x1="176.5" x2="218.5" y1="394.3828" y2="394.3828"/><line style="stroke: #A80036; stroke-width: 1.0;" x1="218.5" x2="218.5" y1="394.3828" y2="407.3828"/><line style="stroke: #A80036; stroke-width: 1.0;" x1="177.5" x2="218.5" y1="407.3828" y2="407.3828"/><polygon fill="#A80036" points="187.5,403.3828,177.5,407.3828,187.5,411.3828,183.5,407.3828" style="stroke: #A80036; stroke-width: 1.0;"/><text fill="#000000" font-family="sans-serif" font-size="13" lengthAdjust="spacingAndGlyphs" textLength="43" x="183.5" y="389.5264">validate</text><path d="M13,422.3828 L74,422.3828 L74,430.3828 L64,440.3828 L13,440.3828 L13,422.3828 " fill="#EEEEEE" style="stroke: #000000; stroke-width: 1.0;"/><rect fill="none" height="185.9453" style="stroke: #000000; stroke-width: 2.0;" width="303.5" x="13" y="422.3828"/><text fill="#000000" font-family="sans-serif" font-size="13" font-weight="bold" lengthAdjust="spacingAndGlyphs" textLength="16" x="28" y="436.8779">alt</text><text fill="#000000" font-family="sans-serif" font-size="11" font-weight="bold" lengthAdjust="spacingAndGlyphs" textLength="61" x="89" y="435.8018">[no errors]</text><line style="stroke: #A80036; stroke-width: 1.0;" x1="176.5" x2="218.5" y1="463.0859" y2="463.0859"/><line style="stroke: #A80036; stroke-width: 1.0;" x1="218.5" x2="218.5" y1="463.0859" y2="476.0859"/><line style="stroke: #A80036; stroke-width: 1.0;" x1="177.5" x2="218.5" y1="476.0859" y2="476.0859"/><polygon fill="#A80036" points="187.5,472.0859,177.5,476.0859,187.5,480.0859,183.5,476.0859" style="stroke: #A80036; stroke-width: 1.0;"/><text fill="#000000" font-family="sans-serif" font-size="13" lengthAdjust="spacingAndGlyphs" textLength="121" x="183.5" y="458.2295">create new customer</text><rect fill="#FFFFFF" filter="url(#f1gp1vt8xoa3d6)" height="42.7031" style="stroke: #000000; stroke-width: 2.0;" width="191.5" x="20" y="484.0859"/><polygon fill="#EEEEEE" points="20,484.0859,82,484.0859,82,492.0859,72,502.0859,20,502.0859,20,484.0859" style="stroke: #000000; stroke-width: 2.0;"/><text fill="#000000" font-family="sans-serif" font-size="13" font-weight="bold" lengthAdjust="spacingAndGlyphs" textLength="17" x="33" y="499.5811">ref</text><text fill="#000000" font-family="sans-serif" font-size="13" lengthAdjust="spacingAndGlyphs" textLength="140" x="47.75" y="519.5811">SSD_CUSTOMER_LIST</text><line style="stroke: #000000; stroke-width: 1.0; stroke-dasharray: 2.0,2.0;" x1="13" x2="316.5" y1="532.7891" y2="532.7891"/><text fill="#000000" font-family="sans-serif" font-size="11" font-weight="bold" lengthAdjust="spacingAndGlyphs" textLength="32" x="18" y="544.208">[else]</text><polygon fill="#A80036" points="56.5,565.9766,46.5,569.9766,56.5,573.9766,52.5,569.9766" style="stroke: #A80036; stroke-width: 1.0;"/><line style="stroke: #A80036; stroke-width: 1.0;" x1="50.5" x2="175.5" y1="569.9766" y2="569.9766"/><text fill="#000000" font-family="sans-serif" font-size="13" lengthAdjust="spacingAndGlyphs" textLength="78" x="62.5" y="565.1201">display errors</text><polygon fill="#A80036" points="164.5,596.3281,174.5,600.3281,164.5,604.3281,168.5,600.3281" style="stroke: #A80036; stroke-width: 1.0;"/><line style="stroke: #A80036; stroke-width: 1.0; stroke-dasharray: 2.0,2.0;" x1="45.5" x2="170.5" y1="600.3281" y2="600.3281"/><text fill="#000000" font-family="sans-serif" font-size="13" lengthAdjust="spacingAndGlyphs" textLength="52" x="52.5" y="595.4717">*/ retry */</text><!--
@startuml SSD_CUSTOMER_CREATE
title SSD_CUSTOMER_CREATE
hide footbox
 Actor "Admin" as A
 Participant "Systeme" as S
 S -> A : show create page
 A -> S : give firstName
 A -> S : give lastName
 A -> S : give address
 A -> S : give zip
 A -> S : give city
 A -> S : give date of birth
 A -> S : click create button
 S-> S : validate
 alt no errors 
    S -> S : create new customer
    ref over A,S : SSD_CUSTOMER_LIST

 else else
 S -> A : display errors
 A - -> S : */ retry */
 end  
 @enduml

PlantUML version 1.2019.09(Mon Aug 26 18:19:51 CEST 2019)
(GPL source distribution)
Java Runtime: Java(TM) SE Runtime Environment
JVM: Java HotSpot(TM) 64-Bit Server VM
Java Version: 1.8.0_221-b11
Operating System: Windows 10
OS Version: 10.0
Default Encoding: Cp1252
Language: fr
Country: FR
--></g></svg>