<?xml version="1.0" encoding="UTF-8" standalone="no"?><svg xmlns="http://www.w3.org/2000/svg" xmlns:xlink="http://www.w3.org/1999/xlink" contentScriptType="application/ecmascript" contentStyleType="text/css" height="905px" preserveAspectRatio="none" style="width:1091px;height:905px;" version="1.1" viewBox="0 0 1091 905" width="1091px" zoomAndPan="magnify"><defs><filter height="300%" id="f18ee103jcx5cb" width="300%" x="-1" y="-1"><feGaussianBlur result="blurOut" stdDeviation="2.0"/><feColorMatrix in="blurOut" result="blurOut2" type="matrix" values="0 0 0 0 0 0 0 0 0 0 0 0 0 0 0 0 0 0 .4 0"/><feOffset dx="4.0" dy="4.0" in="blurOut2" result="blurOut3"/><feBlend in="SourceGraphic" in2="blurOut3" mode="normal"/></filter></defs><g><text fill="#000000" font-family="sans-serif" font-size="14" font-weight="bold" lengthAdjust="spacingAndGlyphs" textLength="133" x="479.75" y="24.5332">SD_SHOW_UPDATE</text><rect fill="#FEFECE" filter="url(#f18ee103jcx5cb)" height="31.6094" style="stroke: #A80036; stroke-width: 1.5;" width="118" x="557.5" y="159.5703"/><text fill="#000000" font-family="sans-serif" font-size="14" lengthAdjust="spacingAndGlyphs" textLength="104" x="564.5" y="181.1035">: ShowController</text><rect fill="#FEFECE" filter="url(#f18ee103jcx5cb)" height="31.6094" style="stroke: #A80036; stroke-width: 1.5;" width="130" x="164.5" y="266.8828"/><text fill="#000000" font-family="sans-serif" font-size="14" lengthAdjust="spacingAndGlyphs" textLength="116" x="171.5" y="288.416">: ShowUpdateView</text><rect fill="#FFFFFF" filter="url(#f18ee103jcx5cb)" height="356.3828" style="stroke: #000000; stroke-width: 2.0;" width="1066.5" x="13" y="472.25"/><rect fill="#FEFECE" filter="url(#f18ee103jcx5cb)" height="31.6094" style="stroke: #A80036; stroke-width: 1.5;" width="118" x="689.5" y="551.3047"/><text fill="#000000" font-family="sans-serif" font-size="14" lengthAdjust="spacingAndGlyphs" textLength="104" x="696.5" y="572.8379">: ShowController</text><rect fill="#FEFECE" filter="url(#f18ee103jcx5cb)" height="31.6094" style="stroke: #A80036; stroke-width: 1.5;" width="92" x="973.5" y="628.2656"/><text fill="#000000" font-family="sans-serif" font-size="14" lengthAdjust="spacingAndGlyphs" textLength="78" x="980.5" y="649.7988">show : Show</text><rect fill="#FFFFFF" height="62.7031" style="stroke: none; stroke-width: 1.0;" width="1066.5" x="13" y="765.9297"/><line style="stroke: #A80036; stroke-width: 1.0; stroke-dasharray: 5.0,5.0;" x1="45" x2="45" y1="119.2188" y2="893.3359"/><line style="stroke: #A80036; stroke-width: 1.0; stroke-dasharray: 5.0,5.0;" x1="231.5" x2="231.5" y1="300.1875" y2="893.3359"/><line style="stroke: #A80036; stroke-width: 1.0; stroke-dasharray: 5.0,5.0;" x1="444" x2="444" y1="119.2188" y2="893.3359"/><line style="stroke: #A80036; stroke-width: 1.0; stroke-dasharray: 5.0,5.0;" x1="618.5" x2="618.5" y1="192.875" y2="893.3359"/><line style="stroke: #A80036; stroke-width: 1.0; stroke-dasharray: 5.0,5.0;" x1="750.5" x2="750.5" y1="584.6094" y2="893.3359"/><line style="stroke: #A80036; stroke-width: 1.0; stroke-dasharray: 5.0,5.0;" x1="918.5" x2="918.5" y1="119.2188" y2="893.3359"/><line style="stroke: #A80036; stroke-width: 1.0; stroke-dasharray: 5.0,5.0;" x1="1021.5" x2="1021.5" y1="661.5703" y2="893.3359"/><text fill="#000000" font-family="sans-serif" font-size="14" lengthAdjust="spacingAndGlyphs" textLength="39" x="23" y="116.1426">Admin</text><ellipse cx="45.5" cy="44.6094" fill="#FEFECE" filter="url(#f18ee103jcx5cb)" rx="8" ry="8" style="stroke: #A80036; stroke-width: 2.0;"/><path d="M45.5,52.6094 L45.5,79.6094 M32.5,60.6094 L58.5,60.6094 M45.5,79.6094 L32.5,94.6094 M45.5,79.6094 L58.5,94.6094 " fill="none" filter="url(#f18ee103jcx5cb)" style="stroke: #A80036; stroke-width: 2.0;"/><rect fill="#FEFECE" filter="url(#f18ee103jcx5cb)" height="31.6094" style="stroke: #A80036; stroke-width: 1.5;" width="65" x="410" y="82.6094"/><text fill="#000000" font-family="sans-serif" font-size="14" lengthAdjust="spacingAndGlyphs" textLength="51" x="417" y="104.1426">: Router</text><rect fill="#FEFECE" filter="url(#f18ee103jcx5cb)" height="49.2188" style="stroke: #A80036; stroke-width: 1.5;" width="62" x="885.5" y="65"/><text fill="#000000" font-family="sans-serif" font-size="14" font-style="italic" lengthAdjust="spacingAndGlyphs" textLength="48" x="892.5" y="86">«class»</text><text fill="#000000" font-family="sans-serif" font-size="14" lengthAdjust="spacingAndGlyphs" textLength="34" x="899.5" y="103.6094">Show</text><polygon fill="#A80036" points="432.5,147.5703,442.5,151.5703,432.5,155.5703,436.5,151.5703" style="stroke: #A80036; stroke-width: 1.0;"/><line style="stroke: #A80036; stroke-width: 1.0;" x1="3" x2="438.5" y1="151.5703" y2="151.5703"/><text fill="#000000" font-family="sans-serif" font-size="13" lengthAdjust="spacingAndGlyphs" textLength="177" x="10" y="146.7139">[GET] /show/update/&lt;idShow&gt;</text><polygon fill="#A80036" points="545.5,177.9219,555.5,181.9219,545.5,185.9219,549.5,181.9219" style="stroke: #A80036; stroke-width: 1.0;"/><line style="stroke: #A80036; stroke-width: 1.0;" x1="444.5" x2="551.5" y1="181.9219" y2="181.9219"/><text fill="#000000" font-family="sans-serif" font-size="13" lengthAdjust="spacingAndGlyphs" textLength="89" x="451.5" y="177.0654">update(idShow)</text><rect fill="#FEFECE" filter="url(#f18ee103jcx5cb)" height="31.6094" style="stroke: #A80036; stroke-width: 1.5;" width="118" x="557.5" y="159.5703"/><text fill="#000000" font-family="sans-serif" font-size="14" lengthAdjust="spacingAndGlyphs" textLength="104" x="564.5" y="181.1035">: ShowController</text><polygon fill="#A80036" points="906.5,224.5313,916.5,228.5313,906.5,232.5313,910.5,228.5313" style="stroke: #A80036; stroke-width: 1.0;"/><line style="stroke: #A80036; stroke-width: 1.0;" x1="618.5" x2="912.5" y1="228.5313" y2="228.5313"/><text fill="#000000" font-family="sans-serif" font-size="13" lengthAdjust="spacingAndGlyphs" textLength="144" x="625.5" y="223.6748">getShow(idShow) : Show</text><polygon fill="#A80036" points="629.5,254.8828,619.5,258.8828,629.5,262.8828,625.5,258.8828" style="stroke: #A80036; stroke-width: 1.0;"/><line style="stroke: #A80036; stroke-width: 1.0; stroke-dasharray: 2.0,2.0;" x1="623.5" x2="917.5" y1="258.8828" y2="258.8828"/><text fill="#000000" font-family="sans-serif" font-size="13" lengthAdjust="spacingAndGlyphs" textLength="30" x="635.5" y="254.0264">show</text><polygon fill="#A80036" points="309.5,285.2344,299.5,289.2344,309.5,293.2344,305.5,289.2344" style="stroke: #A80036; stroke-width: 1.0;"/><line style="stroke: #A80036; stroke-width: 1.0;" x1="303.5" x2="617.5" y1="289.2344" y2="289.2344"/><text fill="#000000" font-family="sans-serif" font-size="13" lengthAdjust="spacingAndGlyphs" textLength="61" x="315.5" y="284.3779">new(show)</text><rect fill="#FEFECE" filter="url(#f18ee103jcx5cb)" height="31.6094" style="stroke: #A80036; stroke-width: 1.5;" width="130" x="164.5" y="266.8828"/><text fill="#000000" font-family="sans-serif" font-size="14" lengthAdjust="spacingAndGlyphs" textLength="116" x="171.5" y="288.416">: ShowUpdateView</text><polygon fill="#A80036" points="219.5,331.8438,229.5,335.8438,219.5,339.8438,223.5,335.8438" style="stroke: #A80036; stroke-width: 1.0;"/><line style="stroke: #A80036; stroke-width: 1.0;" x1="45.5" x2="225.5" y1="335.8438" y2="335.8438"/><text fill="#000000" font-family="sans-serif" font-size="13" lengthAdjust="spacingAndGlyphs" textLength="121" x="52.5" y="330.9873">setTitle(value: String)</text><polygon fill="#A80036" points="219.5,362.1953,229.5,366.1953,219.5,370.1953,223.5,366.1953" style="stroke: #A80036; stroke-width: 1.0;"/><line style="stroke: #A80036; stroke-width: 1.0;" x1="45.5" x2="225.5" y1="366.1953" y2="366.1953"/><text fill="#000000" font-family="sans-serif" font-size="13" lengthAdjust="spacingAndGlyphs" textLength="162" x="52.5" y="361.3389">setDescription(value: String)</text><polygon fill="#A80036" points="219.5,392.5469,229.5,396.5469,219.5,400.5469,223.5,396.5469" style="stroke: #A80036; stroke-width: 1.0;"/><line style="stroke: #A80036; stroke-width: 1.0;" x1="45.5" x2="225.5" y1="396.5469" y2="396.5469"/><text fill="#000000" font-family="sans-serif" font-size="13" lengthAdjust="spacingAndGlyphs" textLength="125" x="52.5" y="391.6904">setDuration(value: int)</text><polygon fill="#A80036" points="219.5,422.8984,229.5,426.8984,219.5,430.8984,223.5,426.8984" style="stroke: #A80036; stroke-width: 1.0;"/><line style="stroke: #A80036; stroke-width: 1.0;" x1="45.5" x2="225.5" y1="426.8984" y2="426.8984"/><text fill="#000000" font-family="sans-serif" font-size="13" lengthAdjust="spacingAndGlyphs" textLength="138" x="52.5" y="422.042">setPicture(value: String)</text><polygon fill="#A80036" points="219.5,453.25,229.5,457.25,219.5,461.25,223.5,457.25" style="stroke: #A80036; stroke-width: 1.0;"/><line style="stroke: #A80036; stroke-width: 1.0;" x1="45.5" x2="225.5" y1="457.25" y2="457.25"/><text fill="#000000" font-family="sans-serif" font-size="13" lengthAdjust="spacingAndGlyphs" textLength="161" x="52.5" y="452.3936">setPerformer(value: String[])</text><path d="M13,472.25 L74,472.25 L74,480.25 L64,490.25 L13,490.25 L13,472.25 " fill="#EEEEEE" style="stroke: #000000; stroke-width: 1.0;"/><rect fill="none" height="356.3828" style="stroke: #000000; stroke-width: 2.0;" width="1066.5" x="13" y="472.25"/><text fill="#000000" font-family="sans-serif" font-size="13" font-weight="bold" lengthAdjust="spacingAndGlyphs" textLength="16" x="28" y="486.7451">alt</text><polygon fill="#A80036" points="219.5,508.9531,229.5,512.9531,219.5,516.9531,223.5,512.9531" style="stroke: #A80036; stroke-width: 1.0;"/><line style="stroke: #A80036; stroke-width: 1.0;" x1="45.5" x2="225.5" y1="512.9531" y2="512.9531"/><text fill="#000000" font-family="sans-serif" font-size="13" lengthAdjust="spacingAndGlyphs" textLength="47" x="52.5" y="508.0967">update()</text><polygon fill="#A80036" points="432.5,539.3047,442.5,543.3047,432.5,547.3047,436.5,543.3047" style="stroke: #A80036; stroke-width: 1.0;"/><line style="stroke: #A80036; stroke-width: 1.0;" x1="231.5" x2="438.5" y1="543.3047" y2="543.3047"/><text fill="#000000" font-family="sans-serif" font-size="13" lengthAdjust="spacingAndGlyphs" textLength="189" x="238.5" y="538.4482">[GET] show/update/&lt;idShow,...&gt;</text><polygon fill="#A80036" points="677.5,569.6563,687.5,573.6563,677.5,577.6563,681.5,573.6563" style="stroke: #A80036; stroke-width: 1.0;"/><line style="stroke: #A80036; stroke-width: 1.0;" x1="444.5" x2="683.5" y1="573.6563" y2="573.6563"/><text fill="#000000" font-family="sans-serif" font-size="13" lengthAdjust="spacingAndGlyphs" textLength="105" x="451.5" y="568.7998">update(idShow,...)</text><rect fill="#FEFECE" filter="url(#f18ee103jcx5cb)" height="31.6094" style="stroke: #A80036; stroke-width: 1.5;" width="118" x="689.5" y="551.3047"/><text fill="#000000" font-family="sans-serif" font-size="14" lengthAdjust="spacingAndGlyphs" textLength="104" x="696.5" y="572.8379">: ShowController</text><polygon fill="#A80036" points="906.5,616.2656,916.5,620.2656,906.5,624.2656,910.5,620.2656" style="stroke: #A80036; stroke-width: 1.0;"/><line style="stroke: #A80036; stroke-width: 1.0;" x1="750.5" x2="912.5" y1="620.2656" y2="620.2656"/><text fill="#000000" font-family="sans-serif" font-size="13" lengthAdjust="spacingAndGlyphs" textLength="144" x="757.5" y="615.4092">getShow(idShow) : Show</text><polygon fill="#A80036" points="961.5,646.6172,971.5,650.6172,961.5,654.6172,965.5,650.6172" style="stroke: #A80036; stroke-width: 1.0;"/><line style="stroke: #A80036; stroke-width: 1.0;" x1="918.5" x2="967.5" y1="650.6172" y2="650.6172"/><text fill="#000000" font-family="sans-serif" font-size="13" lengthAdjust="spacingAndGlyphs" textLength="31" x="925.5" y="645.7607">new()</text><rect fill="#FEFECE" filter="url(#f18ee103jcx5cb)" height="31.6094" style="stroke: #A80036; stroke-width: 1.5;" width="92" x="973.5" y="628.2656"/><text fill="#000000" font-family="sans-serif" font-size="14" lengthAdjust="spacingAndGlyphs" textLength="78" x="980.5" y="649.7988">show : Show</text><polygon fill="#A80036" points="761.5,693.2266,751.5,697.2266,761.5,701.2266,757.5,697.2266" style="stroke: #A80036; stroke-width: 1.0;"/><line style="stroke: #A80036; stroke-width: 1.0; stroke-dasharray: 2.0,2.0;" x1="755.5" x2="917.5" y1="697.2266" y2="697.2266"/><text fill="#000000" font-family="sans-serif" font-size="13" lengthAdjust="spacingAndGlyphs" textLength="30" x="767.5" y="692.3701">show</text><polygon fill="#A80036" points="1009.5,723.5781,1019.5,727.5781,1009.5,731.5781,1013.5,727.5781" style="stroke: #A80036; stroke-width: 1.0;"/><line style="stroke: #A80036; stroke-width: 1.0;" x1="750.5" x2="1015.5" y1="727.5781" y2="727.5781"/><text fill="#000000" font-family="sans-serif" font-size="13" lengthAdjust="spacingAndGlyphs" textLength="59" x="757.5" y="722.7217">update(...)</text><polygon fill="#A80036" points="455.5,753.9297,445.5,757.9297,455.5,761.9297,451.5,757.9297" style="stroke: #A80036; stroke-width: 1.0;"/><line style="stroke: #A80036; stroke-width: 1.0;" x1="449.5" x2="749.5" y1="757.9297" y2="757.9297"/><text fill="#000000" font-family="sans-serif" font-size="13" lengthAdjust="spacingAndGlyphs" textLength="163" x="461.5" y="753.0732">[GET] /show/read/&lt;idShow&gt;</text><line style="stroke: #000000; stroke-width: 1.0; stroke-dasharray: 2.0,2.0;" x1="13" x2="1079.5" y1="766.9297" y2="766.9297"/><polygon fill="#A80036" points="219.5,786.2813,229.5,790.2813,219.5,794.2813,223.5,790.2813" style="stroke: #A80036; stroke-width: 1.0;"/><line style="stroke: #A80036; stroke-width: 1.0;" x1="45.5" x2="225.5" y1="790.2813" y2="790.2813"/><text fill="#000000" font-family="sans-serif" font-size="13" lengthAdjust="spacingAndGlyphs" textLength="46" x="52.5" y="785.4248">cancel()</text><polygon fill="#A80036" points="432.5,816.6328,442.5,820.6328,432.5,824.6328,436.5,820.6328" style="stroke: #A80036; stroke-width: 1.0;"/><line style="stroke: #A80036; stroke-width: 1.0;" x1="231.5" x2="438.5" y1="820.6328" y2="820.6328"/><text fill="#000000" font-family="sans-serif" font-size="13" lengthAdjust="spacingAndGlyphs" textLength="163" x="238.5" y="815.7764">[GET] /show/read/&lt;idShow&gt;</text><rect fill="#FFFFFF" filter="url(#f18ee103jcx5cb)" height="42.7031" style="stroke: #000000; stroke-width: 2.0;" width="117" x="407" y="835.6328"/><polygon fill="#EEEEEE" points="407,835.6328,469,835.6328,469,843.6328,459,853.6328,407,853.6328,407,835.6328" style="stroke: #000000; stroke-width: 2.0;"/><text fill="#000000" font-family="sans-serif" font-size="13" font-weight="bold" lengthAdjust="spacingAndGlyphs" textLength="17" x="420" y="851.1279">ref</text><text fill="#000000" font-family="sans-serif" font-size="13" lengthAdjust="spacingAndGlyphs" textLength="109" x="413" y="871.1279">SD_SHOW_READ</text><!--
@startuml SD_SHOW_UPDATE

title SD_SHOW_UPDATE

skinparam shadowing TRUE
hide footbox

actor Admin as a
participant ": ShowUpdateView" as V
participant ": Router" as R
participant ": ShowController" as RC0
participant ": ShowController" as RC1
participant "Show" as CR <<class>>
participant "show : Show" as E1

-> R : [GET] /show/update/<idShow>

create RC0
R -> RC0 : update(idShow)



RC0 -> CR : getShow(idShow) : Show
CR - -> RC0 : show

create V
RC0 -> V : new(show)



a -> V :setTitle(value: String)
a -> V :setDescription(value: String)
a -> V :setDuration(value: int)
a -> V :setPicture(value: String)
a -> V :setPerformer(value: String[])
alt

a -> V : update()
V -> R : [GET] show/update/<idShow,...>
create RC1
R -> RC1 : update(idShow,...)

RC1 -> CR : getShow(idShow) : Show
create E1
CR -> E1 : new()
CR - -> RC1 : show
RC1 -> E1 : update(...)
RC1 -> R : [GET] /show/read/<idShow>


else 

a -> V : cancel()
V -> R : [GET] /show/read/<idShow>

end 

ref over R : SD_SHOW_READ
@enduml

PlantUML version 1.2019.09(Mon Aug 26 18:19:51 CEST 2019)
(GPL source distribution)
Java Runtime: Java(TM) SE Runtime Environment
JVM: Java HotSpot(TM) 64-Bit Server VM
Java Version: 1.8.0_221-b11
Operating System: Windows 10
OS Version: 10.0
Default Encoding: Cp1252
Language: fr
Country: BE
--></g></svg>