<?xml version="1.0" encoding="UTF-8" standalone="no"?><svg xmlns="http://www.w3.org/2000/svg" xmlns:xlink="http://www.w3.org/1999/xlink" contentScriptType="application/ecmascript" contentStyleType="text/css" height="1028px" preserveAspectRatio="none" style="width:1014px;height:1028px;" version="1.1" viewBox="0 0 1014 1028" width="1014px" zoomAndPan="magnify"><defs><filter height="300%" id="f1hbtdftdvoato" width="300%" x="-1" y="-1"><feGaussianBlur result="blurOut" stdDeviation="2.0"/><feColorMatrix in="blurOut" result="blurOut2" type="matrix" values="0 0 0 0 0 0 0 0 0 0 0 0 0 0 0 0 0 0 .4 0"/><feOffset dx="4.0" dy="4.0" in="blurOut2" result="blurOut3"/><feBlend in="SourceGraphic" in2="blurOut3" mode="normal"/></filter></defs><g><text fill="#000000" font-family="sans-serif" font-size="14" font-weight="bold" lengthAdjust="spacingAndGlyphs" textLength="133" x="441" y="24.5332">SD_SHOW_CREATE</text><rect fill="#FEFECE" filter="url(#f1hbtdftdvoato)" height="31.6094" style="stroke: #A80036; stroke-width: 1.5;" width="114" x="550" y="159.5703"/><text fill="#000000" font-family="sans-serif" font-size="14" lengthAdjust="spacingAndGlyphs" textLength="100" x="557" y="181.1035">:ShowController</text><rect fill="#FEFECE" filter="url(#f1hbtdftdvoato)" height="31.6094" style="stroke: #A80036; stroke-width: 1.5;" width="124" x="169.5" y="206.1797"/><text fill="#000000" font-family="sans-serif" font-size="14" lengthAdjust="spacingAndGlyphs" textLength="110" x="176.5" y="227.7129">:ShowCreateView</text><rect fill="#FFFFFF" filter="url(#f1hbtdftdvoato)" height="588.1016" style="stroke: #000000; stroke-width: 2.0;" width="989" x="13" y="411.5469"/><rect fill="#FEFECE" filter="url(#f1hbtdftdvoato)" height="31.6094" style="stroke: #A80036; stroke-width: 1.5;" width="114" x="678" y="490.6016"/><text fill="#000000" font-family="sans-serif" font-size="14" lengthAdjust="spacingAndGlyphs" textLength="100" x="685" y="512.1348">:ShowController</text><rect fill="#FEFECE" filter="url(#f1hbtdftdvoato)" height="31.6094" style="stroke: #A80036; stroke-width: 1.5;" width="96" x="882" y="537.2109"/><text fill="#000000" font-family="sans-serif" font-size="14" lengthAdjust="spacingAndGlyphs" textLength="78" x="889" y="558.7441">show : Show</text><rect fill="#FFFFFF" filter="url(#f1hbtdftdvoato)" height="230.7188" style="stroke: #000000; stroke-width: 2.0;" width="969" x="23" y="651.5234"/><rect fill="#FFFFFF" height="103.9609" style="stroke: none; stroke-width: 1.0;" width="969" x="23" y="778.2813"/><rect fill="#FEFECE" filter="url(#f1hbtdftdvoato)" height="31.6094" style="stroke: #A80036; stroke-width: 1.5;" width="124" x="307.5" y="805.2813"/><text fill="#000000" font-family="sans-serif" font-size="14" lengthAdjust="spacingAndGlyphs" textLength="110" x="314.5" y="826.8145">:ShowCreateView</text><rect fill="#FFFFFF" height="110.4063" style="stroke: none; stroke-width: 1.0;" width="989" x="13" y="889.2422"/><line style="stroke: #A80036; stroke-width: 1.0; stroke-dasharray: 5.0,5.0;" x1="55" x2="55" y1="119.2188" y2="1016.6484"/><line style="stroke: #A80036; stroke-width: 1.0; stroke-dasharray: 5.0,5.0;" x1="233.5" x2="233.5" y1="239.4844" y2="1016.6484"/><line style="stroke: #A80036; stroke-width: 1.0; stroke-dasharray: 5.0,5.0;" x1="371.5" x2="371.5" y1="838.5859" y2="1016.6484"/><line style="stroke: #A80036; stroke-width: 1.0; stroke-dasharray: 5.0,5.0;" x1="481.5" x2="481.5" y1="119.2188" y2="1016.6484"/><line style="stroke: #A80036; stroke-width: 1.0; stroke-dasharray: 5.0,5.0;" x1="609" x2="609" y1="192.875" y2="1016.6484"/><line style="stroke: #A80036; stroke-width: 1.0; stroke-dasharray: 5.0,5.0;" x1="737" x2="737" y1="523.9063" y2="1016.6484"/><line style="stroke: #A80036; stroke-width: 1.0; stroke-dasharray: 5.0,5.0;" x1="839" x2="839" y1="119.2188" y2="1016.6484"/><line style="stroke: #A80036; stroke-width: 1.0; stroke-dasharray: 5.0,5.0;" x1="932" x2="932" y1="570.5156" y2="1016.6484"/><text fill="#000000" font-family="sans-serif" font-size="14" lengthAdjust="spacingAndGlyphs" textLength="39" x="33" y="116.1426">Admin</text><ellipse cx="55.5" cy="44.6094" fill="#FEFECE" filter="url(#f1hbtdftdvoato)" rx="8" ry="8" style="stroke: #A80036; stroke-width: 2.0;"/><path d="M55.5,52.6094 L55.5,79.6094 M42.5,60.6094 L68.5,60.6094 M55.5,79.6094 L42.5,94.6094 M55.5,79.6094 L68.5,94.6094 " fill="none" filter="url(#f1hbtdftdvoato)" style="stroke: #A80036; stroke-width: 2.0;"/><rect fill="#FEFECE" filter="url(#f1hbtdftdvoato)" height="31.6094" style="stroke: #A80036; stroke-width: 1.5;" width="69" x="445.5" y="82.6094"/><text fill="#000000" font-family="sans-serif" font-size="14" lengthAdjust="spacingAndGlyphs" textLength="55" x="452.5" y="104.1426">:Routeur</text><rect fill="#FEFECE" filter="url(#f1hbtdftdvoato)" height="49.2188" style="stroke: #A80036; stroke-width: 1.5;" width="62" x="806" y="65"/><text fill="#000000" font-family="sans-serif" font-size="14" font-style="italic" lengthAdjust="spacingAndGlyphs" textLength="48" x="813" y="86">«class»</text><text fill="#000000" font-family="sans-serif" font-size="14" lengthAdjust="spacingAndGlyphs" textLength="34" x="820" y="103.6094">Show</text><polygon fill="#A80036" points="470,147.5703,480,151.5703,470,155.5703,474,151.5703" style="stroke: #A80036; stroke-width: 1.0;"/><line style="stroke: #A80036; stroke-width: 1.0;" x1="3" x2="476" y1="151.5703" y2="151.5703"/><text fill="#000000" font-family="sans-serif" font-size="13" lengthAdjust="spacingAndGlyphs" textLength="112" x="10" y="146.7139">[GET]/show/create/</text><polygon fill="#A80036" points="538,177.9219,548,181.9219,538,185.9219,542,181.9219" style="stroke: #A80036; stroke-width: 1.0;"/><line style="stroke: #A80036; stroke-width: 1.0;" x1="482" x2="544" y1="181.9219" y2="181.9219"/><text fill="#000000" font-family="sans-serif" font-size="13" lengthAdjust="spacingAndGlyphs" textLength="44" x="489" y="177.0654">create()</text><rect fill="#FEFECE" filter="url(#f1hbtdftdvoato)" height="31.6094" style="stroke: #A80036; stroke-width: 1.5;" width="114" x="550" y="159.5703"/><text fill="#000000" font-family="sans-serif" font-size="14" lengthAdjust="spacingAndGlyphs" textLength="100" x="557" y="181.1035">:ShowController</text><polygon fill="#A80036" points="308.5,224.5313,298.5,228.5313,308.5,232.5313,304.5,228.5313" style="stroke: #A80036; stroke-width: 1.0;"/><line style="stroke: #A80036; stroke-width: 1.0;" x1="302.5" x2="481" y1="228.5313" y2="228.5313"/><text fill="#000000" font-family="sans-serif" font-size="13" lengthAdjust="spacingAndGlyphs" textLength="31" x="314.5" y="223.6748">new()</text><rect fill="#FEFECE" filter="url(#f1hbtdftdvoato)" height="31.6094" style="stroke: #A80036; stroke-width: 1.5;" width="124" x="169.5" y="206.1797"/><text fill="#000000" font-family="sans-serif" font-size="14" lengthAdjust="spacingAndGlyphs" textLength="110" x="176.5" y="227.7129">:ShowCreateView</text><polygon fill="#A80036" points="221.5,271.1406,231.5,275.1406,221.5,279.1406,225.5,275.1406" style="stroke: #A80036; stroke-width: 1.0;"/><line style="stroke: #A80036; stroke-width: 1.0;" x1="55.5" x2="227.5" y1="275.1406" y2="275.1406"/><text fill="#000000" font-family="sans-serif" font-size="13" lengthAdjust="spacingAndGlyphs" textLength="107" x="62.5" y="270.2842">setTitle(val: String)</text><polygon fill="#A80036" points="221.5,301.4922,231.5,305.4922,221.5,309.4922,225.5,305.4922" style="stroke: #A80036; stroke-width: 1.0;"/><line style="stroke: #A80036; stroke-width: 1.0;" x1="55.5" x2="227.5" y1="305.4922" y2="305.4922"/><text fill="#000000" font-family="sans-serif" font-size="13" lengthAdjust="spacingAndGlyphs" textLength="148" x="62.5" y="300.6357">setDescription(val: String)</text><polygon fill="#A80036" points="221.5,331.8438,231.5,335.8438,221.5,339.8438,225.5,335.8438" style="stroke: #A80036; stroke-width: 1.0;"/><line style="stroke: #A80036; stroke-width: 1.0;" x1="55.5" x2="227.5" y1="335.8438" y2="335.8438"/><text fill="#000000" font-family="sans-serif" font-size="13" lengthAdjust="spacingAndGlyphs" textLength="111" x="62.5" y="330.9873">setDuration(val: int)</text><polygon fill="#A80036" points="221.5,362.1953,231.5,366.1953,221.5,370.1953,225.5,366.1953" style="stroke: #A80036; stroke-width: 1.0;"/><line style="stroke: #A80036; stroke-width: 1.0;" x1="55.5" x2="227.5" y1="366.1953" y2="366.1953"/><text fill="#000000" font-family="sans-serif" font-size="13" lengthAdjust="spacingAndGlyphs" textLength="154" x="62.5" y="361.3389">setPerformers(val: String[])</text><polygon fill="#A80036" points="221.5,392.5469,231.5,396.5469,221.5,400.5469,225.5,396.5469" style="stroke: #A80036; stroke-width: 1.0;"/><line style="stroke: #A80036; stroke-width: 1.0;" x1="55.5" x2="227.5" y1="396.5469" y2="396.5469"/><text fill="#000000" font-family="sans-serif" font-size="13" lengthAdjust="spacingAndGlyphs" textLength="124" x="62.5" y="391.6904">setPicture(val: String)</text><path d="M13,411.5469 L74,411.5469 L74,419.5469 L64,429.5469 L13,429.5469 L13,411.5469 " fill="#EEEEEE" style="stroke: #000000; stroke-width: 1.0;"/><rect fill="none" height="588.1016" style="stroke: #000000; stroke-width: 2.0;" width="989" x="13" y="411.5469"/><text fill="#000000" font-family="sans-serif" font-size="13" font-weight="bold" lengthAdjust="spacingAndGlyphs" textLength="16" x="28" y="426.042">alt</text><polygon fill="#A80036" points="221.5,448.25,231.5,452.25,221.5,456.25,225.5,452.25" style="stroke: #A80036; stroke-width: 1.0;"/><line style="stroke: #A80036; stroke-width: 1.0;" x1="55.5" x2="227.5" y1="452.25" y2="452.25"/><text fill="#000000" font-family="sans-serif" font-size="13" lengthAdjust="spacingAndGlyphs" textLength="44" x="62.5" y="447.3936">create()</text><polygon fill="#A80036" points="470,478.6016,480,482.6016,470,486.6016,474,482.6016" style="stroke: #A80036; stroke-width: 1.0;"/><line style="stroke: #A80036; stroke-width: 1.0;" x1="233.5" x2="476" y1="482.6016" y2="482.6016"/><text fill="#000000" font-family="sans-serif" font-size="13" lengthAdjust="spacingAndGlyphs" textLength="137" x="240.5" y="477.7451">[POST]/show/create{...}</text><polygon fill="#A80036" points="666,508.9531,676,512.9531,666,516.9531,670,512.9531" style="stroke: #A80036; stroke-width: 1.0;"/><line style="stroke: #A80036; stroke-width: 1.0;" x1="482" x2="672" y1="512.9531" y2="512.9531"/><text fill="#000000" font-family="sans-serif" font-size="13" lengthAdjust="spacingAndGlyphs" textLength="56" x="489" y="508.0967">create(...)</text><rect fill="#FEFECE" filter="url(#f1hbtdftdvoato)" height="31.6094" style="stroke: #A80036; stroke-width: 1.5;" width="114" x="678" y="490.6016"/><text fill="#000000" font-family="sans-serif" font-size="14" lengthAdjust="spacingAndGlyphs" textLength="100" x="685" y="512.1348">:ShowController</text><polygon fill="#A80036" points="870,555.5625,880,559.5625,870,563.5625,874,559.5625" style="stroke: #A80036; stroke-width: 1.0;"/><line style="stroke: #A80036; stroke-width: 1.0;" x1="737" x2="876" y1="559.5625" y2="559.5625"/><text fill="#000000" font-family="sans-serif" font-size="13" lengthAdjust="spacingAndGlyphs" textLength="43" x="744" y="554.7061">new(...)</text><rect fill="#FEFECE" filter="url(#f1hbtdftdvoato)" height="31.6094" style="stroke: #A80036; stroke-width: 1.5;" width="96" x="882" y="537.2109"/><text fill="#000000" font-family="sans-serif" font-size="14" lengthAdjust="spacingAndGlyphs" textLength="78" x="889" y="558.7441">show : Show</text><polygon fill="#A80036" points="920,602.1719,930,606.1719,920,610.1719,924,606.1719" style="stroke: #A80036; stroke-width: 1.0;"/><line style="stroke: #A80036; stroke-width: 1.0;" x1="737" x2="926" y1="606.1719" y2="606.1719"/><text fill="#000000" font-family="sans-serif" font-size="13" lengthAdjust="spacingAndGlyphs" textLength="122" x="744" y="601.3154">validateData(): Error[]</text><polygon fill="#A80036" points="748,632.5234,738,636.5234,748,640.5234,744,636.5234" style="stroke: #A80036; stroke-width: 1.0;"/><line style="stroke: #A80036; stroke-width: 1.0; stroke-dasharray: 2.0,2.0;" x1="742" x2="931" y1="636.5234" y2="636.5234"/><text fill="#000000" font-family="sans-serif" font-size="13" lengthAdjust="spacingAndGlyphs" textLength="33" x="754" y="631.667">errors</text><path d="M23,651.5234 L84,651.5234 L84,659.5234 L74,669.5234 L23,669.5234 L23,651.5234 " fill="#EEEEEE" style="stroke: #000000; stroke-width: 1.0;"/><rect fill="none" height="230.7188" style="stroke: #000000; stroke-width: 2.0;" width="969" x="23" y="651.5234"/><text fill="#000000" font-family="sans-serif" font-size="13" font-weight="bold" lengthAdjust="spacingAndGlyphs" textLength="16" x="38" y="666.0186">alt</text><text fill="#000000" font-family="sans-serif" font-size="11" font-weight="bold" lengthAdjust="spacingAndGlyphs" textLength="70" x="99" y="664.9424">[errors == []]</text><polygon fill="#A80036" points="920,688.2266,930,692.2266,920,696.2266,924,692.2266" style="stroke: #A80036; stroke-width: 1.0;"/><line style="stroke: #A80036; stroke-width: 1.0;" x1="737" x2="926" y1="692.2266" y2="692.2266"/><text fill="#000000" font-family="sans-serif" font-size="13" lengthAdjust="spacingAndGlyphs" textLength="34" x="744" y="687.3701">save()</text><polygon fill="#A80036" points="493,718.5781,483,722.5781,493,726.5781,489,722.5781" style="stroke: #A80036; stroke-width: 1.0;"/><line style="stroke: #A80036; stroke-width: 1.0;" x1="487" x2="736" y1="722.5781" y2="722.5781"/><text fill="#000000" font-family="sans-serif" font-size="13" lengthAdjust="spacingAndGlyphs" textLength="89" x="499" y="717.7217">[GET]/show/list</text><rect fill="#FFFFFF" filter="url(#f1hbtdftdvoato)" height="42.7031" style="stroke: #000000; stroke-width: 2.0;" width="107" x="442.5" y="730.5781"/><polygon fill="#EEEEEE" points="442.5,730.5781,504.5,730.5781,504.5,738.5781,494.5,748.5781,442.5,748.5781,442.5,730.5781" style="stroke: #000000; stroke-width: 2.0;"/><text fill="#000000" font-family="sans-serif" font-size="13" font-weight="bold" lengthAdjust="spacingAndGlyphs" textLength="17" x="455.5" y="746.0732">ref</text><text fill="#000000" font-family="sans-serif" font-size="13" lengthAdjust="spacingAndGlyphs" textLength="99" x="448.5" y="766.0732">SD_SHOW_LIST</text><line style="stroke: #000000; stroke-width: 1.0; stroke-dasharray: 2.0,2.0;" x1="23" x2="992" y1="779.2813" y2="779.2813"/><polygon fill="#A80036" points="446.5,823.6328,436.5,827.6328,446.5,831.6328,442.5,827.6328" style="stroke: #A80036; stroke-width: 1.0;"/><line style="stroke: #A80036; stroke-width: 1.0;" x1="440.5" x2="736" y1="827.6328" y2="827.6328"/><text fill="#000000" font-family="sans-serif" font-size="13" lengthAdjust="spacingAndGlyphs" textLength="64" x="452.5" y="822.7764">new(errors)</text><rect fill="#FEFECE" filter="url(#f1hbtdftdvoato)" height="31.6094" style="stroke: #A80036; stroke-width: 1.5;" width="124" x="307.5" y="805.2813"/><text fill="#000000" font-family="sans-serif" font-size="14" lengthAdjust="spacingAndGlyphs" textLength="110" x="314.5" y="826.8145">:ShowCreateView</text><polygon fill="#A80036" points="359.5,870.2422,369.5,874.2422,359.5,878.2422,363.5,874.2422" style="stroke: #A80036; stroke-width: 1.0;"/><line style="stroke: #A80036; stroke-width: 1.0;" x1="55.5" x2="365.5" y1="874.2422" y2="874.2422"/><text fill="#000000" font-family="sans-serif" font-size="13" lengthAdjust="spacingAndGlyphs" textLength="44" x="62.5" y="869.3857">/*retry/*</text><line style="stroke: #000000; stroke-width: 1.0; stroke-dasharray: 2.0,2.0;" x1="13" x2="1002" y1="890.2422" y2="890.2422"/><polygon fill="#A80036" points="221.5,909.5938,231.5,913.5938,221.5,917.5938,225.5,913.5938" style="stroke: #A80036; stroke-width: 1.0;"/><line style="stroke: #A80036; stroke-width: 1.0;" x1="55.5" x2="227.5" y1="913.5938" y2="913.5938"/><text fill="#000000" font-family="sans-serif" font-size="13" lengthAdjust="spacingAndGlyphs" textLength="36" x="62.5" y="908.7373">back()</text><polygon fill="#A80036" points="470,939.9453,480,943.9453,470,947.9453,474,943.9453" style="stroke: #A80036; stroke-width: 1.0;"/><line style="stroke: #A80036; stroke-width: 1.0;" x1="233.5" x2="476" y1="943.9453" y2="943.9453"/><text fill="#000000" font-family="sans-serif" font-size="13" lengthAdjust="spacingAndGlyphs" textLength="89" x="240.5" y="939.0889">[GET]/show/list</text><rect fill="#FFFFFF" filter="url(#f1hbtdftdvoato)" height="42.7031" style="stroke: #000000; stroke-width: 2.0;" width="107" x="442.5" y="951.9453"/><polygon fill="#EEEEEE" points="442.5,951.9453,504.5,951.9453,504.5,959.9453,494.5,969.9453,442.5,969.9453,442.5,951.9453" style="stroke: #000000; stroke-width: 2.0;"/><text fill="#000000" font-family="sans-serif" font-size="13" font-weight="bold" lengthAdjust="spacingAndGlyphs" textLength="17" x="455.5" y="967.4404">ref</text><text fill="#000000" font-family="sans-serif" font-size="13" lengthAdjust="spacingAndGlyphs" textLength="99" x="448.5" y="987.4404">SD_SHOW_LIST</text><!--
@startuml SD_SHOW_CREATE

    title SD_SHOW_CREATE
    hide footbox

    Actor "Admin" as A
    Participant ":ShowCreateView" as SV
    Participant ":ShowCreateView" as SV2
    Participant ":Routeur" as R
    Participant ":ShowController" as SC
    Participant ":ShowController" as SC2
    Participant "Show" as S <<class>>
    Participant "show : Show " as SS

    -> R : [GET]/show/create/
    create SC
    R -> SC : create()
    create SV
    R -> SV : new()

    A -> SV : setTitle(val: String)
    A -> SV : setDescription(val: String)
    A -> SV : setDuration(val: int)
    A -> SV : setPerformers(val: String[])
    A -> SV : setPicture(val: String)
    alt 
    A -> SV : create()
    SV -> R : [POST]/show/create{...}
    create SC2
    R -> SC2 : create(...)
    create SS
    SC2 -> SS : new(...)
    SC2 -> SS : validateData(): Error[]
    SS - -> SC2 : errors

    alt errors == []

        SC2 -> SS : save()
        SC2 -> R : [GET]/show/list
        ref over R : SD_SHOW_LIST

    else
    |||
        create SV2
        SC2 -> SV2 : new(errors)
        A -> SV2 : /*retry/*

    end
    else 
    A -> SV : back()
    SV -> R : [GET]/show/list
    ref over R : SD_SHOW_LIST
    end

@enduml

PlantUML version 1.2019.09(Mon Aug 26 18:19:51 CEST 2019)
(GPL source distribution)
Java Runtime: Java(TM) SE Runtime Environment
JVM: Java HotSpot(TM) 64-Bit Server VM
Java Version: 1.8.0_221-b11
Operating System: Windows 10
OS Version: 10.0
Default Encoding: Cp1252
Language: fr
Country: FR
--></g></svg>