<?xml version="1.0" encoding="UTF-8" standalone="no"?><svg xmlns="http://www.w3.org/2000/svg" xmlns:xlink="http://www.w3.org/1999/xlink" contentScriptType="application/ecmascript" contentStyleType="text/css" height="727px" preserveAspectRatio="none" style="width:1067px;height:727px;" version="1.1" viewBox="0 0 1067 727" width="1067px" zoomAndPan="magnify"><defs><filter height="300%" id="f1466fhwltp7i9" width="300%" x="-1" y="-1"><feGaussianBlur result="blurOut" stdDeviation="2.0"/><feColorMatrix in="blurOut" result="blurOut2" type="matrix" values="0 0 0 0 0 0 0 0 0 0 0 0 0 0 0 0 0 0 .4 0"/><feOffset dx="4.0" dy="4.0" in="blurOut2" result="blurOut3"/><feBlend in="SourceGraphic" in2="blurOut3" mode="normal"/></filter></defs><g><text fill="#000000" font-family="sans-serif" font-size="14" font-weight="bold" lengthAdjust="spacingAndGlyphs" textLength="173" x="447.75" y="24.5332">SD_PERFORMANCE_LIST</text><rect fill="#FEFECE" filter="url(#f1466fhwltp7i9)" height="31.6094" style="stroke: #A80036; stroke-width: 1.5;" width="161" x="668.5" y="159.5703"/><text fill="#000000" font-family="sans-serif" font-size="14" lengthAdjust="spacingAndGlyphs" textLength="147" x="675.5" y="181.1035">:PerformanceController</text><rect fill="#FEFECE" filter="url(#f1466fhwltp7i9)" height="31.6094" style="stroke: #A80036; stroke-width: 1.5;" width="150" x="120.5" y="266.8828"/><text fill="#000000" font-family="sans-serif" font-size="14" lengthAdjust="spacingAndGlyphs" textLength="136" x="127.5" y="288.416">:PerformanceListView</text><rect fill="#FFFFFF" filter="url(#f1466fhwltp7i9)" height="377.9219" style="stroke: #000000; stroke-width: 2.0;" width="491" x="13" y="320.4922"/><rect fill="#FFFFFF" height="110.4063" style="stroke: none; stroke-width: 1.0;" width="491" x="13" y="477.6016"/><rect fill="#FFFFFF" height="110.4063" style="stroke: none; stroke-width: 1.0;" width="491" x="13" y="588.0078"/><line style="stroke: #A80036; stroke-width: 1.0; stroke-dasharray: 5.0,5.0;" x1="45" x2="45" y1="119.2188" y2="715.4141"/><line style="stroke: #A80036; stroke-width: 1.0; stroke-dasharray: 5.0,5.0;" x1="197.5" x2="197.5" y1="300.1875" y2="715.4141"/><line style="stroke: #A80036; stroke-width: 1.0; stroke-dasharray: 5.0,5.0;" x1="457" x2="457" y1="119.2188" y2="715.4141"/><line style="stroke: #A80036; stroke-width: 1.0; stroke-dasharray: 5.0,5.0;" x1="750.5" x2="750.5" y1="192.875" y2="715.4141"/><line style="stroke: #A80036; stroke-width: 1.0; stroke-dasharray: 5.0,5.0;" x1="1010.5" x2="1010.5" y1="119.2188" y2="715.4141"/><text fill="#000000" font-family="sans-serif" font-size="14" lengthAdjust="spacingAndGlyphs" textLength="39" x="23" y="116.1426">Admin</text><ellipse cx="45.5" cy="44.6094" fill="#FEFECE" filter="url(#f1466fhwltp7i9)" rx="8" ry="8" style="stroke: #A80036; stroke-width: 2.0;"/><path d="M45.5,52.6094 L45.5,79.6094 M32.5,60.6094 L58.5,60.6094 M45.5,79.6094 L32.5,94.6094 M45.5,79.6094 L58.5,94.6094 " fill="none" filter="url(#f1466fhwltp7i9)" style="stroke: #A80036; stroke-width: 2.0;"/><rect fill="#FEFECE" filter="url(#f1466fhwltp7i9)" height="31.6094" style="stroke: #A80036; stroke-width: 1.5;" width="69" x="421" y="82.6094"/><text fill="#000000" font-family="sans-serif" font-size="14" lengthAdjust="spacingAndGlyphs" textLength="55" x="428" y="104.1426">:Routeur</text><rect fill="#FEFECE" filter="url(#f1466fhwltp7i9)" height="49.2188" style="stroke: #A80036; stroke-width: 1.5;" width="95" x="961.5" y="65"/><text fill="#000000" font-family="sans-serif" font-size="14" font-style="italic" lengthAdjust="spacingAndGlyphs" textLength="48" x="985" y="86">«class»</text><text fill="#000000" font-family="sans-serif" font-size="14" lengthAdjust="spacingAndGlyphs" textLength="81" x="968.5" y="103.6094">Performance</text><polygon fill="#A80036" points="445.5,147.5703,455.5,151.5703,445.5,155.5703,449.5,151.5703" style="stroke: #A80036; stroke-width: 1.0;"/><line style="stroke: #A80036; stroke-width: 1.0;" x1="3" x2="451.5" y1="151.5703" y2="151.5703"/><text fill="#000000" font-family="sans-serif" font-size="13" lengthAdjust="spacingAndGlyphs" textLength="244" x="10" y="146.7139">[GET]/performance/list/&lt;idShow&gt;/[&lt;filter&gt;]</text><polygon fill="#A80036" points="656.5,177.9219,666.5,181.9219,656.5,185.9219,660.5,181.9219" style="stroke: #A80036; stroke-width: 1.0;"/><line style="stroke: #A80036; stroke-width: 1.0;" x1="457.5" x2="662.5" y1="181.9219" y2="181.9219"/><text fill="#000000" font-family="sans-serif" font-size="13" lengthAdjust="spacingAndGlyphs" textLength="187" x="464.5" y="177.0654">list(filter, idShow : string = "",int)</text><rect fill="#FEFECE" filter="url(#f1466fhwltp7i9)" height="31.6094" style="stroke: #A80036; stroke-width: 1.5;" width="161" x="668.5" y="159.5703"/><text fill="#000000" font-family="sans-serif" font-size="14" lengthAdjust="spacingAndGlyphs" textLength="147" x="675.5" y="181.1035">:PerformanceController</text><polygon fill="#A80036" points="999,224.5313,1009,228.5313,999,232.5313,1003,228.5313" style="stroke: #A80036; stroke-width: 1.0;"/><line style="stroke: #A80036; stroke-width: 1.0;" x1="751" x2="1005" y1="228.5313" y2="228.5313"/><text fill="#000000" font-family="sans-serif" font-size="13" lengthAdjust="spacingAndGlyphs" textLength="236" x="758" y="223.6748">getFiltered(filter, idShow) : Performance[]</text><polygon fill="#A80036" points="762,254.8828,752,258.8828,762,262.8828,758,258.8828" style="stroke: #A80036; stroke-width: 1.0;"/><line style="stroke: #A80036; stroke-width: 1.0; stroke-dasharray: 2.0,2.0;" x1="756" x2="1010" y1="258.8828" y2="258.8828"/><text fill="#000000" font-family="sans-serif" font-size="13" lengthAdjust="spacingAndGlyphs" textLength="78" x="768" y="254.0264">performances</text><polygon fill="#A80036" points="285.5,285.2344,275.5,289.2344,285.5,293.2344,281.5,289.2344" style="stroke: #A80036; stroke-width: 1.0;"/><line style="stroke: #A80036; stroke-width: 1.0;" x1="279.5" x2="750" y1="289.2344" y2="289.2344"/><text fill="#000000" font-family="sans-serif" font-size="13" lengthAdjust="spacingAndGlyphs" textLength="109" x="291.5" y="284.3779">new(performances)</text><rect fill="#FEFECE" filter="url(#f1466fhwltp7i9)" height="31.6094" style="stroke: #A80036; stroke-width: 1.5;" width="150" x="120.5" y="266.8828"/><text fill="#000000" font-family="sans-serif" font-size="14" lengthAdjust="spacingAndGlyphs" textLength="136" x="127.5" y="288.416">:PerformanceListView</text><path d="M13,320.4922 L74,320.4922 L74,328.4922 L64,338.4922 L13,338.4922 L13,320.4922 " fill="#EEEEEE" style="stroke: #000000; stroke-width: 1.0;"/><rect fill="none" height="377.9219" style="stroke: #000000; stroke-width: 2.0;" width="491" x="13" y="320.4922"/><text fill="#000000" font-family="sans-serif" font-size="13" font-weight="bold" lengthAdjust="spacingAndGlyphs" textLength="16" x="28" y="334.9873">alt</text><polygon fill="#A80036" points="185.5,357.1953,195.5,361.1953,185.5,365.1953,189.5,361.1953" style="stroke: #A80036; stroke-width: 1.0;"/><line style="stroke: #A80036; stroke-width: 1.0;" x1="45.5" x2="191.5" y1="361.1953" y2="361.1953"/><text fill="#000000" font-family="sans-serif" font-size="13" lengthAdjust="spacingAndGlyphs" textLength="128" x="52.5" y="356.3389">setFilter(value : string)</text><polygon fill="#A80036" points="185.5,387.5469,195.5,391.5469,185.5,395.5469,189.5,391.5469" style="stroke: #A80036; stroke-width: 1.0;"/><line style="stroke: #A80036; stroke-width: 1.0;" x1="45.5" x2="191.5" y1="391.5469" y2="391.5469"/><text fill="#000000" font-family="sans-serif" font-size="13" lengthAdjust="spacingAndGlyphs" textLength="68" x="52.5" y="386.6904">applyFilter()</text><polygon fill="#A80036" points="445.5,417.8984,455.5,421.8984,445.5,425.8984,449.5,421.8984" style="stroke: #A80036; stroke-width: 1.0;"/><line style="stroke: #A80036; stroke-width: 1.0;" x1="197.5" x2="451.5" y1="421.8984" y2="421.8984"/><text fill="#000000" font-family="sans-serif" font-size="13" lengthAdjust="spacingAndGlyphs" textLength="236" x="204.5" y="417.042">[GET]/performance/list/&lt;idShow&gt;/&lt;filter&gt;</text><rect fill="#FFFFFF" filter="url(#f1466fhwltp7i9)" height="42.7031" style="stroke: #000000; stroke-width: 2.0;" width="167" x="418" y="429.8984"/><polygon fill="#EEEEEE" points="418,429.8984,480,429.8984,480,437.8984,470,447.8984,418,447.8984,418,429.8984" style="stroke: #000000; stroke-width: 2.0;"/><text fill="#000000" font-family="sans-serif" font-size="13" font-weight="bold" lengthAdjust="spacingAndGlyphs" textLength="17" x="431" y="445.3936">ref</text><text fill="#000000" font-family="sans-serif" font-size="13" lengthAdjust="spacingAndGlyphs" textLength="159" x="424" y="465.3936">SD_PERFORMANCE_LIST</text><line style="stroke: #000000; stroke-width: 1.0; stroke-dasharray: 2.0,2.0;" x1="13" x2="504" y1="478.6016" y2="478.6016"/><polygon fill="#A80036" points="185.5,497.9531,195.5,501.9531,185.5,505.9531,189.5,501.9531" style="stroke: #A80036; stroke-width: 1.0;"/><line style="stroke: #A80036; stroke-width: 1.0;" x1="45.5" x2="191.5" y1="501.9531" y2="501.9531"/><text fill="#000000" font-family="sans-serif" font-size="13" lengthAdjust="spacingAndGlyphs" textLength="102" x="52.5" y="497.0967">delete(idPerf : int)</text><polygon fill="#A80036" points="445.5,528.3047,455.5,532.3047,445.5,536.3047,449.5,532.3047" style="stroke: #A80036; stroke-width: 1.0;"/><line style="stroke: #A80036; stroke-width: 1.0;" x1="197.5" x2="451.5" y1="532.3047" y2="532.3047"/><text fill="#000000" font-family="sans-serif" font-size="13" lengthAdjust="spacingAndGlyphs" textLength="201" x="204.5" y="527.4482">[GET]/performance/delete/&lt;idPerf&gt;</text><rect fill="#FFFFFF" filter="url(#f1466fhwltp7i9)" height="42.7031" style="stroke: #000000; stroke-width: 2.0;" width="191" x="418" y="540.3047"/><polygon fill="#EEEEEE" points="418,540.3047,480,540.3047,480,548.3047,470,558.3047,418,558.3047,418,540.3047" style="stroke: #000000; stroke-width: 2.0;"/><text fill="#000000" font-family="sans-serif" font-size="13" font-weight="bold" lengthAdjust="spacingAndGlyphs" textLength="17" x="431" y="555.7998">ref</text><text fill="#000000" font-family="sans-serif" font-size="13" lengthAdjust="spacingAndGlyphs" textLength="183" x="424" y="575.7998">SD_PERFORMANCE_DELETE</text><line style="stroke: #000000; stroke-width: 1.0; stroke-dasharray: 2.0,2.0;" x1="13" x2="504" y1="589.0078" y2="589.0078"/><polygon fill="#A80036" points="185.5,608.3594,195.5,612.3594,185.5,616.3594,189.5,612.3594" style="stroke: #A80036; stroke-width: 1.0;"/><line style="stroke: #A80036; stroke-width: 1.0;" x1="45.5" x2="191.5" y1="612.3594" y2="612.3594"/><text fill="#000000" font-family="sans-serif" font-size="13" lengthAdjust="spacingAndGlyphs" textLength="44" x="52.5" y="607.5029">create()</text><polygon fill="#A80036" points="445.5,638.7109,455.5,642.7109,445.5,646.7109,449.5,642.7109" style="stroke: #A80036; stroke-width: 1.0;"/><line style="stroke: #A80036; stroke-width: 1.0;" x1="197.5" x2="451.5" y1="642.7109" y2="642.7109"/><text fill="#000000" font-family="sans-serif" font-size="13" lengthAdjust="spacingAndGlyphs" textLength="211" x="204.5" y="637.8545">[GET]/performance/create/&lt;idShow&gt;</text><rect fill="#FFFFFF" filter="url(#f1466fhwltp7i9)" height="42.7031" style="stroke: #000000; stroke-width: 2.0;" width="193" x="418" y="650.7109"/><polygon fill="#EEEEEE" points="418,650.7109,480,650.7109,480,658.7109,470,668.7109,418,668.7109,418,650.7109" style="stroke: #000000; stroke-width: 2.0;"/><text fill="#000000" font-family="sans-serif" font-size="13" font-weight="bold" lengthAdjust="spacingAndGlyphs" textLength="17" x="431" y="666.2061">ref</text><text fill="#000000" font-family="sans-serif" font-size="13" lengthAdjust="spacingAndGlyphs" textLength="185" x="424" y="686.2061">SD_PERFORMANCE_CREATE</text><!--
@startuml SD_PERFORMANCE_LIST
title SD_PERFORMANCE_LIST
hide footbox
Actor "Admin" as A
Participant ":PerformanceListView" as PL
Participant ":Routeur" as R
Participant ":PerformanceController" as PC
Participant "Performance"  as P <<class>>
-> R : [GET]/performance/list/<idShow>/[<filter>]
create PC
R -> PC : list(filter, idShow : string = "",int)
PC -> P : getFiltered(filter, idShow) : Performance[]
P - -> PC : performances
create PL 
PC -> PL : new(performances)
alt 
A -> PL : setFilter(value : string)
A -> PL : applyFilter()
PL -> R : [GET]/performance/list/<idShow>/<filter>
ref over R : SD_PERFORMANCE_LIST
else
A -> PL : delete(idPerf : int)
PL -> R : [GET]/performance/delete/<idPerf>
ref over R : SD_PERFORMANCE_DELETE
else
A -> PL : create()
PL ->R : [GET]/performance/create/<idShow>
ref over R : SD_PERFORMANCE_CREATE
end
@enduml

PlantUML version 1.2019.09(Mon Aug 26 18:19:51 CEST 2019)
(GPL source distribution)
Java Runtime: Java(TM) SE Runtime Environment
JVM: Java HotSpot(TM) 64-Bit Server VM
Java Version: 1.8.0_221-b11
Operating System: Windows 10
OS Version: 10.0
Default Encoding: Cp1252
Language: fr
Country: FR
--></g></svg>