<?xml version="1.0" encoding="UTF-8" standalone="no"?><svg xmlns="http://www.w3.org/2000/svg" xmlns:xlink="http://www.w3.org/1999/xlink" contentScriptType="application/ecmascript" contentStyleType="text/css" height="486px" preserveAspectRatio="none" style="width:339px;height:486px;" version="1.1" viewBox="0 0 339 486" width="339px" zoomAndPan="magnify"><defs/><g><rect fill="#FFFFFF" height="282.8672" style="stroke: #000000; stroke-width: 2.0;" width="231" x="13" y="174.3125"/><line style="stroke: #A80036; stroke-width: 1.0; stroke-dasharray: 5.0,5.0;" x1="45" x2="45" y1="83.6094" y2="474.1797"/><line style="stroke: #A80036; stroke-width: 1.0; stroke-dasharray: 5.0,5.0;" x1="201" x2="201" y1="83.6094" y2="474.1797"/><text fill="#000000" font-family="sans-serif" font-size="14" lengthAdjust="spacingAndGlyphs" textLength="38" x="23" y="80.5332">admin</text><ellipse cx="45" cy="13" fill="#FEFECE" rx="8" ry="8" style="stroke: #A80036; stroke-width: 2.0;"/><path d="M45,21 L45,48 M32,29 L58,29 M45,48 L32,63 M45,48 L58,63 " fill="none" style="stroke: #A80036; stroke-width: 2.0;"/><rect fill="#FEFECE" height="31.6094" style="stroke: #A80036; stroke-width: 1.5;" width="66" x="168" y="51"/><text fill="#000000" font-family="sans-serif" font-size="14" lengthAdjust="spacingAndGlyphs" textLength="52" x="175" y="72.5332">système</text><line style="stroke: #A80036; stroke-width: 1.0;" x1="201" x2="243" y1="115.9609" y2="115.9609"/><line style="stroke: #A80036; stroke-width: 1.0;" x1="243" x2="243" y1="115.9609" y2="128.9609"/><line style="stroke: #A80036; stroke-width: 1.0;" x1="202" x2="243" y1="128.9609" y2="128.9609"/><polygon fill="#A80036" points="212,124.9609,202,128.9609,212,132.9609,208,128.9609" style="stroke: #A80036; stroke-width: 1.0;"/><text fill="#000000" font-family="sans-serif" font-size="13" lengthAdjust="spacingAndGlyphs" textLength="119" x="208" y="111.1045">get list of reservation</text><polygon fill="#A80036" points="56,155.3125,46,159.3125,56,163.3125,52,159.3125" style="stroke: #A80036; stroke-width: 1.0;"/><line style="stroke: #A80036; stroke-width: 1.0;" x1="50" x2="200" y1="159.3125" y2="159.3125"/><text fill="#000000" font-family="sans-serif" font-size="13" lengthAdjust="spacingAndGlyphs" textLength="128" x="62" y="154.4561">display reservation list</text><path d="M13,174.3125 L74,174.3125 L74,182.3125 L64,192.3125 L13,192.3125 L13,174.3125 " fill="#EEEEEE" style="stroke: #000000; stroke-width: 1.0;"/><rect fill="none" height="282.8672" style="stroke: #000000; stroke-width: 2.0;" width="231" x="13" y="174.3125"/><text fill="#000000" font-family="sans-serif" font-size="13" font-weight="bold" lengthAdjust="spacingAndGlyphs" textLength="16" x="28" y="188.8076">alt</text><polygon fill="#A80036" points="189,211.0156,199,215.0156,189,219.0156,193,215.0156" style="stroke: #A80036; stroke-width: 1.0;"/><line style="stroke: #A80036; stroke-width: 1.0;" x1="45" x2="195" y1="215.0156" y2="215.0156"/><text fill="#000000" font-family="sans-serif" font-size="13" lengthAdjust="spacingAndGlyphs" textLength="50" x="52" y="210.1592">give filter</text><polygon fill="#A80036" points="189,241.3672,199,245.3672,189,249.3672,193,245.3672" style="stroke: #A80036; stroke-width: 1.0;"/><line style="stroke: #A80036; stroke-width: 1.0;" x1="45" x2="195" y1="245.3672" y2="245.3672"/><text fill="#000000" font-family="sans-serif" font-size="13" lengthAdjust="spacingAndGlyphs" textLength="102" x="52" y="240.5107">click apply button</text><rect fill="#FFFFFF" height="42.7031" style="stroke: #000000; stroke-width: 2.0;" width="217" x="20" y="253.3672"/><polygon fill="#EEEEEE" points="20,253.3672,82,253.3672,82,261.3672,72,271.3672,20,271.3672,20,253.3672" style="stroke: #000000; stroke-width: 2.0;"/><text fill="#000000" font-family="sans-serif" font-size="13" font-weight="bold" lengthAdjust="spacingAndGlyphs" textLength="17" x="33" y="268.8623">ref</text><text fill="#000000" font-family="sans-serif" font-size="13" lengthAdjust="spacingAndGlyphs" textLength="159" x="49" y="288.8623">SSD_RESERVATION_LIST</text><polygon fill="#A80036" points="189,319.4219,199,323.4219,189,327.4219,193,323.4219" style="stroke: #A80036; stroke-width: 1.0;"/><line style="stroke: #A80036; stroke-width: 1.0;" x1="45" x2="195" y1="323.4219" y2="323.4219"/><text fill="#000000" font-family="sans-serif" font-size="13" lengthAdjust="spacingAndGlyphs" textLength="132" x="52" y="318.5654">click delete reservation</text><rect fill="#FFFFFF" height="42.7031" style="stroke: #000000; stroke-width: 2.0;" width="217" x="20" y="331.4219"/><polygon fill="#EEEEEE" points="20,331.4219,82,331.4219,82,339.4219,72,349.4219,20,349.4219,20,331.4219" style="stroke: #000000; stroke-width: 2.0;"/><text fill="#000000" font-family="sans-serif" font-size="13" font-weight="bold" lengthAdjust="spacingAndGlyphs" textLength="17" x="33" y="346.917">ref</text><text fill="#000000" font-family="sans-serif" font-size="13" lengthAdjust="spacingAndGlyphs" textLength="183" x="37" y="366.917">SSD_RESERVATION_DELETE</text><polygon fill="#A80036" points="189,397.4766,199,401.4766,189,405.4766,193,401.4766" style="stroke: #A80036; stroke-width: 1.0;"/><line style="stroke: #A80036; stroke-width: 1.0;" x1="45" x2="195" y1="401.4766" y2="401.4766"/><text fill="#000000" font-family="sans-serif" font-size="13" lengthAdjust="spacingAndGlyphs" textLength="92" x="52" y="396.6201">click add button</text><rect fill="#FFFFFF" height="42.7031" style="stroke: #000000; stroke-width: 2.0;" width="217" x="20" y="409.4766"/><polygon fill="#EEEEEE" points="20,409.4766,82,409.4766,82,417.4766,72,427.4766,20,427.4766,20,409.4766" style="stroke: #000000; stroke-width: 2.0;"/><text fill="#000000" font-family="sans-serif" font-size="13" font-weight="bold" lengthAdjust="spacingAndGlyphs" textLength="17" x="33" y="424.9717">ref</text><text fill="#000000" font-family="sans-serif" font-size="13" lengthAdjust="spacingAndGlyphs" textLength="185" x="36" y="444.9717">SSD_RESERVATION_CREATE</text><!--
@startuml
hide footbox
skinparam shadowing false
actor admin as G
participant système as S
S->S : get list of reservation
S->G : display reservation list
alt 
G->S : give filter
G->S : click apply button
ref over G,S : SSD_RESERVATION_LIST 
G->S : click delete reservation
ref over G,S : SSD_RESERVATION_DELETE
G->S : click add button
ref over G,S  : SSD_RESERVATION_CREATE
end  
@endum

PlantUML version 1.2019.09(Mon Aug 26 18:19:51 CEST 2019)
(GPL source distribution)
Java Runtime: Java(TM) SE Runtime Environment
JVM: Java HotSpot(TM) 64-Bit Server VM
Java Version: 1.8.0_181-b13
Operating System: Windows 10
OS Version: 10.0
Default Encoding: Cp1252
Language: fr
Country: BE
--></g></svg>