<?xml version="1.0" encoding="UTF-8" standalone="no"?><svg xmlns="http://www.w3.org/2000/svg" xmlns:xlink="http://www.w3.org/1999/xlink" contentScriptType="application/ecmascript" contentStyleType="text/css" height="753px" preserveAspectRatio="none" style="width:1367px;height:753px;" version="1.1" viewBox="0 0 1367 753" width="1367px" zoomAndPan="magnify"><defs><filter height="300%" id="fqt48wbd5r9fn" width="300%" x="-1" y="-1"><feGaussianBlur result="blurOut" stdDeviation="2.0"/><feColorMatrix in="blurOut" result="blurOut2" type="matrix" values="0 0 0 0 0 0 0 0 0 0 0 0 0 0 0 0 0 0 .4 0"/><feOffset dx="4.0" dy="4.0" in="blurOut2" result="blurOut3"/><feBlend in="SourceGraphic" in2="blurOut3" mode="normal"/></filter></defs><g><text fill="#000000" font-family="sans-serif" font-size="14" font-weight="bold" lengthAdjust="spacingAndGlyphs" textLength="186" x="591" y="24.5332">SD_RESERVATION_DELETE</text><rect fill="#FEFECE" filter="url(#fqt48wbd5r9fn)" height="31.6094" style="stroke: #A80036; stroke-width: 1.5;" width="160" x="577" y="159.5703"/><text fill="#000000" font-family="sans-serif" font-size="14" lengthAdjust="spacingAndGlyphs" textLength="146" x="584" y="181.1035">: ReservationController</text><rect fill="#FEFECE" filter="url(#fqt48wbd5r9fn)" height="31.6094" style="stroke: #A80036; stroke-width: 1.5;" width="168" x="78" y="266.8828"/><text fill="#000000" font-family="sans-serif" font-size="14" lengthAdjust="spacingAndGlyphs" textLength="154" x="85" y="288.416">: ReservationDeleteView</text><rect fill="#FFFFFF" filter="url(#fqt48wbd5r9fn)" height="356.3828" style="stroke: #000000; stroke-width: 2.0;" width="1342" x="13" y="320.4922"/><rect fill="#FEFECE" filter="url(#fqt48wbd5r9fn)" height="31.6094" style="stroke: #A80036; stroke-width: 1.5;" width="160" x="751" y="399.5469"/><text fill="#000000" font-family="sans-serif" font-size="14" lengthAdjust="spacingAndGlyphs" textLength="146" x="758" y="421.0801">: ReservationController</text><rect fill="#FEFECE" filter="url(#fqt48wbd5r9fn)" height="31.6094" style="stroke: #A80036; stroke-width: 1.5;" width="178" x="1163" y="476.5078"/><text fill="#000000" font-family="sans-serif" font-size="14" lengthAdjust="spacingAndGlyphs" textLength="164" x="1170" y="498.041">Reservation : Reservation</text><rect fill="#FFFFFF" height="62.7031" style="stroke: none; stroke-width: 1.0;" width="1342" x="13" y="614.1719"/><line style="stroke: #A80036; stroke-width: 1.0; stroke-dasharray: 5.0,5.0;" x1="45" x2="45" y1="119.2188" y2="741.5781"/><line style="stroke: #A80036; stroke-width: 1.0; stroke-dasharray: 5.0,5.0;" x1="164" x2="164" y1="300.1875" y2="741.5781"/><line style="stroke: #A80036; stroke-width: 1.0; stroke-dasharray: 5.0,5.0;" x1="432.5" x2="432.5" y1="119.2188" y2="741.5781"/><line style="stroke: #A80036; stroke-width: 1.0; stroke-dasharray: 5.0,5.0;" x1="659" x2="659" y1="192.875" y2="741.5781"/><line style="stroke: #A80036; stroke-width: 1.0; stroke-dasharray: 5.0,5.0;" x1="833" x2="833" y1="432.8516" y2="741.5781"/><line style="stroke: #A80036; stroke-width: 1.0; stroke-dasharray: 5.0,5.0;" x1="1106" x2="1106" y1="119.2188" y2="741.5781"/><line style="stroke: #A80036; stroke-width: 1.0; stroke-dasharray: 5.0,5.0;" x1="1254" x2="1254" y1="509.8125" y2="741.5781"/><text fill="#000000" font-family="sans-serif" font-size="14" lengthAdjust="spacingAndGlyphs" textLength="39" x="23" y="116.1426">Admin</text><ellipse cx="45.5" cy="44.6094" fill="#FEFECE" filter="url(#fqt48wbd5r9fn)" rx="8" ry="8" style="stroke: #A80036; stroke-width: 2.0;"/><path d="M45.5,52.6094 L45.5,79.6094 M32.5,60.6094 L58.5,60.6094 M45.5,79.6094 L32.5,94.6094 M45.5,79.6094 L58.5,94.6094 " fill="none" filter="url(#fqt48wbd5r9fn)" style="stroke: #A80036; stroke-width: 2.0;"/><rect fill="#FEFECE" filter="url(#fqt48wbd5r9fn)" height="31.6094" style="stroke: #A80036; stroke-width: 1.5;" width="65" x="398.5" y="82.6094"/><text fill="#000000" font-family="sans-serif" font-size="14" lengthAdjust="spacingAndGlyphs" textLength="51" x="405.5" y="104.1426">: Router</text><rect fill="#FEFECE" filter="url(#fqt48wbd5r9fn)" height="49.2188" style="stroke: #A80036; stroke-width: 1.5;" width="90" x="1059" y="65"/><text fill="#000000" font-family="sans-serif" font-size="14" font-style="italic" lengthAdjust="spacingAndGlyphs" textLength="48" x="1080" y="86">«class»</text><text fill="#000000" font-family="sans-serif" font-size="14" lengthAdjust="spacingAndGlyphs" textLength="76" x="1066" y="103.6094">Reservation</text><polygon fill="#A80036" points="421,147.5703,431,151.5703,421,155.5703,425,151.5703" style="stroke: #A80036; stroke-width: 1.0;"/><line style="stroke: #A80036; stroke-width: 1.0;" x1="3" x2="427" y1="151.5703" y2="151.5703"/><text fill="#000000" font-family="sans-serif" font-size="13" lengthAdjust="spacingAndGlyphs" textLength="240" x="10" y="146.7139">[GET] /reservation/delete/&lt;idReservation&gt;</text><polygon fill="#A80036" points="565,177.9219,575,181.9219,565,185.9219,569,181.9219" style="stroke: #A80036; stroke-width: 1.0;"/><line style="stroke: #A80036; stroke-width: 1.0;" x1="433" x2="571" y1="181.9219" y2="181.9219"/><text fill="#000000" font-family="sans-serif" font-size="13" lengthAdjust="spacingAndGlyphs" textLength="120" x="440" y="177.0654">delete(idReservation)</text><rect fill="#FEFECE" filter="url(#fqt48wbd5r9fn)" height="31.6094" style="stroke: #A80036; stroke-width: 1.5;" width="160" x="577" y="159.5703"/><text fill="#000000" font-family="sans-serif" font-size="14" lengthAdjust="spacingAndGlyphs" textLength="146" x="584" y="181.1035">: ReservationController</text><polygon fill="#A80036" points="1094,224.5313,1104,228.5313,1094,232.5313,1098,228.5313" style="stroke: #A80036; stroke-width: 1.0;"/><line style="stroke: #A80036; stroke-width: 1.0;" x1="659" x2="1100" y1="228.5313" y2="228.5313"/><text fill="#000000" font-family="sans-serif" font-size="13" lengthAdjust="spacingAndGlyphs" textLength="249" x="666" y="223.6748">getReservation(idReservation) : Reservation</text><polygon fill="#A80036" points="670,254.8828,660,258.8828,670,262.8828,666,258.8828" style="stroke: #A80036; stroke-width: 1.0;"/><line style="stroke: #A80036; stroke-width: 1.0; stroke-dasharray: 2.0,2.0;" x1="664" x2="1105" y1="258.8828" y2="258.8828"/><text fill="#000000" font-family="sans-serif" font-size="13" lengthAdjust="spacingAndGlyphs" textLength="62" x="676" y="254.0264">reservation</text><polygon fill="#A80036" points="261,285.2344,251,289.2344,261,293.2344,257,289.2344" style="stroke: #A80036; stroke-width: 1.0;"/><line style="stroke: #A80036; stroke-width: 1.0;" x1="255" x2="658" y1="289.2344" y2="289.2344"/><text fill="#000000" font-family="sans-serif" font-size="13" lengthAdjust="spacingAndGlyphs" textLength="93" x="267" y="284.3779">new(reservation)</text><rect fill="#FEFECE" filter="url(#fqt48wbd5r9fn)" height="31.6094" style="stroke: #A80036; stroke-width: 1.5;" width="168" x="78" y="266.8828"/><text fill="#000000" font-family="sans-serif" font-size="14" lengthAdjust="spacingAndGlyphs" textLength="154" x="85" y="288.416">: ReservationDeleteView</text><path d="M13,320.4922 L74,320.4922 L74,328.4922 L64,338.4922 L13,338.4922 L13,320.4922 " fill="#EEEEEE" style="stroke: #000000; stroke-width: 1.0;"/><rect fill="none" height="356.3828" style="stroke: #000000; stroke-width: 2.0;" width="1342" x="13" y="320.4922"/><text fill="#000000" font-family="sans-serif" font-size="13" font-weight="bold" lengthAdjust="spacingAndGlyphs" textLength="16" x="28" y="334.9873">alt</text><polygon fill="#A80036" points="152,357.1953,162,361.1953,152,365.1953,156,361.1953" style="stroke: #A80036; stroke-width: 1.0;"/><line style="stroke: #A80036; stroke-width: 1.0;" x1="45.5" x2="158" y1="361.1953" y2="361.1953"/><text fill="#000000" font-family="sans-serif" font-size="13" lengthAdjust="spacingAndGlyphs" textLength="50" x="52.5" y="356.3389">confirm()</text><polygon fill="#A80036" points="421,387.5469,431,391.5469,421,395.5469,425,391.5469" style="stroke: #A80036; stroke-width: 1.0;"/><line style="stroke: #A80036; stroke-width: 1.0;" x1="164" x2="427" y1="391.5469" y2="391.5469"/><text fill="#000000" font-family="sans-serif" font-size="13" lengthAdjust="spacingAndGlyphs" textLength="245" x="171" y="386.6904">[POST] reservation/delete/&lt;idReservation&gt;</text><polygon fill="#A80036" points="739,417.8984,749,421.8984,739,425.8984,743,421.8984" style="stroke: #A80036; stroke-width: 1.0;"/><line style="stroke: #A80036; stroke-width: 1.0;" x1="433" x2="745" y1="421.8984" y2="421.8984"/><text fill="#000000" font-family="sans-serif" font-size="13" lengthAdjust="spacingAndGlyphs" textLength="120" x="440" y="417.042">delete(idReservation)</text><rect fill="#FEFECE" filter="url(#fqt48wbd5r9fn)" height="31.6094" style="stroke: #A80036; stroke-width: 1.5;" width="160" x="751" y="399.5469"/><text fill="#000000" font-family="sans-serif" font-size="14" lengthAdjust="spacingAndGlyphs" textLength="146" x="758" y="421.0801">: ReservationController</text><polygon fill="#A80036" points="1094,464.5078,1104,468.5078,1094,472.5078,1098,468.5078" style="stroke: #A80036; stroke-width: 1.0;"/><line style="stroke: #A80036; stroke-width: 1.0;" x1="833" x2="1100" y1="468.5078" y2="468.5078"/><text fill="#000000" font-family="sans-serif" font-size="13" lengthAdjust="spacingAndGlyphs" textLength="249" x="840" y="463.6514">getReservation(idReservation) : Reservation</text><polygon fill="#A80036" points="1151,494.8594,1161,498.8594,1151,502.8594,1155,498.8594" style="stroke: #A80036; stroke-width: 1.0;"/><line style="stroke: #A80036; stroke-width: 1.0;" x1="1106" x2="1157" y1="498.8594" y2="498.8594"/><text fill="#000000" font-family="sans-serif" font-size="13" lengthAdjust="spacingAndGlyphs" textLength="31" x="1113" y="494.0029">new()</text><rect fill="#FEFECE" filter="url(#fqt48wbd5r9fn)" height="31.6094" style="stroke: #A80036; stroke-width: 1.5;" width="178" x="1163" y="476.5078"/><text fill="#000000" font-family="sans-serif" font-size="14" lengthAdjust="spacingAndGlyphs" textLength="164" x="1170" y="498.041">Reservation : Reservation</text><polygon fill="#A80036" points="844,541.4688,834,545.4688,844,549.4688,840,545.4688" style="stroke: #A80036; stroke-width: 1.0;"/><line style="stroke: #A80036; stroke-width: 1.0; stroke-dasharray: 2.0,2.0;" x1="838" x2="1105" y1="545.4688" y2="545.4688"/><text fill="#000000" font-family="sans-serif" font-size="13" lengthAdjust="spacingAndGlyphs" textLength="62" x="850" y="540.6123">reservation</text><polygon fill="#A80036" points="1242,571.8203,1252,575.8203,1242,579.8203,1246,575.8203" style="stroke: #A80036; stroke-width: 1.0;"/><line style="stroke: #A80036; stroke-width: 1.0;" x1="833" x2="1248" y1="575.8203" y2="575.8203"/><text fill="#000000" font-family="sans-serif" font-size="13" lengthAdjust="spacingAndGlyphs" textLength="43" x="840" y="570.9639">delete()</text><polygon fill="#A80036" points="444,602.1719,434,606.1719,444,610.1719,440,606.1719" style="stroke: #A80036; stroke-width: 1.0;"/><line style="stroke: #A80036; stroke-width: 1.0;" x1="438" x2="832" y1="606.1719" y2="606.1719"/><text fill="#000000" font-family="sans-serif" font-size="13" lengthAdjust="spacingAndGlyphs" textLength="211" x="450" y="601.3154">[GET] /reservation/list/&lt;idCustomer&gt;</text><line style="stroke: #000000; stroke-width: 1.0; stroke-dasharray: 2.0,2.0;" x1="13" x2="1355" y1="615.1719" y2="615.1719"/><polygon fill="#A80036" points="152,634.5234,162,638.5234,152,642.5234,156,638.5234" style="stroke: #A80036; stroke-width: 1.0;"/><line style="stroke: #A80036; stroke-width: 1.0;" x1="45.5" x2="158" y1="638.5234" y2="638.5234"/><text fill="#000000" font-family="sans-serif" font-size="13" lengthAdjust="spacingAndGlyphs" textLength="46" x="52.5" y="633.667">cancel()</text><polygon fill="#A80036" points="421,664.875,431,668.875,421,672.875,425,668.875" style="stroke: #A80036; stroke-width: 1.0;"/><line style="stroke: #A80036; stroke-width: 1.0;" x1="164" x2="427" y1="668.875" y2="668.875"/><text fill="#000000" font-family="sans-serif" font-size="13" lengthAdjust="spacingAndGlyphs" textLength="211" x="171" y="664.0186">[GET] /reservation/list/&lt;idCustomer&gt;</text><rect fill="#FFFFFF" filter="url(#fqt48wbd5r9fn)" height="42.7031" style="stroke: #000000; stroke-width: 2.0;" width="158" x="395.5" y="683.875"/><polygon fill="#EEEEEE" points="395.5,683.875,457.5,683.875,457.5,691.875,447.5,701.875,395.5,701.875,395.5,683.875" style="stroke: #000000; stroke-width: 2.0;"/><text fill="#000000" font-family="sans-serif" font-size="13" font-weight="bold" lengthAdjust="spacingAndGlyphs" textLength="17" x="408.5" y="699.3701">ref</text><text fill="#000000" font-family="sans-serif" font-size="13" lengthAdjust="spacingAndGlyphs" textLength="150" x="401.5" y="719.3701">SD_RESERVATION_LIST</text><!--
@startuml SD_RESERVATION_DELETE

title SD_RESERVATION_DELETE

skinparam shadowing TRUE
hide footbox

actor Admin as a
participant ": ReservationDeleteView" as V
participant ": Router" as R
participant ": ReservationController" as RC0
participant ": ReservationController" as RC1
participant "Reservation" as CR <<class>>
participant "Reservation : Reservation" as E1

-> R : [GET] /reservation/delete/<idReservation>

create RC0
R -> RC0 : delete(idReservation)



RC0 -> CR : getReservation(idReservation) : Reservation
CR - -> RC0 : reservation

create V
RC0 -> V : new(reservation)

alt 

a -> V : confirm()
V -> R : [POST] reservation/delete/<idReservation>
create RC1
R -> RC1 : delete(idReservation)

RC1 -> CR : getReservation(idReservation) : Reservation
create E1
CR -> E1 : new()
CR - -> RC1 : reservation
RC1 -> E1 : delete()
RC1 -> R : [GET] /reservation/list/<idCustomer>

else 

a -> V : cancel()
V -> R : [GET] /reservation/list/<idCustomer>

end 
ref over R : SD_RESERVATION_LIST 

@enduml

PlantUML version 1.2019.09(Mon Aug 26 18:19:51 CEST 2019)
(GPL source distribution)
Java Runtime: Java(TM) SE Runtime Environment
JVM: Java HotSpot(TM) 64-Bit Server VM
Java Version: 1.8.0_221-b11
Operating System: Windows 10
OS Version: 10.0
Default Encoding: Cp1252
Language: fr
Country: BE
--></g></svg>