<?xml version="1.0" encoding="UTF-8" standalone="no"?><svg xmlns="http://www.w3.org/2000/svg" xmlns:xlink="http://www.w3.org/1999/xlink" contentScriptType="application/ecmascript" contentStyleType="text/css" height="752px" preserveAspectRatio="none" style="width:883px;height:752px;" version="1.1" viewBox="0 0 883 752" width="883px" zoomAndPan="magnify"><defs><filter height="300%" id="fmzwsjh1yzjmq" width="300%" x="-1" y="-1"><feGaussianBlur result="blurOut" stdDeviation="2.0"/><feColorMatrix in="blurOut" result="blurOut2" type="matrix" values="0 0 0 0 0 0 0 0 0 0 0 0 0 0 0 0 0 0 .4 0"/><feOffset dx="4.0" dy="4.0" in="blurOut2" result="blurOut3"/><feBlend in="SourceGraphic" in2="blurOut3" mode="normal"/></filter></defs><g><text fill="#000000" font-family="sans-serif" font-size="14" font-weight="bold" lengthAdjust="spacingAndGlyphs" textLength="144" x="370.25" y="24.5332">SD_CUSTOMER_LIST</text><rect fill="#FEFECE" filter="url(#fmzwsjh1yzjmq)" height="31.6094" style="stroke: #A80036; stroke-width: 1.5;" width="141" x="571.5" y="159.5703"/><text fill="#000000" font-family="sans-serif" font-size="14" lengthAdjust="spacingAndGlyphs" textLength="127" x="578.5" y="181.1035">:CustomerController</text><rect fill="#FEFECE" filter="url(#fmzwsjh1yzjmq)" height="31.6094" style="stroke: #A80036; stroke-width: 1.5;" width="130" x="130.5" y="266.8828"/><text fill="#000000" font-family="sans-serif" font-size="14" lengthAdjust="spacingAndGlyphs" textLength="116" x="137.5" y="288.416">:CustomerListView</text><rect fill="#FFFFFF" filter="url(#fmzwsjh1yzjmq)" height="402.9219" style="stroke: #000000; stroke-width: 2.0;" width="462" x="13" y="320.4922"/><rect fill="#FFFFFF" height="110.4063" style="stroke: none; stroke-width: 1.0;" width="462" x="13" y="477.6016"/><rect fill="#FFFFFF" height="135.4063" style="stroke: none; stroke-width: 1.0;" width="462" x="13" y="588.0078"/><line style="stroke: #A80036; stroke-width: 1.0; stroke-dasharray: 5.0,5.0;" x1="45" x2="45" y1="119.2188" y2="740.4141"/><line style="stroke: #A80036; stroke-width: 1.0; stroke-dasharray: 5.0,5.0;" x1="197.5" x2="197.5" y1="300.1875" y2="740.4141"/><line style="stroke: #A80036; stroke-width: 1.0; stroke-dasharray: 5.0,5.0;" x1="428" x2="428" y1="119.2188" y2="740.4141"/><line style="stroke: #A80036; stroke-width: 1.0; stroke-dasharray: 5.0,5.0;" x1="643.5" x2="643.5" y1="192.875" y2="740.4141"/><line style="stroke: #A80036; stroke-width: 1.0; stroke-dasharray: 5.0,5.0;" x1="836.5" x2="836.5" y1="119.2188" y2="740.4141"/><text fill="#000000" font-family="sans-serif" font-size="14" lengthAdjust="spacingAndGlyphs" textLength="39" x="23" y="116.1426">Admin</text><ellipse cx="45.5" cy="44.6094" fill="#FEFECE" filter="url(#fmzwsjh1yzjmq)" rx="8" ry="8" style="stroke: #A80036; stroke-width: 2.0;"/><path d="M45.5,52.6094 L45.5,79.6094 M32.5,60.6094 L58.5,60.6094 M45.5,79.6094 L32.5,94.6094 M45.5,79.6094 L58.5,94.6094 " fill="none" filter="url(#fmzwsjh1yzjmq)" style="stroke: #A80036; stroke-width: 2.0;"/><rect fill="#FEFECE" filter="url(#fmzwsjh1yzjmq)" height="31.6094" style="stroke: #A80036; stroke-width: 1.5;" width="69" x="392" y="82.6094"/><text fill="#000000" font-family="sans-serif" font-size="14" lengthAdjust="spacingAndGlyphs" textLength="55" x="399" y="104.1426">:Routeur</text><rect fill="#FEFECE" filter="url(#fmzwsjh1yzjmq)" height="49.2188" style="stroke: #A80036; stroke-width: 1.5;" width="75" x="797.5" y="65"/><text fill="#000000" font-family="sans-serif" font-size="14" font-style="italic" lengthAdjust="spacingAndGlyphs" textLength="48" x="811" y="86">«class»</text><text fill="#000000" font-family="sans-serif" font-size="14" lengthAdjust="spacingAndGlyphs" textLength="61" x="804.5" y="103.6094">Customer</text><polygon fill="#A80036" points="416.5,147.5703,426.5,151.5703,416.5,155.5703,420.5,151.5703" style="stroke: #A80036; stroke-width: 1.0;"/><line style="stroke: #A80036; stroke-width: 1.0;" x1="3" x2="422.5" y1="151.5703" y2="151.5703"/><text fill="#000000" font-family="sans-serif" font-size="13" lengthAdjust="spacingAndGlyphs" textLength="165" x="10" y="146.7139">[GET]/customer/list/[&lt;filter&gt;]</text><polygon fill="#A80036" points="559.5,177.9219,569.5,181.9219,559.5,185.9219,563.5,181.9219" style="stroke: #A80036; stroke-width: 1.0;"/><line style="stroke: #A80036; stroke-width: 1.0;" x1="428.5" x2="565.5" y1="181.9219" y2="181.9219"/><text fill="#000000" font-family="sans-serif" font-size="13" lengthAdjust="spacingAndGlyphs" textLength="119" x="435.5" y="177.0654">list(filter : string = "")</text><rect fill="#FEFECE" filter="url(#fmzwsjh1yzjmq)" height="31.6094" style="stroke: #A80036; stroke-width: 1.5;" width="141" x="571.5" y="159.5703"/><text fill="#000000" font-family="sans-serif" font-size="14" lengthAdjust="spacingAndGlyphs" textLength="127" x="578.5" y="181.1035">:CustomerController</text><polygon fill="#A80036" points="825,224.5313,835,228.5313,825,232.5313,829,228.5313" style="stroke: #A80036; stroke-width: 1.0;"/><line style="stroke: #A80036; stroke-width: 1.0;" x1="644" x2="831" y1="228.5313" y2="228.5313"/><text fill="#000000" font-family="sans-serif" font-size="13" lengthAdjust="spacingAndGlyphs" textLength="169" x="651" y="223.6748">getFiltered(filter) : Customer[]</text><polygon fill="#A80036" points="655,254.8828,645,258.8828,655,262.8828,651,258.8828" style="stroke: #A80036; stroke-width: 1.0;"/><line style="stroke: #A80036; stroke-width: 1.0; stroke-dasharray: 2.0,2.0;" x1="649" x2="836" y1="258.8828" y2="258.8828"/><text fill="#000000" font-family="sans-serif" font-size="13" lengthAdjust="spacingAndGlyphs" textLength="61" x="661" y="254.0264">customers</text><polygon fill="#A80036" points="275.5,285.2344,265.5,289.2344,275.5,293.2344,271.5,289.2344" style="stroke: #A80036; stroke-width: 1.0;"/><line style="stroke: #A80036; stroke-width: 1.0;" x1="269.5" x2="643" y1="289.2344" y2="289.2344"/><text fill="#000000" font-family="sans-serif" font-size="13" lengthAdjust="spacingAndGlyphs" textLength="92" x="281.5" y="284.3779">new(customers)</text><rect fill="#FEFECE" filter="url(#fmzwsjh1yzjmq)" height="31.6094" style="stroke: #A80036; stroke-width: 1.5;" width="130" x="130.5" y="266.8828"/><text fill="#000000" font-family="sans-serif" font-size="14" lengthAdjust="spacingAndGlyphs" textLength="116" x="137.5" y="288.416">:CustomerListView</text><path d="M13,320.4922 L74,320.4922 L74,328.4922 L64,338.4922 L13,338.4922 L13,320.4922 " fill="#EEEEEE" style="stroke: #000000; stroke-width: 1.0;"/><rect fill="none" height="402.9219" style="stroke: #000000; stroke-width: 2.0;" width="462" x="13" y="320.4922"/><text fill="#000000" font-family="sans-serif" font-size="13" font-weight="bold" lengthAdjust="spacingAndGlyphs" textLength="16" x="28" y="334.9873">alt</text><polygon fill="#A80036" points="185.5,357.1953,195.5,361.1953,185.5,365.1953,189.5,361.1953" style="stroke: #A80036; stroke-width: 1.0;"/><line style="stroke: #A80036; stroke-width: 1.0;" x1="45.5" x2="191.5" y1="361.1953" y2="361.1953"/><text fill="#000000" font-family="sans-serif" font-size="13" lengthAdjust="spacingAndGlyphs" textLength="128" x="52.5" y="356.3389">setFilter(value : string)</text><polygon fill="#A80036" points="185.5,387.5469,195.5,391.5469,185.5,395.5469,189.5,391.5469" style="stroke: #A80036; stroke-width: 1.0;"/><line style="stroke: #A80036; stroke-width: 1.0;" x1="45.5" x2="191.5" y1="391.5469" y2="391.5469"/><text fill="#000000" font-family="sans-serif" font-size="13" lengthAdjust="spacingAndGlyphs" textLength="68" x="52.5" y="386.6904">applyFilter()</text><polygon fill="#A80036" points="416.5,417.8984,426.5,421.8984,416.5,425.8984,420.5,421.8984" style="stroke: #A80036; stroke-width: 1.0;"/><line style="stroke: #A80036; stroke-width: 1.0;" x1="197.5" x2="422.5" y1="421.8984" y2="421.8984"/><text fill="#000000" font-family="sans-serif" font-size="13" lengthAdjust="spacingAndGlyphs" textLength="157" x="204.5" y="417.042">[GET]/customer/list/&lt;filter&gt;</text><rect fill="#FFFFFF" filter="url(#fmzwsjh1yzjmq)" height="42.7031" style="stroke: #000000; stroke-width: 2.0;" width="139" x="389" y="429.8984"/><polygon fill="#EEEEEE" points="389,429.8984,451,429.8984,451,437.8984,441,447.8984,389,447.8984,389,429.8984" style="stroke: #000000; stroke-width: 2.0;"/><text fill="#000000" font-family="sans-serif" font-size="13" font-weight="bold" lengthAdjust="spacingAndGlyphs" textLength="17" x="402" y="445.3936">ref</text><text fill="#000000" font-family="sans-serif" font-size="13" lengthAdjust="spacingAndGlyphs" textLength="131" x="395" y="465.3936">SD_CUSTOMER_LIST</text><line style="stroke: #000000; stroke-width: 1.0; stroke-dasharray: 2.0,2.0;" x1="13" x2="475" y1="478.6016" y2="478.6016"/><polygon fill="#A80036" points="185.5,497.9531,195.5,501.9531,185.5,505.9531,189.5,501.9531" style="stroke: #A80036; stroke-width: 1.0;"/><line style="stroke: #A80036; stroke-width: 1.0;" x1="45.5" x2="191.5" y1="501.9531" y2="501.9531"/><text fill="#000000" font-family="sans-serif" font-size="13" lengthAdjust="spacingAndGlyphs" textLength="99" x="52.5" y="497.0967">read(idCustomer)</text><polygon fill="#A80036" points="416.5,528.3047,426.5,532.3047,416.5,536.3047,420.5,532.3047" style="stroke: #A80036; stroke-width: 1.0;"/><line style="stroke: #A80036; stroke-width: 1.0;" x1="197.5" x2="422.5" y1="532.3047" y2="532.3047"/><text fill="#000000" font-family="sans-serif" font-size="13" lengthAdjust="spacingAndGlyphs" textLength="207" x="204.5" y="527.4482">[GET]/customer/read/&lt;idCustomer&gt;</text><rect fill="#FFFFFF" filter="url(#fmzwsjh1yzjmq)" height="42.7031" style="stroke: #000000; stroke-width: 2.0;" width="149" x="389" y="540.3047"/><polygon fill="#EEEEEE" points="389,540.3047,451,540.3047,451,548.3047,441,558.3047,389,558.3047,389,540.3047" style="stroke: #000000; stroke-width: 2.0;"/><text fill="#000000" font-family="sans-serif" font-size="13" font-weight="bold" lengthAdjust="spacingAndGlyphs" textLength="17" x="402" y="555.7998">ref</text><text fill="#000000" font-family="sans-serif" font-size="13" lengthAdjust="spacingAndGlyphs" textLength="141" x="395" y="575.7998">SD_CUSTOMER_READ</text><line style="stroke: #000000; stroke-width: 1.0; stroke-dasharray: 2.0,2.0;" x1="13" x2="475" y1="589.0078" y2="589.0078"/><polygon fill="#A80036" points="185.5,608.3594,195.5,612.3594,185.5,616.3594,189.5,612.3594" style="stroke: #A80036; stroke-width: 1.0;"/><line style="stroke: #A80036; stroke-width: 1.0;" x1="45.5" x2="191.5" y1="612.3594" y2="612.3594"/><text fill="#000000" font-family="sans-serif" font-size="13" lengthAdjust="spacingAndGlyphs" textLength="44" x="52.5" y="607.5029">create()</text><polygon fill="#A80036" points="416.5,638.7109,426.5,642.7109,416.5,646.7109,420.5,642.7109" style="stroke: #A80036; stroke-width: 1.0;"/><line style="stroke: #A80036; stroke-width: 1.0;" x1="197.5" x2="422.5" y1="642.7109" y2="642.7109"/><text fill="#000000" font-family="sans-serif" font-size="13" lengthAdjust="spacingAndGlyphs" textLength="132" x="204.5" y="637.8545">[GET]/customer/create</text><rect fill="#FFFFFF" filter="url(#fmzwsjh1yzjmq)" height="42.7031" style="stroke: #000000; stroke-width: 2.0;" width="165" x="389" y="650.7109"/><polygon fill="#EEEEEE" points="389,650.7109,451,650.7109,451,658.7109,441,668.7109,389,668.7109,389,650.7109" style="stroke: #000000; stroke-width: 2.0;"/><text fill="#000000" font-family="sans-serif" font-size="13" font-weight="bold" lengthAdjust="spacingAndGlyphs" textLength="17" x="402" y="666.2061">ref</text><text fill="#000000" font-family="sans-serif" font-size="13" lengthAdjust="spacingAndGlyphs" textLength="157" x="395" y="686.2061">SD_CUSTOMER_CREATE</text><!--
@startuml SD_CUSTOMER_LIST
title SD_CUSTOMER_LIST
hide footbox
    Actor "Admin" as U
    Participant ":CustomerListView" as ML
    Participant ":Routeur" as R
    Participant ":CustomerController" as CC
    Participant "Customer" as M <<class>>

    -> R : [GET]/customer/list/[<filter>]
    create CC
    R -> CC : list(filter : string = "")
    CC -> M : getFiltered(filter) : Customer[]
    M - -> CC  : customers
    create ML
    CC -> ML : new(customers)
    alt 
    U -> ML : setFilter(value : string)
    U -> ML : applyFilter()
    ML -> R : [GET]/customer/list/<filter>
    ref over R : SD_CUSTOMER_LIST
    else
    U -> ML : read(idCustomer)
    ML -> R : [GET]/customer/read/<idCustomer>
    ref over R : SD_CUSTOMER_READ
    else
    U -> ML : create()
    ML -> R : [GET]/customer/create
    ref over R : SD_CUSTOMER_CREATE
    |||

    end
    
@enduml

PlantUML version 1.2019.09(Mon Aug 26 18:19:51 CEST 2019)
(GPL source distribution)
Java Runtime: Java(TM) SE Runtime Environment
JVM: Java HotSpot(TM) 64-Bit Server VM
Java Version: 1.8.0_221-b11
Operating System: Windows 10
OS Version: 10.0
Default Encoding: Cp1252
Language: fr
Country: FR
--></g></svg>