<?xml version="1.0" encoding="UTF-8" standalone="no"?><svg xmlns="http://www.w3.org/2000/svg" xmlns:xlink="http://www.w3.org/1999/xlink" contentScriptType="application/ecmascript" contentStyleType="text/css" height="525px" preserveAspectRatio="none" style="width:377px;height:525px;" version="1.1" viewBox="0 0 377 525" width="377px" zoomAndPan="magnify"><defs><filter height="300%" id="f8ge6ylmddzg9" width="300%" x="-1" y="-1"><feGaussianBlur result="blurOut" stdDeviation="2.0"/><feColorMatrix in="blurOut" result="blurOut2" type="matrix" values="0 0 0 0 0 0 0 0 0 0 0 0 0 0 0 0 0 0 .4 0"/><feOffset dx="4.0" dy="4.0" in="blurOut2" result="blurOut3"/><feBlend in="SourceGraphic" in2="blurOut3" mode="normal"/></filter></defs><g><text fill="#000000" font-family="sans-serif" font-size="14" font-weight="bold" lengthAdjust="spacingAndGlyphs" textLength="116" x="129.75" y="24.5332">SSD_SHOW_LIST</text><rect fill="#FFFFFF" filter="url(#f8ge6ylmddzg9)" height="286.8672" style="stroke: #000000; stroke-width: 2.0;" width="255.5" x="13" y="209.9219"/><rect fill="#FFFFFF" height="80.0547" style="stroke: none; stroke-width: 1.0;" width="255.5" x="13" y="336.6797"/><rect fill="#FFFFFF" height="80.0547" style="stroke: none; stroke-width: 1.0;" width="255.5" x="13" y="416.7344"/><line style="stroke: #A80036; stroke-width: 1.0; stroke-dasharray: 5.0,5.0;" x1="45" x2="45" y1="119.2188" y2="513.7891"/><line style="stroke: #A80036; stroke-width: 1.0; stroke-dasharray: 5.0,5.0;" x1="222.5" x2="222.5" y1="119.2188" y2="513.7891"/><text fill="#000000" font-family="sans-serif" font-size="14" lengthAdjust="spacingAndGlyphs" textLength="39" x="23" y="116.1426">Admin</text><ellipse cx="45.5" cy="44.6094" fill="#FEFECE" filter="url(#f8ge6ylmddzg9)" rx="8" ry="8" style="stroke: #A80036; stroke-width: 2.0;"/><path d="M45.5,52.6094 L45.5,79.6094 M32.5,60.6094 L58.5,60.6094 M45.5,79.6094 L32.5,94.6094 M45.5,79.6094 L58.5,94.6094 " fill="none" filter="url(#f8ge6ylmddzg9)" style="stroke: #A80036; stroke-width: 2.0;"/><rect fill="#FEFECE" filter="url(#f8ge6ylmddzg9)" height="31.6094" style="stroke: #A80036; stroke-width: 1.5;" width="68" x="186.5" y="82.6094"/><text fill="#000000" font-family="sans-serif" font-size="14" lengthAdjust="spacingAndGlyphs" textLength="54" x="193.5" y="104.1426">Systeme</text><line style="stroke: #A80036; stroke-width: 1.0;" x1="222.5" x2="264.5" y1="151.5703" y2="151.5703"/><line style="stroke: #A80036; stroke-width: 1.0;" x1="264.5" x2="264.5" y1="151.5703" y2="164.5703"/><line style="stroke: #A80036; stroke-width: 1.0;" x1="223.5" x2="264.5" y1="164.5703" y2="164.5703"/><polygon fill="#A80036" points="233.5,160.5703,223.5,164.5703,233.5,168.5703,229.5,164.5703" style="stroke: #A80036; stroke-width: 1.0;"/><text fill="#000000" font-family="sans-serif" font-size="13" lengthAdjust="spacingAndGlyphs" textLength="136" x="229.5" y="146.7139">get filtered list of shows</text><polygon fill="#A80036" points="56.5,190.9219,46.5,194.9219,56.5,198.9219,52.5,194.9219" style="stroke: #A80036; stroke-width: 1.0;"/><line style="stroke: #A80036; stroke-width: 1.0;" x1="50.5" x2="221.5" y1="194.9219" y2="194.9219"/><text fill="#000000" font-family="sans-serif" font-size="13" lengthAdjust="spacingAndGlyphs" textLength="117" x="62.5" y="190.0654">display shows found</text><path d="M13,209.9219 L74,209.9219 L74,217.9219 L64,227.9219 L13,227.9219 L13,209.9219 " fill="#EEEEEE" style="stroke: #000000; stroke-width: 1.0;"/><rect fill="none" height="286.8672" style="stroke: #000000; stroke-width: 2.0;" width="255.5" x="13" y="209.9219"/><text fill="#000000" font-family="sans-serif" font-size="13" font-weight="bold" lengthAdjust="spacingAndGlyphs" textLength="16" x="28" y="224.417">alt</text><polygon fill="#A80036" points="210.5,246.625,220.5,250.625,210.5,254.625,214.5,250.625" style="stroke: #A80036; stroke-width: 1.0;"/><line style="stroke: #A80036; stroke-width: 1.0;" x1="45.5" x2="216.5" y1="250.625" y2="250.625"/><text fill="#000000" font-family="sans-serif" font-size="13" lengthAdjust="spacingAndGlyphs" textLength="50" x="52.5" y="245.7686">give filter</text><polygon fill="#A80036" points="210.5,276.9766,220.5,280.9766,210.5,284.9766,214.5,280.9766" style="stroke: #A80036; stroke-width: 1.0;"/><line style="stroke: #A80036; stroke-width: 1.0;" x1="45.5" x2="216.5" y1="280.9766" y2="280.9766"/><text fill="#000000" font-family="sans-serif" font-size="13" lengthAdjust="spacingAndGlyphs" textLength="102" x="52.5" y="276.1201">click apply button</text><rect fill="#FFFFFF" filter="url(#f8ge6ylmddzg9)" height="42.7031" style="stroke: #000000; stroke-width: 2.0;" width="237.5" x="20" y="288.9766"/><polygon fill="#EEEEEE" points="20,288.9766,82,288.9766,82,296.9766,72,306.9766,20,306.9766,20,288.9766" style="stroke: #000000; stroke-width: 2.0;"/><text fill="#000000" font-family="sans-serif" font-size="13" font-weight="bold" lengthAdjust="spacingAndGlyphs" textLength="17" x="33" y="304.4717">ref</text><text fill="#000000" font-family="sans-serif" font-size="13" lengthAdjust="spacingAndGlyphs" textLength="108" x="86.75" y="324.4717">SSD_SHOW_LIST</text><line style="stroke: #000000; stroke-width: 1.0; stroke-dasharray: 2.0,2.0;" x1="13" x2="268.5" y1="337.6797" y2="337.6797"/><polygon fill="#A80036" points="210.5,357.0313,220.5,361.0313,210.5,365.0313,214.5,361.0313" style="stroke: #A80036; stroke-width: 1.0;"/><line style="stroke: #A80036; stroke-width: 1.0;" x1="45.5" x2="216.5" y1="361.0313" y2="361.0313"/><text fill="#000000" font-family="sans-serif" font-size="13" lengthAdjust="spacingAndGlyphs" textLength="96" x="52.5" y="356.1748">click read button</text><rect fill="#FFFFFF" filter="url(#f8ge6ylmddzg9)" height="42.7031" style="stroke: #000000; stroke-width: 2.0;" width="237.5" x="20" y="369.0313"/><polygon fill="#EEEEEE" points="20,369.0313,82,369.0313,82,377.0313,72,387.0313,20,387.0313,20,369.0313" style="stroke: #000000; stroke-width: 2.0;"/><text fill="#000000" font-family="sans-serif" font-size="13" font-weight="bold" lengthAdjust="spacingAndGlyphs" textLength="17" x="33" y="384.5264">ref</text><text fill="#000000" font-family="sans-serif" font-size="13" lengthAdjust="spacingAndGlyphs" textLength="118" x="81.75" y="404.5264">SSD_SHOW_READ</text><line style="stroke: #000000; stroke-width: 1.0; stroke-dasharray: 2.0,2.0;" x1="13" x2="268.5" y1="417.7344" y2="417.7344"/><polygon fill="#A80036" points="210.5,437.0859,220.5,441.0859,210.5,445.0859,214.5,441.0859" style="stroke: #A80036; stroke-width: 1.0;"/><line style="stroke: #A80036; stroke-width: 1.0;" x1="45.5" x2="216.5" y1="441.0859" y2="441.0859"/><text fill="#000000" font-family="sans-serif" font-size="13" lengthAdjust="spacingAndGlyphs" textLength="153" x="52.5" y="436.2295">click add new show button</text><rect fill="#FFFFFF" filter="url(#f8ge6ylmddzg9)" height="42.7031" style="stroke: #000000; stroke-width: 2.0;" width="237.5" x="20" y="449.0859"/><polygon fill="#EEEEEE" points="20,449.0859,82,449.0859,82,457.0859,72,467.0859,20,467.0859,20,449.0859" style="stroke: #000000; stroke-width: 2.0;"/><text fill="#000000" font-family="sans-serif" font-size="13" font-weight="bold" lengthAdjust="spacingAndGlyphs" textLength="17" x="33" y="464.5811">ref</text><text fill="#000000" font-family="sans-serif" font-size="13" lengthAdjust="spacingAndGlyphs" textLength="134" x="73.75" y="484.5811">SSD_SHOW_CREATE</text><!--
@startuml SSD_SHOW_LIST
title SSD_SHOW_LIST
hide footbox
Actor "Admin" as A
Participant "Systeme" as S
S -> S : get filtered list of shows
S -> A : display shows found
alt
    A -> S : give filter
    A -> S : click apply button
    ref over A,S : SSD_SHOW_LIST
else
    A -> S : click read button
    ref over A,S : SSD_SHOW_READ
else
    A-> S : click add new show button
    ref over A,S : SSD_SHOW_CREATE
end

@enduml

PlantUML version 1.2019.09(Mon Aug 26 18:19:51 CEST 2019)
(GPL source distribution)
Java Runtime: Java(TM) SE Runtime Environment
JVM: Java HotSpot(TM) 64-Bit Server VM
Java Version: 1.8.0_221-b11
Operating System: Windows 10
OS Version: 10.0
Default Encoding: Cp1252
Language: fr
Country: FR
--></g></svg>