<?xml version="1.0" encoding="UTF-8" standalone="no"?><svg xmlns="http://www.w3.org/2000/svg" xmlns:xlink="http://www.w3.org/1999/xlink" contentScriptType="application/ecmascript" contentStyleType="text/css" height="837px" preserveAspectRatio="none" style="width:1121px;height:837px;" version="1.1" viewBox="0 0 1121 837" width="1121px" zoomAndPan="magnify"><defs><filter height="300%" id="fa7s01ad7w0iq" width="300%" x="-1" y="-1"><feGaussianBlur result="blurOut" stdDeviation="2.0"/><feColorMatrix in="blurOut" result="blurOut2" type="matrix" values="0 0 0 0 0 0 0 0 0 0 0 0 0 0 0 0 0 0 .4 0"/><feOffset dx="4.0" dy="4.0" in="blurOut2" result="blurOut3"/><feBlend in="SourceGraphic" in2="blurOut3" mode="normal"/></filter></defs><g><text fill="#000000" font-family="sans-serif" font-size="14" font-weight="bold" lengthAdjust="spacingAndGlyphs" textLength="162" x="480.25" y="24.5332">SD_RESERVATION_LIST</text><rect fill="#FEFECE" filter="url(#fa7s01ad7w0iq)" height="31.6094" style="stroke: #A80036; stroke-width: 1.5;" width="156" x="721.5" y="159.5703"/><text fill="#000000" font-family="sans-serif" font-size="14" lengthAdjust="spacingAndGlyphs" textLength="142" x="728.5" y="181.1035">:ReservationController</text><rect fill="#FEFECE" filter="url(#fa7s01ad7w0iq)" height="31.6094" style="stroke: #A80036; stroke-width: 1.5;" width="145" x="133" y="266.8828"/><text fill="#000000" font-family="sans-serif" font-size="14" lengthAdjust="spacingAndGlyphs" textLength="131" x="140" y="288.416">:ReservationListView</text><rect fill="#FFFFFF" filter="url(#fa7s01ad7w0iq)" height="488.3281" style="stroke: #000000; stroke-width: 2.0;" width="516" x="13" y="320.4922"/><rect fill="#FFFFFF" height="110.4063" style="stroke: none; stroke-width: 1.0;" width="516" x="13" y="477.6016"/><rect fill="#FFFFFF" height="110.4063" style="stroke: none; stroke-width: 1.0;" width="516" x="13" y="588.0078"/><rect fill="#FFFFFF" height="110.4063" style="stroke: none; stroke-width: 1.0;" width="516" x="13" y="698.4141"/><line style="stroke: #A80036; stroke-width: 1.0; stroke-dasharray: 5.0,5.0;" x1="45" x2="45" y1="119.2188" y2="825.8203"/><line style="stroke: #A80036; stroke-width: 1.0; stroke-dasharray: 5.0,5.0;" x1="207" x2="207" y1="300.1875" y2="825.8203"/><line style="stroke: #A80036; stroke-width: 1.0; stroke-dasharray: 5.0,5.0;" x1="482" x2="482" y1="119.2188" y2="825.8203"/><line style="stroke: #A80036; stroke-width: 1.0; stroke-dasharray: 5.0,5.0;" x1="801.5" x2="801.5" y1="192.875" y2="825.8203"/><line style="stroke: #A80036; stroke-width: 1.0; stroke-dasharray: 5.0,5.0;" x1="1067.5" x2="1067.5" y1="119.2188" y2="825.8203"/><text fill="#000000" font-family="sans-serif" font-size="14" lengthAdjust="spacingAndGlyphs" textLength="39" x="23" y="116.1426">Admin</text><ellipse cx="45.5" cy="44.6094" fill="#FEFECE" filter="url(#fa7s01ad7w0iq)" rx="8" ry="8" style="stroke: #A80036; stroke-width: 2.0;"/><path d="M45.5,52.6094 L45.5,79.6094 M32.5,60.6094 L58.5,60.6094 M45.5,79.6094 L32.5,94.6094 M45.5,79.6094 L58.5,94.6094 " fill="none" filter="url(#fa7s01ad7w0iq)" style="stroke: #A80036; stroke-width: 2.0;"/><rect fill="#FEFECE" filter="url(#fa7s01ad7w0iq)" height="31.6094" style="stroke: #A80036; stroke-width: 1.5;" width="69" x="446" y="82.6094"/><text fill="#000000" font-family="sans-serif" font-size="14" lengthAdjust="spacingAndGlyphs" textLength="55" x="453" y="104.1426">:Routeur</text><rect fill="#FEFECE" filter="url(#fa7s01ad7w0iq)" height="49.2188" style="stroke: #A80036; stroke-width: 1.5;" width="90" x="1020.5" y="65"/><text fill="#000000" font-family="sans-serif" font-size="14" font-style="italic" lengthAdjust="spacingAndGlyphs" textLength="48" x="1041.5" y="86">«class»</text><text fill="#000000" font-family="sans-serif" font-size="14" lengthAdjust="spacingAndGlyphs" textLength="76" x="1027.5" y="103.6094">Reservation</text><polygon fill="#A80036" points="470.5,147.5703,480.5,151.5703,470.5,155.5703,474.5,151.5703" style="stroke: #A80036; stroke-width: 1.0;"/><line style="stroke: #A80036; stroke-width: 1.0;" x1="45.5" x2="476.5" y1="151.5703" y2="151.5703"/><text fill="#000000" font-family="sans-serif" font-size="13" lengthAdjust="spacingAndGlyphs" textLength="259" x="52.5" y="146.7139">[GET]/reservation/list/&lt;idCustomer&gt;/[&lt;filter&gt;]</text><polygon fill="#A80036" points="709.5,177.9219,719.5,181.9219,709.5,185.9219,713.5,181.9219" style="stroke: #A80036; stroke-width: 1.0;"/><line style="stroke: #A80036; stroke-width: 1.0;" x1="482.5" x2="715.5" y1="181.9219" y2="181.9219"/><text fill="#000000" font-family="sans-serif" font-size="13" lengthAdjust="spacingAndGlyphs" textLength="215" x="489.5" y="177.0654">list(filter, idCustomer : string = "", int)</text><rect fill="#FEFECE" filter="url(#fa7s01ad7w0iq)" height="31.6094" style="stroke: #A80036; stroke-width: 1.5;" width="156" x="721.5" y="159.5703"/><text fill="#000000" font-family="sans-serif" font-size="14" lengthAdjust="spacingAndGlyphs" textLength="142" x="728.5" y="181.1035">:ReservationController</text><polygon fill="#A80036" points="1055.5,224.5313,1065.5,228.5313,1055.5,232.5313,1059.5,228.5313" style="stroke: #A80036; stroke-width: 1.0;"/><line style="stroke: #A80036; stroke-width: 1.0;" x1="801.5" x2="1061.5" y1="228.5313" y2="228.5313"/><text fill="#000000" font-family="sans-serif" font-size="13" lengthAdjust="spacingAndGlyphs" textLength="242" x="808.5" y="223.6748">getFiltered(filter,idCustomer):Reservation[]</text><polygon fill="#A80036" points="812.5,254.8828,802.5,258.8828,812.5,262.8828,808.5,258.8828" style="stroke: #A80036; stroke-width: 1.0;"/><line style="stroke: #A80036; stroke-width: 1.0;" x1="806.5" x2="1066.5" y1="258.8828" y2="258.8828"/><text fill="#000000" font-family="sans-serif" font-size="13" lengthAdjust="spacingAndGlyphs" textLength="69" x="818.5" y="254.0264">reservations</text><polygon fill="#A80036" points="293,285.2344,283,289.2344,293,293.2344,289,289.2344" style="stroke: #A80036; stroke-width: 1.0;"/><line style="stroke: #A80036; stroke-width: 1.0;" x1="287" x2="800.5" y1="289.2344" y2="289.2344"/><text fill="#000000" font-family="sans-serif" font-size="13" lengthAdjust="spacingAndGlyphs" textLength="100" x="299" y="284.3779">new(reservations)</text><rect fill="#FEFECE" filter="url(#fa7s01ad7w0iq)" height="31.6094" style="stroke: #A80036; stroke-width: 1.5;" width="145" x="133" y="266.8828"/><text fill="#000000" font-family="sans-serif" font-size="14" lengthAdjust="spacingAndGlyphs" textLength="131" x="140" y="288.416">:ReservationListView</text><path d="M13,320.4922 L74,320.4922 L74,328.4922 L64,338.4922 L13,338.4922 L13,320.4922 " fill="#EEEEEE" style="stroke: #000000; stroke-width: 1.0;"/><rect fill="none" height="488.3281" style="stroke: #000000; stroke-width: 2.0;" width="516" x="13" y="320.4922"/><text fill="#000000" font-family="sans-serif" font-size="13" font-weight="bold" lengthAdjust="spacingAndGlyphs" textLength="16" x="28" y="334.9873">alt</text><polygon fill="#A80036" points="195.5,357.1953,205.5,361.1953,195.5,365.1953,199.5,361.1953" style="stroke: #A80036; stroke-width: 1.0;"/><line style="stroke: #A80036; stroke-width: 1.0;" x1="45.5" x2="201.5" y1="361.1953" y2="361.1953"/><text fill="#000000" font-family="sans-serif" font-size="13" lengthAdjust="spacingAndGlyphs" textLength="124" x="52.5" y="356.3389">setFilter(value: string)</text><polygon fill="#A80036" points="195.5,387.5469,205.5,391.5469,195.5,395.5469,199.5,391.5469" style="stroke: #A80036; stroke-width: 1.0;"/><line style="stroke: #A80036; stroke-width: 1.0;" x1="45.5" x2="201.5" y1="391.5469" y2="391.5469"/><text fill="#000000" font-family="sans-serif" font-size="13" lengthAdjust="spacingAndGlyphs" textLength="68" x="52.5" y="386.6904">applyFilter()</text><polygon fill="#A80036" points="470.5,417.8984,480.5,421.8984,470.5,425.8984,474.5,421.8984" style="stroke: #A80036; stroke-width: 1.0;"/><line style="stroke: #A80036; stroke-width: 1.0;" x1="207.5" x2="476.5" y1="421.8984" y2="421.8984"/><text fill="#000000" font-family="sans-serif" font-size="13" lengthAdjust="spacingAndGlyphs" textLength="251" x="214.5" y="417.042">[GET]/reservation/list/&lt;idCustomer&gt;/&lt;filter&gt;</text><rect fill="#FFFFFF" filter="url(#fa7s01ad7w0iq)" height="42.7031" style="stroke: #000000; stroke-width: 2.0;" width="158" x="443" y="429.8984"/><polygon fill="#EEEEEE" points="443,429.8984,505,429.8984,505,437.8984,495,447.8984,443,447.8984,443,429.8984" style="stroke: #000000; stroke-width: 2.0;"/><text fill="#000000" font-family="sans-serif" font-size="13" font-weight="bold" lengthAdjust="spacingAndGlyphs" textLength="17" x="456" y="445.3936">ref</text><text fill="#000000" font-family="sans-serif" font-size="13" lengthAdjust="spacingAndGlyphs" textLength="150" x="449" y="465.3936">SD_RESERVATION_LIST</text><line style="stroke: #000000; stroke-width: 1.0; stroke-dasharray: 2.0,2.0;" x1="13" x2="529" y1="478.6016" y2="478.6016"/><polygon fill="#A80036" points="195.5,497.9531,205.5,501.9531,195.5,505.9531,199.5,501.9531" style="stroke: #A80036; stroke-width: 1.0;"/><line style="stroke: #A80036; stroke-width: 1.0;" x1="45.5" x2="201.5" y1="501.9531" y2="501.9531"/><text fill="#000000" font-family="sans-serif" font-size="13" lengthAdjust="spacingAndGlyphs" textLength="138" x="52.5" y="497.0967">delete(idReservation:int)</text><polygon fill="#A80036" points="470.5,528.3047,480.5,532.3047,470.5,536.3047,474.5,532.3047" style="stroke: #A80036; stroke-width: 1.0;"/><line style="stroke: #A80036; stroke-width: 1.0;" x1="207.5" x2="476.5" y1="532.3047" y2="532.3047"/><text fill="#000000" font-family="sans-serif" font-size="13" lengthAdjust="spacingAndGlyphs" textLength="236" x="214.5" y="527.4482">[GET]/reservation/delete/&lt;idReservation&gt;</text><rect fill="#FFFFFF" filter="url(#fa7s01ad7w0iq)" height="42.7031" style="stroke: #000000; stroke-width: 2.0;" width="182" x="443" y="540.3047"/><polygon fill="#EEEEEE" points="443,540.3047,505,540.3047,505,548.3047,495,558.3047,443,558.3047,443,540.3047" style="stroke: #000000; stroke-width: 2.0;"/><text fill="#000000" font-family="sans-serif" font-size="13" font-weight="bold" lengthAdjust="spacingAndGlyphs" textLength="17" x="456" y="555.7998">ref</text><text fill="#000000" font-family="sans-serif" font-size="13" lengthAdjust="spacingAndGlyphs" textLength="174" x="449" y="575.7998">SD_RESERVATION_DELETE</text><line style="stroke: #000000; stroke-width: 1.0; stroke-dasharray: 2.0,2.0;" x1="13" x2="529" y1="589.0078" y2="589.0078"/><polygon fill="#A80036" points="195.5,608.3594,205.5,612.3594,195.5,616.3594,199.5,612.3594" style="stroke: #A80036; stroke-width: 1.0;"/><line style="stroke: #A80036; stroke-width: 1.0;" x1="45.5" x2="201.5" y1="612.3594" y2="612.3594"/><text fill="#000000" font-family="sans-serif" font-size="13" lengthAdjust="spacingAndGlyphs" textLength="44" x="52.5" y="607.5029">create()</text><polygon fill="#A80036" points="470.5,638.7109,480.5,642.7109,470.5,646.7109,474.5,642.7109" style="stroke: #A80036; stroke-width: 1.0;"/><line style="stroke: #A80036; stroke-width: 1.0;" x1="207.5" x2="476.5" y1="642.7109" y2="642.7109"/><text fill="#000000" font-family="sans-serif" font-size="13" lengthAdjust="spacingAndGlyphs" textLength="226" x="214.5" y="637.8545">[GET]/reservation/create/&lt;idCustomer&gt;</text><rect fill="#FFFFFF" filter="url(#fa7s01ad7w0iq)" height="42.7031" style="stroke: #000000; stroke-width: 2.0;" width="184" x="443" y="650.7109"/><polygon fill="#EEEEEE" points="443,650.7109,505,650.7109,505,658.7109,495,668.7109,443,668.7109,443,650.7109" style="stroke: #000000; stroke-width: 2.0;"/><text fill="#000000" font-family="sans-serif" font-size="13" font-weight="bold" lengthAdjust="spacingAndGlyphs" textLength="17" x="456" y="666.2061">ref</text><text fill="#000000" font-family="sans-serif" font-size="13" lengthAdjust="spacingAndGlyphs" textLength="176" x="449" y="686.2061">SD_RESERVATION_CREATE</text><line style="stroke: #000000; stroke-width: 1.0; stroke-dasharray: 2.0,2.0;" x1="13" x2="529" y1="699.4141" y2="699.4141"/><polygon fill="#A80036" points="195.5,718.7656,205.5,722.7656,195.5,726.7656,199.5,722.7656" style="stroke: #A80036; stroke-width: 1.0;"/><line style="stroke: #A80036; stroke-width: 1.0;" x1="45.5" x2="201.5" y1="722.7656" y2="722.7656"/><text fill="#000000" font-family="sans-serif" font-size="13" lengthAdjust="spacingAndGlyphs" textLength="36" x="52.5" y="717.9092">back()</text><polygon fill="#A80036" points="470.5,749.1172,480.5,753.1172,470.5,757.1172,474.5,753.1172" style="stroke: #A80036; stroke-width: 1.0;"/><line style="stroke: #A80036; stroke-width: 1.0;" x1="207.5" x2="476.5" y1="753.1172" y2="753.1172"/><text fill="#000000" font-family="sans-serif" font-size="13" lengthAdjust="spacingAndGlyphs" textLength="207" x="214.5" y="748.2607">[GET]/customer/read/&lt;idCustomer&gt;</text><rect fill="#FFFFFF" filter="url(#fa7s01ad7w0iq)" height="42.7031" style="stroke: #000000; stroke-width: 2.0;" width="149" x="443" y="761.1172"/><polygon fill="#EEEEEE" points="443,761.1172,505,761.1172,505,769.1172,495,779.1172,443,779.1172,443,761.1172" style="stroke: #000000; stroke-width: 2.0;"/><text fill="#000000" font-family="sans-serif" font-size="13" font-weight="bold" lengthAdjust="spacingAndGlyphs" textLength="17" x="456" y="776.6123">ref</text><text fill="#000000" font-family="sans-serif" font-size="13" lengthAdjust="spacingAndGlyphs" textLength="141" x="449" y="796.6123">SD_CUSTOMER_READ</text><!--
@startuml SD_RESERVATION_LIST

    title SD_RESERVATION_LIST
    hide footbox

    Actor "Admin" as A
    Participant ":ReservationListView" as RLV
    Participant ":Routeur" as R
    Participant ":ReservationController" as RC
    Participant "Reservation" as Res <<class>>  

    A->R : [GET]/reservation/list/<idCustomer>/[<filter>] 
    

    create RC
    R->RC :  list(filter, idCustomer : string = "", int)
    RC->Res : getFiltered(filter,idCustomer):Reservation[]
    Res->RC : reservations
    create RLV
    RC->RLV : new(reservations)

    alt  

        A->RLV : setFilter(value: string)
        A->RLV : applyFilter()
        RLV->R : [GET]/reservation/list/<idCustomer>/<filter>
        ref over R : SD_RESERVATION_LIST

    else

        A->RLV : delete(idReservation:int)
        RLV->R : [GET]/reservation/delete/<idReservation>
        ref over R : SD_RESERVATION_DELETE

    else 

        A->RLV : create()
        RLV->R : [GET]/reservation/create/<idCustomer>
        ref over R : SD_RESERVATION_CREATE
    else 
        A->RLV : back()
        RLV->R : [GET]/customer/read/<idCustomer>
        ref over R : SD_CUSTOMER_READ
    end

@enduml

PlantUML version 1.2019.09(Mon Aug 26 18:19:51 CEST 2019)
(GPL source distribution)
Java Runtime: Java(TM) SE Runtime Environment
JVM: Java HotSpot(TM) 64-Bit Server VM
Java Version: 1.8.0_221-b11
Operating System: Windows 10
OS Version: 10.0
Default Encoding: Cp1252
Language: fr
Country: BE
--></g></svg>