<?xml version="1.0" encoding="UTF-8" standalone="no"?><svg xmlns="http://www.w3.org/2000/svg" xmlns:xlink="http://www.w3.org/1999/xlink" contentScriptType="application/ecmascript" contentStyleType="text/css" height="776px" preserveAspectRatio="none" style="width:414px;height:776px;" version="1.1" viewBox="0 0 414 776" width="414px" zoomAndPan="magnify"><defs/><g><text fill="#000000" font-family="sans-serif" font-size="14" font-weight="bold" lengthAdjust="spacingAndGlyphs" textLength="142" x="136.5" y="24.5332">SSD_SHOW_CREATE</text><rect fill="#FFFFFF" height="372.0547" style="stroke: #000000; stroke-width: 2.0;" width="389" x="13" y="375.0313"/><rect fill="#FFFFFF" height="185.9453" style="stroke: #000000; stroke-width: 2.0;" width="369" x="23" y="474.0859"/><rect fill="#FFFFFF" height="76.5391" style="stroke: none; stroke-width: 1.0;" width="369" x="23" y="583.4922"/><rect fill="#FFFFFF" height="80.0547" style="stroke: none; stroke-width: 1.0;" width="389" x="13" y="667.0313"/><line style="stroke: #A80036; stroke-width: 1.0; stroke-dasharray: 5.0,5.0;" x1="57" x2="57" y1="115.2188" y2="764.0859"/><line style="stroke: #A80036; stroke-width: 1.0; stroke-dasharray: 5.0,5.0;" x1="274" x2="274" y1="115.2188" y2="764.0859"/><text fill="#000000" font-family="sans-serif" font-size="14" lengthAdjust="spacingAndGlyphs" textLength="42" x="33" y="112.1426">ADMIN</text><ellipse cx="57" cy="44.6094" fill="#FEFECE" rx="8" ry="8" style="stroke: #A80036; stroke-width: 2.0;"/><path d="M57,52.6094 L57,79.6094 M44,60.6094 L70,60.6094 M57,79.6094 L44,94.6094 M57,79.6094 L70,94.6094 " fill="none" style="stroke: #A80036; stroke-width: 2.0;"/><rect fill="#FEFECE" height="31.6094" style="stroke: #A80036; stroke-width: 1.5;" width="70" x="239" y="82.6094"/><text fill="#000000" font-family="sans-serif" font-size="14" lengthAdjust="spacingAndGlyphs" textLength="56" x="246" y="104.1426">SYSTEM</text><polygon fill="#A80036" points="68,143.5703,58,147.5703,68,151.5703,64,147.5703" style="stroke: #A80036; stroke-width: 1.0;"/><line style="stroke: #A80036; stroke-width: 1.0;" x1="62" x2="273" y1="147.5703" y2="147.5703"/><text fill="#000000" font-family="sans-serif" font-size="13" lengthAdjust="spacingAndGlyphs" textLength="193" x="74" y="142.7139">Display "Show create page" page</text><polygon fill="#A80036" points="262,173.9219,272,177.9219,262,181.9219,266,177.9219" style="stroke: #A80036; stroke-width: 1.0;"/><line style="stroke: #A80036; stroke-width: 1.0;" x1="57" x2="268" y1="177.9219" y2="177.9219"/><text fill="#000000" font-family="sans-serif" font-size="13" lengthAdjust="spacingAndGlyphs" textLength="50" x="64" y="173.0654">Give title</text><polygon fill="#A80036" points="262,204.2734,272,208.2734,262,212.2734,266,208.2734" style="stroke: #A80036; stroke-width: 1.0;"/><line style="stroke: #A80036; stroke-width: 1.0;" x1="57" x2="268" y1="208.2734" y2="208.2734"/><text fill="#000000" font-family="sans-serif" font-size="13" lengthAdjust="spacingAndGlyphs" textLength="92" x="64" y="203.417">Give description</text><polygon fill="#A80036" points="262,234.625,272,238.625,262,242.625,266,238.625" style="stroke: #A80036; stroke-width: 1.0;"/><line style="stroke: #A80036; stroke-width: 1.0;" x1="57" x2="268" y1="238.625" y2="238.625"/><text fill="#000000" font-family="sans-serif" font-size="13" lengthAdjust="spacingAndGlyphs" textLength="75" x="64" y="233.7686">Give duration</text><polygon fill="#A80036" points="262,264.9766,272,268.9766,262,272.9766,266,268.9766" style="stroke: #A80036; stroke-width: 1.0;"/><line style="stroke: #A80036; stroke-width: 1.0;" x1="57" x2="268" y1="268.9766" y2="268.9766"/><text fill="#000000" font-family="sans-serif" font-size="13" lengthAdjust="spacingAndGlyphs" textLength="83" x="64" y="264.1201">Give startTime</text><polygon fill="#A80036" points="262,295.3281,272,299.3281,262,303.3281,266,299.3281" style="stroke: #A80036; stroke-width: 1.0;"/><line style="stroke: #A80036; stroke-width: 1.0;" x1="57" x2="268" y1="299.3281" y2="299.3281"/><text fill="#000000" font-family="sans-serif" font-size="13" lengthAdjust="spacingAndGlyphs" textLength="99" x="64" y="294.4717">Give dateOfShow</text><polygon fill="#A80036" points="262,325.6797,272,329.6797,262,333.6797,266,329.6797" style="stroke: #A80036; stroke-width: 1.0;"/><line style="stroke: #A80036; stroke-width: 1.0;" x1="57" x2="268" y1="329.6797" y2="329.6797"/><text fill="#000000" font-family="sans-serif" font-size="13" lengthAdjust="spacingAndGlyphs" textLength="90" x="64" y="324.8232">Give performers</text><polygon fill="#A80036" points="262,356.0313,272,360.0313,262,364.0313,266,360.0313" style="stroke: #A80036; stroke-width: 1.0;"/><line style="stroke: #A80036; stroke-width: 1.0;" x1="57" x2="268" y1="360.0313" y2="360.0313"/><text fill="#000000" font-family="sans-serif" font-size="13" lengthAdjust="spacingAndGlyphs" textLength="68" x="64" y="355.1748">Give picture</text><path d="M13,375.0313 L74,375.0313 L74,383.0313 L64,393.0313 L13,393.0313 L13,375.0313 " fill="#EEEEEE" style="stroke: #000000; stroke-width: 1.0;"/><rect fill="none" height="372.0547" style="stroke: #000000; stroke-width: 2.0;" width="389" x="13" y="375.0313"/><text fill="#000000" font-family="sans-serif" font-size="13" font-weight="bold" lengthAdjust="spacingAndGlyphs" textLength="16" x="28" y="389.5264">alt</text><polygon fill="#A80036" points="262,411.7344,272,415.7344,262,419.7344,266,415.7344" style="stroke: #A80036; stroke-width: 1.0;"/><line style="stroke: #A80036; stroke-width: 1.0;" x1="57" x2="268" y1="415.7344" y2="415.7344"/><text fill="#000000" font-family="sans-serif" font-size="13" lengthAdjust="spacingAndGlyphs" textLength="109" x="64" y="410.8779">Click create button</text><line style="stroke: #A80036; stroke-width: 1.0;" x1="274" x2="316" y1="446.0859" y2="446.0859"/><line style="stroke: #A80036; stroke-width: 1.0;" x1="316" x2="316" y1="446.0859" y2="459.0859"/><line style="stroke: #A80036; stroke-width: 1.0;" x1="275" x2="316" y1="459.0859" y2="459.0859"/><polygon fill="#A80036" points="285,455.0859,275,459.0859,285,463.0859,281,459.0859" style="stroke: #A80036; stroke-width: 1.0;"/><text fill="#000000" font-family="sans-serif" font-size="13" lengthAdjust="spacingAndGlyphs" textLength="43" x="281" y="441.2295">validate</text><path d="M23,474.0859 L84,474.0859 L84,482.0859 L74,492.0859 L23,492.0859 L23,474.0859 " fill="#EEEEEE" style="stroke: #000000; stroke-width: 1.0;"/><rect fill="none" height="185.9453" style="stroke: #000000; stroke-width: 2.0;" width="369" x="23" y="474.0859"/><text fill="#000000" font-family="sans-serif" font-size="13" font-weight="bold" lengthAdjust="spacingAndGlyphs" textLength="16" x="38" y="488.5811">alt</text><text fill="#000000" font-family="sans-serif" font-size="11" font-weight="bold" lengthAdjust="spacingAndGlyphs" textLength="61" x="99" y="487.5049">[no errors]</text><line style="stroke: #A80036; stroke-width: 1.0;" x1="274" x2="316" y1="514.7891" y2="514.7891"/><line style="stroke: #A80036; stroke-width: 1.0;" x1="316" x2="316" y1="514.7891" y2="527.7891"/><line style="stroke: #A80036; stroke-width: 1.0;" x1="275" x2="316" y1="527.7891" y2="527.7891"/><polygon fill="#A80036" points="285,523.7891,275,527.7891,285,531.7891,281,527.7891" style="stroke: #A80036; stroke-width: 1.0;"/><text fill="#000000" font-family="sans-serif" font-size="13" lengthAdjust="spacingAndGlyphs" textLength="99" x="281" y="509.9326">Create new show</text><rect fill="#FFFFFF" height="42.7031" style="stroke: #000000; stroke-width: 2.0;" width="282" x="30" y="535.7891"/><polygon fill="#EEEEEE" points="30,535.7891,92,535.7891,92,543.7891,82,553.7891,30,553.7891,30,535.7891" style="stroke: #000000; stroke-width: 2.0;"/><text fill="#000000" font-family="sans-serif" font-size="13" font-weight="bold" lengthAdjust="spacingAndGlyphs" textLength="17" x="43" y="551.2842">ref</text><text fill="#000000" font-family="sans-serif" font-size="13" lengthAdjust="spacingAndGlyphs" textLength="108" x="117" y="571.2842">SSD_SHOW_LIST</text><line style="stroke: #000000; stroke-width: 1.0; stroke-dasharray: 2.0,2.0;" x1="23" x2="392" y1="584.4922" y2="584.4922"/><text fill="#000000" font-family="sans-serif" font-size="11" font-weight="bold" lengthAdjust="spacingAndGlyphs" textLength="32" x="28" y="595.9111">[else]</text><polygon fill="#A80036" points="68,617.6797,58,621.6797,68,625.6797,64,621.6797" style="stroke: #A80036; stroke-width: 1.0;"/><line style="stroke: #A80036; stroke-width: 1.0;" x1="62" x2="273" y1="621.6797" y2="621.6797"/><text fill="#000000" font-family="sans-serif" font-size="13" lengthAdjust="spacingAndGlyphs" textLength="77" x="74" y="616.8232">Show error(s)</text><polygon fill="#A80036" points="262,648.0313,272,652.0313,262,656.0313,266,652.0313" style="stroke: #A80036; stroke-width: 1.0;"/><line style="stroke: #A80036; stroke-width: 1.0;" x1="57" x2="268" y1="652.0313" y2="652.0313"/><text fill="#000000" font-family="sans-serif" font-size="13" lengthAdjust="spacingAndGlyphs" textLength="52" x="64" y="647.1748">*/ retry */</text><line style="stroke: #000000; stroke-width: 1.0; stroke-dasharray: 2.0,2.0;" x1="13" x2="402" y1="668.0313" y2="668.0313"/><polygon fill="#A80036" points="262,687.3828,272,691.3828,262,695.3828,266,691.3828" style="stroke: #A80036; stroke-width: 1.0;"/><line style="stroke: #A80036; stroke-width: 1.0;" x1="57" x2="268" y1="691.3828" y2="691.3828"/><text fill="#000000" font-family="sans-serif" font-size="13" lengthAdjust="spacingAndGlyphs" textLength="99" x="64" y="686.5264">click back button</text><rect fill="#FFFFFF" height="42.7031" style="stroke: #000000; stroke-width: 2.0;" width="282" x="30" y="699.3828"/><polygon fill="#EEEEEE" points="30,699.3828,92,699.3828,92,707.3828,82,717.3828,30,717.3828,30,699.3828" style="stroke: #000000; stroke-width: 2.0;"/><text fill="#000000" font-family="sans-serif" font-size="13" font-weight="bold" lengthAdjust="spacingAndGlyphs" textLength="17" x="43" y="714.8779">ref</text><text fill="#000000" font-family="sans-serif" font-size="13" lengthAdjust="spacingAndGlyphs" textLength="108" x="117" y="734.8779">SSD_SHOW_LIST</text><!--
@startuml SSD_SHOW_CREATE

    title SSD_SHOW_CREATE

    hide footbox
    skinparam shadowing false

    actor ADMIN as A
    participant SYSTEM as S

    S->A : Display "Show create page" page
    A->S : Give title
    A->S : Give description
    A->S : Give duration
    A->S : Give startTime
    A->S : Give dateOfShow
    A->S : Give performers
    A->S : Give picture
    alt
    A->S : Click create button
    S->S : validate

    alt no errors
        S->S : Create new show
           ref over A,S : SSD_SHOW_LIST
    else else
        S->A : Show error(s)
        A->S : */ retry */
    end 
    else 
        A -> S : click back button
           ref over A,S : SSD_SHOW_LIST
        end
        

@enduml

PlantUML version 1.2019.09(Mon Aug 26 18:19:51 CEST 2019)
(GPL source distribution)
Java Runtime: Java(TM) SE Runtime Environment
JVM: Java HotSpot(TM) 64-Bit Server VM
Java Version: 1.8.0_221-b11
Operating System: Windows 10
OS Version: 10.0
Default Encoding: Cp1252
Language: fr
Country: FR
--></g></svg>