<?xml version="1.0" encoding="UTF-8" standalone="no"?><svg xmlns="http://www.w3.org/2000/svg" xmlns:xlink="http://www.w3.org/1999/xlink" contentScriptType="application/ecmascript" contentStyleType="text/css" height="1141px" preserveAspectRatio="none" style="width:1313px;height:1141px;" version="1.1" viewBox="0 0 1313 1141" width="1313px" zoomAndPan="magnify"><defs/><g><text fill="#000000" font-family="sans-serif" font-size="14" font-weight="bold" lengthAdjust="spacingAndGlyphs" textLength="170" x="572" y="24.5332">SD_CUSTOMER_UPDATE</text><rect fill="#FEFECE" height="31.6094" style="stroke: #A80036; stroke-width: 1.5;" width="141" x="683.5" y="155.5703"/><text fill="#000000" font-family="sans-serif" font-size="14" lengthAdjust="spacingAndGlyphs" textLength="127" x="690.5" y="177.1035">:CustomerController</text><rect fill="#FEFECE" height="31.6094" style="stroke: #A80036; stroke-width: 1.5;" width="153" x="186" y="258.8828"/><text fill="#000000" font-family="sans-serif" font-size="14" lengthAdjust="spacingAndGlyphs" textLength="139" x="193" y="280.416">:CustomerUpdateView</text><rect fill="#FFFFFF" height="574.4219" style="stroke: #000000; stroke-width: 2.0;" width="1288" x="13" y="490.6016"/><rect fill="#FEFECE" height="31.6094" style="stroke: #A80036; stroke-width: 1.5;" width="141" x="834.5" y="569.6563"/><text fill="#000000" font-family="sans-serif" font-size="14" lengthAdjust="spacingAndGlyphs" textLength="127" x="841.5" y="591.1895">:CustomerController</text><rect fill="#FEFECE" height="31.6094" style="stroke: #A80036; stroke-width: 1.5;" width="137" x="1144" y="642.6172"/><text fill="#000000" font-family="sans-serif" font-size="14" lengthAdjust="spacingAndGlyphs" textLength="123" x="1151" y="664.1504">customer:Customer</text><rect fill="#FFFFFF" height="167.8516" style="stroke: #000000; stroke-width: 2.0;" width="1268" x="23" y="813.6328"/><rect fill="#FFFFFF" height="88.7969" style="stroke: none; stroke-width: 1.0;" width="1268" x="23" y="892.6875"/><rect fill="#FEFECE" height="31.6094" style="stroke: #A80036; stroke-width: 1.5;" width="153" x="349" y="908.5234"/><text fill="#000000" font-family="sans-serif" font-size="14" lengthAdjust="spacingAndGlyphs" textLength="139" x="356" y="930.0566">:CustomerUpdateView</text><rect fill="#FFFFFF" height="76.5391" style="stroke: none; stroke-width: 1.0;" width="1288" x="13" y="988.4844"/><line style="stroke: #A80036; stroke-width: 1.0; stroke-dasharray: 5.0,5.0;" x1="55" x2="55" y1="115.2188" y2="1129.7266"/><line style="stroke: #A80036; stroke-width: 1.0; stroke-dasharray: 5.0,5.0;" x1="262" x2="262" y1="290.1875" y2="1129.7266"/><line style="stroke: #A80036; stroke-width: 1.0; stroke-dasharray: 5.0,5.0;" x1="425" x2="425" y1="939.8281" y2="1129.7266"/><line style="stroke: #A80036; stroke-width: 1.0; stroke-dasharray: 5.0,5.0;" x1="546" x2="546" y1="115.2188" y2="1129.7266"/><line style="stroke: #A80036; stroke-width: 1.0; stroke-dasharray: 5.0,5.0;" x1="753.5" x2="753.5" y1="186.875" y2="1129.7266"/><line style="stroke: #A80036; stroke-width: 1.0; stroke-dasharray: 5.0,5.0;" x1="904.5" x2="904.5" y1="600.9609" y2="1129.7266"/><line style="stroke: #A80036; stroke-width: 1.0; stroke-dasharray: 5.0,5.0;" x1="1076.5" x2="1076.5" y1="115.2188" y2="1129.7266"/><line style="stroke: #A80036; stroke-width: 1.0; stroke-dasharray: 5.0,5.0;" x1="1212" x2="1212" y1="673.9219" y2="1129.7266"/><text fill="#000000" font-family="sans-serif" font-size="14" lengthAdjust="spacingAndGlyphs" textLength="39" x="33" y="112.1426">Admin</text><ellipse cx="55.5" cy="44.6094" fill="#FEFECE" rx="8" ry="8" style="stroke: #A80036; stroke-width: 2.0;"/><path d="M55.5,52.6094 L55.5,79.6094 M42.5,60.6094 L68.5,60.6094 M55.5,79.6094 L42.5,94.6094 M55.5,79.6094 L68.5,94.6094 " fill="none" style="stroke: #A80036; stroke-width: 2.0;"/><rect fill="#FEFECE" height="31.6094" style="stroke: #A80036; stroke-width: 1.5;" width="69" x="512" y="82.6094"/><text fill="#000000" font-family="sans-serif" font-size="14" lengthAdjust="spacingAndGlyphs" textLength="55" x="519" y="104.1426">:Routeur</text><rect fill="#FEFECE" height="49.2188" style="stroke: #A80036; stroke-width: 1.5;" width="75" x="1039.5" y="65"/><text fill="#000000" font-family="sans-serif" font-size="14" font-style="italic" lengthAdjust="spacingAndGlyphs" textLength="48" x="1053" y="86">«class»</text><text fill="#000000" font-family="sans-serif" font-size="14" lengthAdjust="spacingAndGlyphs" textLength="61" x="1046.5" y="103.6094">Customer</text><polygon fill="#A80036" points="534.5,143.5703,544.5,147.5703,534.5,151.5703,538.5,147.5703" style="stroke: #A80036; stroke-width: 1.0;"/><line style="stroke: #A80036; stroke-width: 1.0;" x1="55.5" x2="540.5" y1="147.5703" y2="147.5703"/><text fill="#000000" font-family="sans-serif" font-size="13" lengthAdjust="spacingAndGlyphs" textLength="221" x="62.5" y="142.7139">[GET]/customer/update/&lt;idCustomer&gt;</text><polygon fill="#A80036" points="671.5,173.9219,681.5,177.9219,671.5,181.9219,675.5,177.9219" style="stroke: #A80036; stroke-width: 1.0;"/><line style="stroke: #A80036; stroke-width: 1.0;" x1="546.5" x2="677.5" y1="177.9219" y2="177.9219"/><text fill="#000000" font-family="sans-serif" font-size="13" lengthAdjust="spacingAndGlyphs" textLength="113" x="553.5" y="173.0654">update(idCustomer)</text><rect fill="#FEFECE" height="31.6094" style="stroke: #A80036; stroke-width: 1.5;" width="141" x="683.5" y="155.5703"/><text fill="#000000" font-family="sans-serif" font-size="14" lengthAdjust="spacingAndGlyphs" textLength="127" x="690.5" y="177.1035">:CustomerController</text><polygon fill="#A80036" points="1065,216.5313,1075,220.5313,1065,224.5313,1069,220.5313" style="stroke: #A80036; stroke-width: 1.0;"/><line style="stroke: #A80036; stroke-width: 1.0;" x1="754" x2="1071" y1="220.5313" y2="220.5313"/><text fill="#000000" font-family="sans-serif" font-size="13" lengthAdjust="spacingAndGlyphs" textLength="216" x="761" y="215.6748">getCustomer(idCustomer) : Customer</text><polygon fill="#A80036" points="765,246.8828,755,250.8828,765,254.8828,761,250.8828" style="stroke: #A80036; stroke-width: 1.0;"/><line style="stroke: #A80036; stroke-width: 1.0; stroke-dasharray: 2.0,2.0;" x1="759" x2="1076" y1="250.8828" y2="250.8828"/><text fill="#000000" font-family="sans-serif" font-size="13" lengthAdjust="spacingAndGlyphs" textLength="54" x="771" y="246.0264">customer</text><polygon fill="#A80036" points="350,277.2344,340,281.2344,350,285.2344,346,281.2344" style="stroke: #A80036; stroke-width: 1.0;"/><line style="stroke: #A80036; stroke-width: 1.0;" x1="344" x2="753" y1="281.2344" y2="281.2344"/><text fill="#000000" font-family="sans-serif" font-size="13" lengthAdjust="spacingAndGlyphs" textLength="85" x="356" y="276.3779">new(customer)</text><rect fill="#FEFECE" height="31.6094" style="stroke: #A80036; stroke-width: 1.5;" width="153" x="186" y="258.8828"/><text fill="#000000" font-family="sans-serif" font-size="14" lengthAdjust="spacingAndGlyphs" textLength="139" x="193" y="280.416">:CustomerUpdateView</text><polygon fill="#A80036" points="250.5,319.8438,260.5,323.8438,250.5,327.8438,254.5,323.8438" style="stroke: #A80036; stroke-width: 1.0;"/><line style="stroke: #A80036; stroke-width: 1.0;" x1="55.5" x2="256.5" y1="323.8438" y2="323.8438"/><text fill="#000000" font-family="sans-serif" font-size="13" lengthAdjust="spacingAndGlyphs" textLength="183" x="62.5" y="318.9873">setFirstName(firstName: String)</text><polygon fill="#A80036" points="250.5,350.1953,260.5,354.1953,250.5,358.1953,254.5,354.1953" style="stroke: #A80036; stroke-width: 1.0;"/><line style="stroke: #A80036; stroke-width: 1.0;" x1="55.5" x2="256.5" y1="354.1953" y2="354.1953"/><text fill="#000000" font-family="sans-serif" font-size="13" lengthAdjust="spacingAndGlyphs" textLength="182" x="62.5" y="349.3389">setLastName(lastName: String)</text><polygon fill="#A80036" points="250.5,380.5469,260.5,384.5469,250.5,388.5469,254.5,384.5469" style="stroke: #A80036; stroke-width: 1.0;"/><line style="stroke: #A80036; stroke-width: 1.0;" x1="55.5" x2="256.5" y1="384.5469" y2="384.5469"/><text fill="#000000" font-family="sans-serif" font-size="13" lengthAdjust="spacingAndGlyphs" textLength="148" x="62.5" y="379.6904">setAdress(adress: String)</text><polygon fill="#A80036" points="250.5,410.8984,260.5,414.8984,250.5,418.8984,254.5,414.8984" style="stroke: #A80036; stroke-width: 1.0;"/><line style="stroke: #A80036; stroke-width: 1.0;" x1="55.5" x2="256.5" y1="414.8984" y2="414.8984"/><text fill="#000000" font-family="sans-serif" font-size="13" lengthAdjust="spacingAndGlyphs" textLength="172" x="62.5" y="410.042">setbirthDate(birthDate: String)</text><polygon fill="#A80036" points="250.5,441.25,260.5,445.25,250.5,449.25,254.5,445.25" style="stroke: #A80036; stroke-width: 1.0;"/><line style="stroke: #A80036; stroke-width: 1.0;" x1="55.5" x2="256.5" y1="445.25" y2="445.25"/><text fill="#000000" font-family="sans-serif" font-size="13" lengthAdjust="spacingAndGlyphs" textLength="112" x="62.5" y="440.3936">setCity(city: String)</text><polygon fill="#A80036" points="250.5,471.6016,260.5,475.6016,250.5,479.6016,254.5,475.6016" style="stroke: #A80036; stroke-width: 1.0;"/><line style="stroke: #A80036; stroke-width: 1.0;" x1="55.5" x2="256.5" y1="475.6016" y2="475.6016"/><text fill="#000000" font-family="sans-serif" font-size="13" lengthAdjust="spacingAndGlyphs" textLength="156" x="62.5" y="470.7451">setCountry(country: String)</text><path d="M13,490.6016 L74,490.6016 L74,498.6016 L64,508.6016 L13,508.6016 L13,490.6016 " fill="#EEEEEE" style="stroke: #000000; stroke-width: 1.0;"/><rect fill="none" height="574.4219" style="stroke: #000000; stroke-width: 2.0;" width="1288" x="13" y="490.6016"/><text fill="#000000" font-family="sans-serif" font-size="13" font-weight="bold" lengthAdjust="spacingAndGlyphs" textLength="16" x="28" y="505.0967">alt</text><polygon fill="#A80036" points="250.5,527.3047,260.5,531.3047,250.5,535.3047,254.5,531.3047" style="stroke: #A80036; stroke-width: 1.0;"/><line style="stroke: #A80036; stroke-width: 1.0;" x1="55.5" x2="256.5" y1="531.3047" y2="531.3047"/><text fill="#000000" font-family="sans-serif" font-size="13" lengthAdjust="spacingAndGlyphs" textLength="47" x="62.5" y="526.4482">update()</text><polygon fill="#A80036" points="534.5,557.6563,544.5,561.6563,534.5,565.6563,538.5,561.6563" style="stroke: #A80036; stroke-width: 1.0;"/><line style="stroke: #A80036; stroke-width: 1.0;" x1="262.5" x2="540.5" y1="561.6563" y2="561.6563"/><text fill="#000000" font-family="sans-serif" font-size="13" lengthAdjust="spacingAndGlyphs" textLength="250" x="269.5" y="556.7998">[POST]/customer/update/&lt;idCustomer&gt;{...}</text><polygon fill="#A80036" points="822.5,588.0078,832.5,592.0078,822.5,596.0078,826.5,592.0078" style="stroke: #A80036; stroke-width: 1.0;"/><line style="stroke: #A80036; stroke-width: 1.0;" x1="546.5" x2="828.5" y1="592.0078" y2="592.0078"/><text fill="#000000" font-family="sans-serif" font-size="13" lengthAdjust="spacingAndGlyphs" textLength="129" x="553.5" y="587.1514">update(idCustomer,...)</text><rect fill="#FEFECE" height="31.6094" style="stroke: #A80036; stroke-width: 1.5;" width="141" x="834.5" y="569.6563"/><text fill="#000000" font-family="sans-serif" font-size="14" lengthAdjust="spacingAndGlyphs" textLength="127" x="841.5" y="591.1895">:CustomerController</text><polygon fill="#A80036" points="1065,630.6172,1075,634.6172,1065,638.6172,1069,634.6172" style="stroke: #A80036; stroke-width: 1.0;"/><line style="stroke: #A80036; stroke-width: 1.0;" x1="905" x2="1071" y1="634.6172" y2="634.6172"/><text fill="#000000" font-family="sans-serif" font-size="13" lengthAdjust="spacingAndGlyphs" textLength="148" x="912" y="629.7607">getCustomer(idCustomer)</text><polygon fill="#A80036" points="1132,660.9688,1142,664.9688,1132,668.9688,1136,664.9688" style="stroke: #A80036; stroke-width: 1.0;"/><line style="stroke: #A80036; stroke-width: 1.0;" x1="1077" x2="1138" y1="664.9688" y2="664.9688"/><text fill="#000000" font-family="sans-serif" font-size="13" lengthAdjust="spacingAndGlyphs" textLength="43" x="1084" y="660.1123">new(...)</text><rect fill="#FEFECE" height="31.6094" style="stroke: #A80036; stroke-width: 1.5;" width="137" x="1144" y="642.6172"/><text fill="#000000" font-family="sans-serif" font-size="14" lengthAdjust="spacingAndGlyphs" textLength="123" x="1151" y="664.1504">customer:Customer</text><polygon fill="#A80036" points="916,703.5781,906,707.5781,916,711.5781,912,707.5781" style="stroke: #A80036; stroke-width: 1.0;"/><line style="stroke: #A80036; stroke-width: 1.0; stroke-dasharray: 2.0,2.0;" x1="910" x2="1076" y1="707.5781" y2="707.5781"/><text fill="#000000" font-family="sans-serif" font-size="13" lengthAdjust="spacingAndGlyphs" textLength="54" x="922" y="702.7217">customer</text><polygon fill="#A80036" points="1200.5,733.9297,1210.5,737.9297,1200.5,741.9297,1204.5,737.9297" style="stroke: #A80036; stroke-width: 1.0;"/><line style="stroke: #A80036; stroke-width: 1.0;" x1="905" x2="1206.5" y1="737.9297" y2="737.9297"/><text fill="#000000" font-family="sans-serif" font-size="13" lengthAdjust="spacingAndGlyphs" textLength="112" x="912" y="733.0732">set (idCustomer,...)</text><polygon fill="#A80036" points="1200.5,764.2813,1210.5,768.2813,1200.5,772.2813,1204.5,768.2813" style="stroke: #A80036; stroke-width: 1.0;"/><line style="stroke: #A80036; stroke-width: 1.0;" x1="905" x2="1206.5" y1="768.2813" y2="768.2813"/><text fill="#000000" font-family="sans-serif" font-size="13" lengthAdjust="spacingAndGlyphs" textLength="128" x="912" y="763.4248">validateData() : error []</text><polygon fill="#A80036" points="916,794.6328,906,798.6328,916,802.6328,912,798.6328" style="stroke: #A80036; stroke-width: 1.0;"/><line style="stroke: #A80036; stroke-width: 1.0; stroke-dasharray: 2.0,2.0;" x1="910" x2="1211.5" y1="798.6328" y2="798.6328"/><text fill="#000000" font-family="sans-serif" font-size="13" lengthAdjust="spacingAndGlyphs" textLength="33" x="922" y="793.7764">errors</text><path d="M23,813.6328 L84,813.6328 L84,821.6328 L74,831.6328 L23,831.6328 L23,813.6328 " fill="#EEEEEE" style="stroke: #000000; stroke-width: 1.0;"/><rect fill="none" height="167.8516" style="stroke: #000000; stroke-width: 2.0;" width="1268" x="23" y="813.6328"/><text fill="#000000" font-family="sans-serif" font-size="13" font-weight="bold" lengthAdjust="spacingAndGlyphs" textLength="16" x="38" y="828.1279">alt</text><text fill="#000000" font-family="sans-serif" font-size="11" font-weight="bold" lengthAdjust="spacingAndGlyphs" textLength="67" x="99" y="827.0518">[errors==[ ]]</text><polygon fill="#A80036" points="1200.5,850.3359,1210.5,854.3359,1200.5,858.3359,1204.5,854.3359" style="stroke: #A80036; stroke-width: 1.0;"/><line style="stroke: #A80036; stroke-width: 1.0;" x1="905" x2="1206.5" y1="854.3359" y2="854.3359"/><text fill="#000000" font-family="sans-serif" font-size="13" lengthAdjust="spacingAndGlyphs" textLength="34" x="912" y="849.4795">save()</text><polygon fill="#A80036" points="557.5,880.6875,547.5,884.6875,557.5,888.6875,553.5,884.6875" style="stroke: #A80036; stroke-width: 1.0;"/><line style="stroke: #A80036; stroke-width: 1.0;" x1="551.5" x2="904" y1="884.6875" y2="884.6875"/><text fill="#000000" font-family="sans-serif" font-size="13" lengthAdjust="spacingAndGlyphs" textLength="207" x="563.5" y="879.8311">[GET]/customer/read/&lt;idCustomer&gt;</text><line style="stroke: #000000; stroke-width: 1.0; stroke-dasharray: 2.0,2.0;" x1="23" x2="1291" y1="893.6875" y2="893.6875"/><text fill="#000000" font-family="sans-serif" font-size="11" font-weight="bold" lengthAdjust="spacingAndGlyphs" textLength="32" x="28" y="905.1064">[else]</text><polygon fill="#A80036" points="513,926.875,503,930.875,513,934.875,509,930.875" style="stroke: #A80036; stroke-width: 1.0;"/><line style="stroke: #A80036; stroke-width: 1.0;" x1="507" x2="904" y1="930.875" y2="930.875"/><text fill="#000000" font-family="sans-serif" font-size="13" lengthAdjust="spacingAndGlyphs" textLength="64" x="519" y="926.0186">new(errors)</text><rect fill="#FEFECE" height="31.6094" style="stroke: #A80036; stroke-width: 1.5;" width="153" x="349" y="908.5234"/><text fill="#000000" font-family="sans-serif" font-size="14" lengthAdjust="spacingAndGlyphs" textLength="139" x="356" y="930.0566">:CustomerUpdateView</text><polygon fill="#A80036" points="413.5,969.4844,423.5,973.4844,413.5,977.4844,417.5,973.4844" style="stroke: #A80036; stroke-width: 1.0;"/><line style="stroke: #A80036; stroke-width: 1.0;" x1="55.5" x2="419.5" y1="973.4844" y2="973.4844"/><text fill="#000000" font-family="sans-serif" font-size="13" lengthAdjust="spacingAndGlyphs" textLength="52" x="62.5" y="968.6279">:/*retry */</text><line style="stroke: #000000; stroke-width: 1.0; stroke-dasharray: 2.0,2.0;" x1="13" x2="1301" y1="989.4844" y2="989.4844"/><text fill="#000000" font-family="sans-serif" font-size="11" font-weight="bold" lengthAdjust="spacingAndGlyphs" textLength="43" x="18" y="1000.9033">[cancel]</text><polygon fill="#A80036" points="250.5,1022.6719,260.5,1026.6719,250.5,1030.6719,254.5,1026.6719" style="stroke: #A80036; stroke-width: 1.0;"/><line style="stroke: #A80036; stroke-width: 1.0;" x1="55.5" x2="256.5" y1="1026.6719" y2="1026.6719"/><text fill="#000000" font-family="sans-serif" font-size="13" lengthAdjust="spacingAndGlyphs" textLength="46" x="62.5" y="1021.8154">cancel()</text><polygon fill="#A80036" points="534.5,1053.0234,544.5,1057.0234,534.5,1061.0234,538.5,1057.0234" style="stroke: #A80036; stroke-width: 1.0;"/><line style="stroke: #A80036; stroke-width: 1.0;" x1="262.5" x2="540.5" y1="1057.0234" y2="1057.0234"/><text fill="#000000" font-family="sans-serif" font-size="13" lengthAdjust="spacingAndGlyphs" textLength="207" x="269.5" y="1052.167">[GET]/customer/read/&lt;idCustomer&gt;</text><rect fill="#FFFFFF" height="42.7031" style="stroke: #000000; stroke-width: 2.0;" width="149" x="509" y="1072.0234"/><polygon fill="#EEEEEE" points="509,1072.0234,571,1072.0234,571,1080.0234,561,1090.0234,509,1090.0234,509,1072.0234" style="stroke: #000000; stroke-width: 2.0;"/><text fill="#000000" font-family="sans-serif" font-size="13" font-weight="bold" lengthAdjust="spacingAndGlyphs" textLength="17" x="522" y="1087.5186">ref</text><text fill="#000000" font-family="sans-serif" font-size="13" lengthAdjust="spacingAndGlyphs" textLength="141" x="513" y="1107.5186">SD_CUSTOMER_READ</text><!--
@startuml SD_CUSTOMER_UPDATE

    title SD_CUSTOMER_UPDATE

    hide footbox
    skinparam shadowing false

    Actor "Admin" as A
    Participant ":CustomerUpdateView" as CUV
    Participant ":CustomerUpdateView" as CUV1
    Participant ":Routeur" as R
    Participant ":CustomerController" as CC
    Participant ":CustomerController" as CC1
    Participant "Customer" as ClC <<class>>
    Participant "customer:Customer" as C 

    A->R : [GET]/customer/update/<idCustomer>

    create CC
    R->CC : update(idCustomer)
    CC->ClC : getCustomer(idCustomer) : Customer
    ClC- ->CC : customer

    create CUV
    CC->CUV : new(customer)

    A->CUV : setFirstName(firstName: String)
    A->CUV : setLastName(lastName: String)
    A->CUV : setAdress(adress: String)
    A->CUV : setbirthDate(birthDate: String)
    A->CUV : setCity(city: String)
    A->CUV : setCountry(country: String)
    
    alt
        A->CUV : update()
    
        CUV->R : [POST]/customer/update/<idCustomer>{...}
        create CC1
        R->CC1 : update(idCustomer,...)
        CC1->ClC : getCustomer(idCustomer)
        create C
         ClC->C  :new(...) 
         ClC- ->CC1:customer
         CC1->C: set (idCustomer,...)
         CC1->C: validateData() : error []
         C- ->CC1:errors 
        alt errors==[ ]
            CC1->C : save()
            CC1->R : [GET]/customer/read/<idCustomer>

        else else
            create CUV1
                CC1->CUV1:new(errors)
            
                A->CUV1 : :/*retry */
        end


    else cancel

        A->CUV: cancel()
        CUV->R: [GET]/customer/read/<idCustomer>
        

    end
        ref over R : SD_CUSTOMER_READ


@enduml

PlantUML version 1.2019.09(Mon Aug 26 18:19:51 CEST 2019)
(GPL source distribution)
Java Runtime: Java(TM) SE Runtime Environment
JVM: Java HotSpot(TM) 64-Bit Server VM
Java Version: 1.8.0_221-b11
Operating System: Windows 10
OS Version: 10.0
Default Encoding: Cp1252
Language: fr
Country: BE
--></g></svg>