<?xml version="1.0" encoding="UTF-8" standalone="no"?><svg xmlns="http://www.w3.org/2000/svg" xmlns:xlink="http://www.w3.org/1999/xlink" contentScriptType="application/ecmascript" contentStyleType="text/css" height="448px" preserveAspectRatio="none" style="width:291px;height:448px;" version="1.1" viewBox="0 0 291 448" width="291px" zoomAndPan="magnify"><defs/><g><text fill="#000000" font-family="sans-serif" font-size="14" font-weight="bold" lengthAdjust="spacingAndGlyphs" textLength="125" x="83.75" y="24.5332">SSD_SHOW_READ</text><rect fill="#FFFFFF" height="256.5156" style="stroke: #000000; stroke-width: 2.0;" width="266.5" x="13" y="162.5703"/><rect fill="#FFFFFF" height="80.0547" style="stroke: none; stroke-width: 1.0;" width="266.5" x="13" y="258.9766"/><rect fill="#FFFFFF" height="80.0547" style="stroke: none; stroke-width: 1.0;" width="266.5" x="13" y="339.0313"/><line style="stroke: #A80036; stroke-width: 1.0; stroke-dasharray: 5.0,5.0;" x1="45" x2="45" y1="115.2188" y2="436.0859"/><line style="stroke: #A80036; stroke-width: 1.0; stroke-dasharray: 5.0,5.0;" x1="239.5" x2="239.5" y1="115.2188" y2="436.0859"/><text fill="#000000" font-family="sans-serif" font-size="14" lengthAdjust="spacingAndGlyphs" textLength="39" x="23" y="112.1426">Admin</text><ellipse cx="45.5" cy="44.6094" fill="#FEFECE" rx="8" ry="8" style="stroke: #A80036; stroke-width: 2.0;"/><path d="M45.5,52.6094 L45.5,79.6094 M32.5,60.6094 L58.5,60.6094 M45.5,79.6094 L32.5,94.6094 M45.5,79.6094 L58.5,94.6094 " fill="none" style="stroke: #A80036; stroke-width: 2.0;"/><rect fill="#FEFECE" height="31.6094" style="stroke: #A80036; stroke-width: 1.5;" width="60" x="209.5" y="82.6094"/><text fill="#000000" font-family="sans-serif" font-size="14" lengthAdjust="spacingAndGlyphs" textLength="46" x="216.5" y="104.1426">System</text><polygon fill="#A80036" points="56.5,143.5703,46.5,147.5703,56.5,151.5703,52.5,147.5703" style="stroke: #A80036; stroke-width: 1.0;"/><line style="stroke: #A80036; stroke-width: 1.0;" x1="50.5" x2="238.5" y1="147.5703" y2="147.5703"/><text fill="#000000" font-family="sans-serif" font-size="13" lengthAdjust="spacingAndGlyphs" textLength="91" x="62.5" y="142.7139">show read page</text><path d="M13,162.5703 L74,162.5703 L74,170.5703 L64,180.5703 L13,180.5703 L13,162.5703 " fill="#EEEEEE" style="stroke: #000000; stroke-width: 1.0;"/><rect fill="none" height="256.5156" style="stroke: #000000; stroke-width: 2.0;" width="266.5" x="13" y="162.5703"/><text fill="#000000" font-family="sans-serif" font-size="13" font-weight="bold" lengthAdjust="spacingAndGlyphs" textLength="16" x="28" y="177.0654">alt</text><polygon fill="#A80036" points="227.5,199.2734,237.5,203.2734,227.5,207.2734,231.5,203.2734" style="stroke: #A80036; stroke-width: 1.0;"/><line style="stroke: #A80036; stroke-width: 1.0;" x1="45.5" x2="233.5" y1="203.2734" y2="203.2734"/><text fill="#000000" font-family="sans-serif" font-size="13" lengthAdjust="spacingAndGlyphs" textLength="110" x="52.5" y="198.417">click  button delete</text><rect fill="#FFFFFF" height="42.7031" style="stroke: #000000; stroke-width: 2.0;" width="252.5" x="20" y="211.2734"/><polygon fill="#EEEEEE" points="20,211.2734,82,211.2734,82,219.2734,72,229.2734,20,229.2734,20,211.2734" style="stroke: #000000; stroke-width: 2.0;"/><text fill="#000000" font-family="sans-serif" font-size="13" font-weight="bold" lengthAdjust="spacingAndGlyphs" textLength="17" x="33" y="226.7686">ref</text><text fill="#000000" font-family="sans-serif" font-size="13" lengthAdjust="spacingAndGlyphs" textLength="132" x="80.25" y="246.7686">SSD_SHOW_DELETE</text><line style="stroke: #000000; stroke-width: 1.0; stroke-dasharray: 2.0,2.0;" x1="13" x2="279.5" y1="259.9766" y2="259.9766"/><polygon fill="#A80036" points="227.5,279.3281,237.5,283.3281,227.5,287.3281,231.5,283.3281" style="stroke: #A80036; stroke-width: 1.0;"/><line style="stroke: #A80036; stroke-width: 1.0;" x1="45.5" x2="233.5" y1="283.3281" y2="283.3281"/><text fill="#000000" font-family="sans-serif" font-size="13" lengthAdjust="spacingAndGlyphs" textLength="110" x="52.5" y="278.4717">click button update</text><rect fill="#FFFFFF" height="42.7031" style="stroke: #000000; stroke-width: 2.0;" width="252.5" x="20" y="291.3281"/><polygon fill="#EEEEEE" points="20,291.3281,82,291.3281,82,299.3281,72,309.3281,20,309.3281,20,291.3281" style="stroke: #000000; stroke-width: 2.0;"/><text fill="#000000" font-family="sans-serif" font-size="13" font-weight="bold" lengthAdjust="spacingAndGlyphs" textLength="17" x="33" y="306.8232">ref</text><text fill="#000000" font-family="sans-serif" font-size="13" lengthAdjust="spacingAndGlyphs" textLength="134" x="79.25" y="326.8232">SSD_SHOW_UPDATE</text><line style="stroke: #000000; stroke-width: 1.0; stroke-dasharray: 2.0,2.0;" x1="13" x2="279.5" y1="340.0313" y2="340.0313"/><polygon fill="#A80036" points="227.5,359.3828,237.5,363.3828,227.5,367.3828,231.5,363.3828" style="stroke: #A80036; stroke-width: 1.0;"/><line style="stroke: #A80036; stroke-width: 1.0;" x1="45.5" x2="233.5" y1="363.3828" y2="363.3828"/><text fill="#000000" font-family="sans-serif" font-size="13" lengthAdjust="spacingAndGlyphs" textLength="170" x="52.5" y="358.5264">click button performance_List</text><rect fill="#FFFFFF" height="42.7031" style="stroke: #000000; stroke-width: 2.0;" width="252.5" x="20" y="371.3828"/><polygon fill="#EEEEEE" points="20,371.3828,82,371.3828,82,379.3828,72,389.3828,20,389.3828,20,371.3828" style="stroke: #000000; stroke-width: 2.0;"/><text fill="#000000" font-family="sans-serif" font-size="13" font-weight="bold" lengthAdjust="spacingAndGlyphs" textLength="17" x="33" y="386.8779">ref</text><text fill="#000000" font-family="sans-serif" font-size="13" lengthAdjust="spacingAndGlyphs" textLength="168" x="62.25" y="406.8779">SSD_PERFORMANCE_LIST</text><!--
@startuml SSD_SHOW_READ

title SSD_SHOW_READ

skinparam shadowing false
hide footbox

actor Admin as a
participant System as S

S -> a :  show read page 

alt 

a -> S : click  button delete
ref over a,S : SSD_SHOW_DELETE

else 

a -> S : click button update
ref over a,S : SSD_SHOW_UPDATE

else
a -> S :click button performance_List
ref over a,S : SSD_PERFORMANCE_LIST

end


@enduml

PlantUML version 1.2019.09(Mon Aug 26 18:19:51 CEST 2019)
(GPL source distribution)
Java Runtime: Java(TM) SE Runtime Environment
JVM: Java HotSpot(TM) 64-Bit Server VM
Java Version: 1.8.0_221-b11
Operating System: Windows 10
OS Version: 10.0
Default Encoding: Cp1252
Language: fr
Country: BE
--></g></svg>