<?xml version="1.0" encoding="UTF-8" standalone="no"?><svg xmlns="http://www.w3.org/2000/svg" xmlns:xlink="http://www.w3.org/1999/xlink" contentScriptType="application/ecmascript" contentStyleType="text/css" height="796px" preserveAspectRatio="none" style="width:1330px;height:796px;" version="1.1" viewBox="0 0 1330 796" width="1330px" zoomAndPan="magnify"><defs><filter height="300%" id="f1vvays0edypni" width="300%" x="-1" y="-1"><feGaussianBlur result="blurOut" stdDeviation="2.0"/><feColorMatrix in="blurOut" result="blurOut2" type="matrix" values="0 0 0 0 0 0 0 0 0 0 0 0 0 0 0 0 0 0 .4 0"/><feOffset dx="4.0" dy="4.0" in="blurOut2" result="blurOut3"/><feBlend in="SourceGraphic" in2="blurOut3" mode="normal"/></filter></defs><g><text fill="#000000" font-family="sans-serif" font-size="14" font-weight="bold" lengthAdjust="spacingAndGlyphs" textLength="168" x="581.75" y="24.5332">SD_CUSTOMER_DELETE</text><rect fill="#FEFECE" filter="url(#f1vvays0edypni)" height="31.6094" style="stroke: #A80036; stroke-width: 1.5;" width="141" x="537.5" y="159.5703"/><text fill="#000000" font-family="sans-serif" font-size="14" lengthAdjust="spacingAndGlyphs" textLength="127" x="544.5" y="181.1035">:CustomerController</text><rect fill="#FEFECE" filter="url(#f1vvays0edypni)" height="31.6094" style="stroke: #A80036; stroke-width: 1.5;" width="149" x="78" y="266.8828"/><text fill="#000000" font-family="sans-serif" font-size="14" lengthAdjust="spacingAndGlyphs" textLength="135" x="85" y="288.416">:CustomerDeleteView</text><rect fill="#FFFFFF" filter="url(#f1vvays0edypni)" height="399.7344" style="stroke: #000000; stroke-width: 2.0;" width="1305.5" x="13" y="320.4922"/><rect fill="#FEFECE" filter="url(#f1vvays0edypni)" height="31.6094" style="stroke: #A80036; stroke-width: 1.5;" width="141" x="692.5" y="399.5469"/><text fill="#000000" font-family="sans-serif" font-size="14" lengthAdjust="spacingAndGlyphs" textLength="127" x="699.5" y="421.0801">:CustomerController</text><rect fill="#FEFECE" filter="url(#f1vvays0edypni)" height="31.6094" style="stroke: #A80036; stroke-width: 1.5;" width="145" x="1064" y="476.5078"/><text fill="#000000" font-family="sans-serif" font-size="14" lengthAdjust="spacingAndGlyphs" textLength="131" x="1071" y="498.041">customer : Customer</text><rect fill="#FFFFFF" height="62.7031" style="stroke: none; stroke-width: 1.0;" width="1305.5" x="13" y="657.5234"/><line style="stroke: #A80036; stroke-width: 1.0; stroke-dasharray: 5.0,5.0;" x1="45" x2="45" y1="119.2188" y2="784.9297"/><line style="stroke: #A80036; stroke-width: 1.0; stroke-dasharray: 5.0,5.0;" x1="154" x2="154" y1="300.1875" y2="784.9297"/><line style="stroke: #A80036; stroke-width: 1.0; stroke-dasharray: 5.0,5.0;" x1="404" x2="404" y1="119.2188" y2="784.9297"/><line style="stroke: #A80036; stroke-width: 1.0; stroke-dasharray: 5.0,5.0;" x1="609.5" x2="609.5" y1="192.875" y2="784.9297"/><line style="stroke: #A80036; stroke-width: 1.0; stroke-dasharray: 5.0,5.0;" x1="764.5" x2="764.5" y1="432.8516" y2="784.9297"/><line style="stroke: #A80036; stroke-width: 1.0; stroke-dasharray: 5.0,5.0;" x1="1004.5" x2="1004.5" y1="119.2188" y2="784.9297"/><line style="stroke: #A80036; stroke-width: 1.0; stroke-dasharray: 5.0,5.0;" x1="1138" x2="1138" y1="509.8125" y2="784.9297"/><text fill="#000000" font-family="sans-serif" font-size="14" lengthAdjust="spacingAndGlyphs" textLength="39" x="23" y="116.1426">Admin</text><ellipse cx="45.5" cy="44.6094" fill="#FEFECE" filter="url(#f1vvays0edypni)" rx="8" ry="8" style="stroke: #A80036; stroke-width: 2.0;"/><path d="M45.5,52.6094 L45.5,79.6094 M32.5,60.6094 L58.5,60.6094 M45.5,79.6094 L32.5,94.6094 M45.5,79.6094 L58.5,94.6094 " fill="none" filter="url(#f1vvays0edypni)" style="stroke: #A80036; stroke-width: 2.0;"/><rect fill="#FEFECE" filter="url(#f1vvays0edypni)" height="31.6094" style="stroke: #A80036; stroke-width: 1.5;" width="69" x="368" y="82.6094"/><text fill="#000000" font-family="sans-serif" font-size="14" lengthAdjust="spacingAndGlyphs" textLength="55" x="375" y="104.1426">:Routeur</text><rect fill="#FEFECE" filter="url(#f1vvays0edypni)" height="49.2188" style="stroke: #A80036; stroke-width: 1.5;" width="75" x="965.5" y="65"/><text fill="#000000" font-family="sans-serif" font-size="14" font-style="italic" lengthAdjust="spacingAndGlyphs" textLength="48" x="979" y="86">«class»</text><text fill="#000000" font-family="sans-serif" font-size="14" lengthAdjust="spacingAndGlyphs" textLength="61" x="972.5" y="103.6094">Customer</text><polygon fill="#A80036" points="392.5,147.5703,402.5,151.5703,392.5,155.5703,396.5,151.5703" style="stroke: #A80036; stroke-width: 1.0;"/><line style="stroke: #A80036; stroke-width: 1.0;" x1="3" x2="398.5" y1="151.5703" y2="151.5703"/><text fill="#000000" font-family="sans-serif" font-size="13" lengthAdjust="spacingAndGlyphs" textLength="217" x="10" y="146.7139">[GET]/customer/delete/&lt;idCustomer&gt;</text><polygon fill="#A80036" points="525.5,177.9219,535.5,181.9219,525.5,185.9219,529.5,181.9219" style="stroke: #A80036; stroke-width: 1.0;"/><line style="stroke: #A80036; stroke-width: 1.0;" x1="404.5" x2="531.5" y1="181.9219" y2="181.9219"/><text fill="#000000" font-family="sans-serif" font-size="13" lengthAdjust="spacingAndGlyphs" textLength="109" x="411.5" y="177.0654">delete(idCustomer)</text><rect fill="#FEFECE" filter="url(#f1vvays0edypni)" height="31.6094" style="stroke: #A80036; stroke-width: 1.5;" width="141" x="537.5" y="159.5703"/><text fill="#000000" font-family="sans-serif" font-size="14" lengthAdjust="spacingAndGlyphs" textLength="127" x="544.5" y="181.1035">:CustomerController</text><polygon fill="#A80036" points="993,224.5313,1003,228.5313,993,232.5313,997,228.5313" style="stroke: #A80036; stroke-width: 1.0;"/><line style="stroke: #A80036; stroke-width: 1.0;" x1="610" x2="999" y1="228.5313" y2="228.5313"/><text fill="#000000" font-family="sans-serif" font-size="13" lengthAdjust="spacingAndGlyphs" textLength="216" x="617" y="223.6748">getCustomer(idCustomer) : Customer</text><polygon fill="#A80036" points="621,254.8828,611,258.8828,621,262.8828,617,258.8828" style="stroke: #A80036; stroke-width: 1.0;"/><line style="stroke: #A80036; stroke-width: 1.0; stroke-dasharray: 2.0,2.0;" x1="615" x2="1004" y1="258.8828" y2="258.8828"/><text fill="#000000" font-family="sans-serif" font-size="13" lengthAdjust="spacingAndGlyphs" textLength="54" x="627" y="254.0264">customer</text><polygon fill="#A80036" points="242,285.2344,232,289.2344,242,293.2344,238,289.2344" style="stroke: #A80036; stroke-width: 1.0;"/><line style="stroke: #A80036; stroke-width: 1.0;" x1="236" x2="609" y1="289.2344" y2="289.2344"/><text fill="#000000" font-family="sans-serif" font-size="13" lengthAdjust="spacingAndGlyphs" textLength="89" x="248" y="284.3779">new (customer)</text><rect fill="#FEFECE" filter="url(#f1vvays0edypni)" height="31.6094" style="stroke: #A80036; stroke-width: 1.5;" width="149" x="78" y="266.8828"/><text fill="#000000" font-family="sans-serif" font-size="14" lengthAdjust="spacingAndGlyphs" textLength="135" x="85" y="288.416">:CustomerDeleteView</text><path d="M13,320.4922 L74,320.4922 L74,328.4922 L64,338.4922 L13,338.4922 L13,320.4922 " fill="#EEEEEE" style="stroke: #000000; stroke-width: 1.0;"/><rect fill="none" height="399.7344" style="stroke: #000000; stroke-width: 2.0;" width="1305.5" x="13" y="320.4922"/><text fill="#000000" font-family="sans-serif" font-size="13" font-weight="bold" lengthAdjust="spacingAndGlyphs" textLength="16" x="28" y="334.9873">alt</text><polygon fill="#A80036" points="142.5,357.1953,152.5,361.1953,142.5,365.1953,146.5,361.1953" style="stroke: #A80036; stroke-width: 1.0;"/><line style="stroke: #A80036; stroke-width: 1.0;" x1="45.5" x2="148.5" y1="361.1953" y2="361.1953"/><text fill="#000000" font-family="sans-serif" font-size="13" lengthAdjust="spacingAndGlyphs" textLength="50" x="52.5" y="356.3389">confirm()</text><polygon fill="#A80036" points="392.5,387.5469,402.5,391.5469,392.5,395.5469,396.5,391.5469" style="stroke: #A80036; stroke-width: 1.0;"/><line style="stroke: #A80036; stroke-width: 1.0;" x1="154.5" x2="398.5" y1="391.5469" y2="391.5469"/><text fill="#000000" font-family="sans-serif" font-size="13" lengthAdjust="spacingAndGlyphs" textLength="226" x="161.5" y="386.6904">[POST]/customer/delete/&lt;idCustomer&gt;</text><polygon fill="#A80036" points="680.5,417.8984,690.5,421.8984,680.5,425.8984,684.5,421.8984" style="stroke: #A80036; stroke-width: 1.0;"/><line style="stroke: #A80036; stroke-width: 1.0;" x1="404.5" x2="686.5" y1="421.8984" y2="421.8984"/><text fill="#000000" font-family="sans-serif" font-size="13" lengthAdjust="spacingAndGlyphs" textLength="109" x="411.5" y="417.042">delete(idCustomer)</text><rect fill="#FEFECE" filter="url(#f1vvays0edypni)" height="31.6094" style="stroke: #A80036; stroke-width: 1.5;" width="141" x="692.5" y="399.5469"/><text fill="#000000" font-family="sans-serif" font-size="14" lengthAdjust="spacingAndGlyphs" textLength="127" x="699.5" y="421.0801">:CustomerController</text><polygon fill="#A80036" points="993,464.5078,1003,468.5078,993,472.5078,997,468.5078" style="stroke: #A80036; stroke-width: 1.0;"/><line style="stroke: #A80036; stroke-width: 1.0;" x1="765" x2="999" y1="468.5078" y2="468.5078"/><text fill="#000000" font-family="sans-serif" font-size="13" lengthAdjust="spacingAndGlyphs" textLength="216" x="772" y="463.6514">getCustomer(idCustomer) : Customer</text><polygon fill="#A80036" points="1052,494.8594,1062,498.8594,1052,502.8594,1056,498.8594" style="stroke: #A80036; stroke-width: 1.0;"/><line style="stroke: #A80036; stroke-width: 1.0;" x1="1005" x2="1058" y1="498.8594" y2="498.8594"/><text fill="#000000" font-family="sans-serif" font-size="13" lengthAdjust="spacingAndGlyphs" textLength="35" x="1012" y="494.0029">new ()</text><rect fill="#FEFECE" filter="url(#f1vvays0edypni)" height="31.6094" style="stroke: #A80036; stroke-width: 1.5;" width="145" x="1064" y="476.5078"/><text fill="#000000" font-family="sans-serif" font-size="14" lengthAdjust="spacingAndGlyphs" textLength="131" x="1071" y="498.041">customer : Customer</text><polygon fill="#A80036" points="776,541.4688,766,545.4688,776,549.4688,772,545.4688" style="stroke: #A80036; stroke-width: 1.0;"/><line style="stroke: #A80036; stroke-width: 1.0; stroke-dasharray: 2.0,2.0;" x1="770" x2="1004" y1="545.4688" y2="545.4688"/><text fill="#000000" font-family="sans-serif" font-size="13" lengthAdjust="spacingAndGlyphs" textLength="54" x="782" y="540.6123">customer</text><polygon fill="#A80036" points="1126.5,571.8203,1136.5,575.8203,1126.5,579.8203,1130.5,575.8203" style="stroke: #A80036; stroke-width: 1.0;"/><line style="stroke: #A80036; stroke-width: 1.0;" x1="765" x2="1132.5" y1="575.8203" y2="575.8203"/><text fill="#000000" font-family="sans-serif" font-size="13" lengthAdjust="spacingAndGlyphs" textLength="43" x="772" y="570.9639">delete()</text><line style="stroke: #A80036; stroke-width: 1.0;" x1="1138.5" x2="1180.5" y1="606.1719" y2="606.1719"/><line style="stroke: #A80036; stroke-width: 1.0;" x1="1180.5" x2="1180.5" y1="606.1719" y2="619.1719"/><line style="stroke: #A80036; stroke-width: 1.0;" x1="1139.5" x2="1180.5" y1="619.1719" y2="619.1719"/><polygon fill="#A80036" points="1149.5,615.1719,1139.5,619.1719,1149.5,623.1719,1145.5,619.1719" style="stroke: #A80036; stroke-width: 1.0;"/><text fill="#000000" font-family="sans-serif" font-size="13" lengthAdjust="spacingAndGlyphs" textLength="161" x="1145.5" y="601.3154">deleteRelatedReservations()</text><polygon fill="#A80036" points="415.5,645.5234,405.5,649.5234,415.5,653.5234,411.5,649.5234" style="stroke: #A80036; stroke-width: 1.0;"/><line style="stroke: #A80036; stroke-width: 1.0;" x1="409.5" x2="764" y1="649.5234" y2="649.5234"/><text fill="#000000" font-family="sans-serif" font-size="13" lengthAdjust="spacingAndGlyphs" textLength="113" x="421.5" y="644.667">[GET]/customer/list</text><line style="stroke: #000000; stroke-width: 1.0; stroke-dasharray: 2.0,2.0;" x1="13" x2="1318.5" y1="658.5234" y2="658.5234"/><polygon fill="#A80036" points="142.5,677.875,152.5,681.875,142.5,685.875,146.5,681.875" style="stroke: #A80036; stroke-width: 1.0;"/><line style="stroke: #A80036; stroke-width: 1.0;" x1="45.5" x2="148.5" y1="681.875" y2="681.875"/><text fill="#000000" font-family="sans-serif" font-size="13" lengthAdjust="spacingAndGlyphs" textLength="46" x="52.5" y="677.0186">cancel()</text><polygon fill="#A80036" points="392.5,708.2266,402.5,712.2266,392.5,716.2266,396.5,712.2266" style="stroke: #A80036; stroke-width: 1.0;"/><line style="stroke: #A80036; stroke-width: 1.0;" x1="154.5" x2="398.5" y1="712.2266" y2="712.2266"/><text fill="#000000" font-family="sans-serif" font-size="13" lengthAdjust="spacingAndGlyphs" textLength="113" x="161.5" y="707.3701">[GET]/customer/list</text><rect fill="#FFFFFF" filter="url(#f1vvays0edypni)" height="42.7031" style="stroke: #000000; stroke-width: 2.0;" width="139" x="365" y="727.2266"/><polygon fill="#EEEEEE" points="365,727.2266,427,727.2266,427,735.2266,417,745.2266,365,745.2266,365,727.2266" style="stroke: #000000; stroke-width: 2.0;"/><text fill="#000000" font-family="sans-serif" font-size="13" font-weight="bold" lengthAdjust="spacingAndGlyphs" textLength="17" x="378" y="742.7217">ref</text><text fill="#000000" font-family="sans-serif" font-size="13" lengthAdjust="spacingAndGlyphs" textLength="131" x="371" y="762.7217">SD_CUSTOMER_LIST</text><!--
@startuml SD_CUSTOMER_DELETE
title SD_CUSTOMER_DELETE
hide footbox
Actor "Admin" as A
Participant ":CustomerDeleteView" as CD
Participant ":Routeur" as R
Participant ":CustomerController" as CC
Participant ":CustomerController" as CC2
Participant "Customer" as C <<class>>
Participant "customer : Customer" as c
-> R : [GET]/customer/delete/<idCustomer>
create CC
R -> CC : delete(idCustomer)
CC -> C : getCustomer(idCustomer) : Customer
C - -> CC : customer
create CD
CC -> CD : new (customer)
alt
A -> CD : confirm()
CD -> R : [POST]/customer/delete/<idCustomer>
create CC2
R -> CC2 : delete(idCustomer)
CC2 -> C : getCustomer(idCustomer) : Customer
create c 
C -> c : new ()
C - -> CC2 : customer
CC2 -> c : delete()
c -> c : deleteRelatedReservations()
CC2 -> R : [GET]/customer/list
else 
A -> CD : cancel()
CD  -> R : [GET]/customer/list
end
ref over R : SD_CUSTOMER_LIST

@enduml

PlantUML version 1.2019.09(Mon Aug 26 18:19:51 CEST 2019)
(GPL source distribution)
Java Runtime: Java(TM) SE Runtime Environment
JVM: Java HotSpot(TM) 64-Bit Server VM
Java Version: 1.8.0_221-b11
Operating System: Windows 10
OS Version: 10.0
Default Encoding: Cp1252
Language: fr
Country: FR
--></g></svg>