<?xml version="1.0" encoding="UTF-8" standalone="no"?><svg xmlns="http://www.w3.org/2000/svg" xmlns:xlink="http://www.w3.org/1999/xlink" contentScriptType="application/ecmascript" contentStyleType="text/css" height="807px" preserveAspectRatio="none" style="width:721px;height:807px;" version="1.1" viewBox="0 0 721 807" width="721px" zoomAndPan="magnify"><defs><filter height="300%" id="f1qdc359kfcq2" width="300%" x="-1" y="-1"><feGaussianBlur result="blurOut" stdDeviation="2.0"/><feColorMatrix in="blurOut" result="blurOut2" type="matrix" values="0 0 0 0 0 0 0 0 0 0 0 0 0 0 0 0 0 0 .4 0"/><feOffset dx="4.0" dy="4.0" in="blurOut2" result="blurOut3"/><feBlend in="SourceGraphic" in2="blurOut3" mode="normal"/></filter></defs><g><text fill="#000000" font-family="sans-serif" font-size="14" font-weight="bold" lengthAdjust="spacingAndGlyphs" textLength="116" x="303.25" y="24.5332">SD_SHOW_READ</text><rect fill="#FEFECE" filter="url(#f1qdc359kfcq2)" height="31.6094" style="stroke: #A80036; stroke-width: 1.5;" width="118" x="452.5" y="159.5703"/><text fill="#000000" font-family="sans-serif" font-size="14" lengthAdjust="spacingAndGlyphs" textLength="104" x="459.5" y="181.1035">: ShowController</text><rect fill="#FEFECE" filter="url(#f1qdc359kfcq2)" height="31.6094" style="stroke: #A80036; stroke-width: 1.5;" width="119" x="78" y="266.8828"/><text fill="#000000" font-family="sans-serif" font-size="14" lengthAdjust="spacingAndGlyphs" textLength="105" x="85" y="288.416">: ShowReadView</text><rect fill="#FFFFFF" filter="url(#f1qdc359kfcq2)" height="457.9766" style="stroke: #000000; stroke-width: 2.0;" width="387" x="13" y="320.4922"/><rect fill="#FFFFFF" height="110.4063" style="stroke: none; stroke-width: 1.0;" width="387" x="13" y="447.25"/><rect fill="#FFFFFF" height="110.4063" style="stroke: none; stroke-width: 1.0;" width="387" x="13" y="557.6563"/><rect fill="#FFFFFF" height="110.4063" style="stroke: none; stroke-width: 1.0;" width="387" x="13" y="668.0625"/><line style="stroke: #A80036; stroke-width: 1.0; stroke-dasharray: 5.0,5.0;" x1="45" x2="45" y1="119.2188" y2="795.4688"/><line style="stroke: #A80036; stroke-width: 1.0; stroke-dasharray: 5.0,5.0;" x1="139" x2="139" y1="300.1875" y2="795.4688"/><line style="stroke: #A80036; stroke-width: 1.0; stroke-dasharray: 5.0,5.0;" x1="355" x2="355" y1="119.2188" y2="795.4688"/><line style="stroke: #A80036; stroke-width: 1.0; stroke-dasharray: 5.0,5.0;" x1="513.5" x2="513.5" y1="192.875" y2="795.4688"/><line style="stroke: #A80036; stroke-width: 1.0; stroke-dasharray: 5.0,5.0;" x1="681.5" x2="681.5" y1="119.2188" y2="795.4688"/><text fill="#000000" font-family="sans-serif" font-size="14" lengthAdjust="spacingAndGlyphs" textLength="39" x="23" y="116.1426">Admin</text><ellipse cx="45.5" cy="44.6094" fill="#FEFECE" filter="url(#f1qdc359kfcq2)" rx="8" ry="8" style="stroke: #A80036; stroke-width: 2.0;"/><path d="M45.5,52.6094 L45.5,79.6094 M32.5,60.6094 L58.5,60.6094 M45.5,79.6094 L32.5,94.6094 M45.5,79.6094 L58.5,94.6094 " fill="none" filter="url(#f1qdc359kfcq2)" style="stroke: #A80036; stroke-width: 2.0;"/><rect fill="#FEFECE" filter="url(#f1qdc359kfcq2)" height="31.6094" style="stroke: #A80036; stroke-width: 1.5;" width="65" x="321" y="82.6094"/><text fill="#000000" font-family="sans-serif" font-size="14" lengthAdjust="spacingAndGlyphs" textLength="51" x="328" y="104.1426">: Router</text><rect fill="#FEFECE" filter="url(#f1qdc359kfcq2)" height="49.2188" style="stroke: #A80036; stroke-width: 1.5;" width="62" x="648.5" y="65"/><text fill="#000000" font-family="sans-serif" font-size="14" font-style="italic" lengthAdjust="spacingAndGlyphs" textLength="48" x="655.5" y="86">«class»</text><text fill="#000000" font-family="sans-serif" font-size="14" lengthAdjust="spacingAndGlyphs" textLength="34" x="662.5" y="103.6094">Show</text><polygon fill="#A80036" points="343.5,147.5703,353.5,151.5703,343.5,155.5703,347.5,151.5703" style="stroke: #A80036; stroke-width: 1.0;"/><line style="stroke: #A80036; stroke-width: 1.0;" x1="3" x2="349.5" y1="151.5703" y2="151.5703"/><text fill="#000000" font-family="sans-serif" font-size="13" lengthAdjust="spacingAndGlyphs" textLength="161" x="10" y="146.7139">[GET] /show/read/&lt;idshow&gt;</text><polygon fill="#A80036" points="440.5,177.9219,450.5,181.9219,440.5,185.9219,444.5,181.9219" style="stroke: #A80036; stroke-width: 1.0;"/><line style="stroke: #A80036; stroke-width: 1.0;" x1="355.5" x2="446.5" y1="181.9219" y2="181.9219"/><text fill="#000000" font-family="sans-serif" font-size="13" lengthAdjust="spacingAndGlyphs" textLength="73" x="362.5" y="177.0654">read(idshow)</text><rect fill="#FEFECE" filter="url(#f1qdc359kfcq2)" height="31.6094" style="stroke: #A80036; stroke-width: 1.5;" width="118" x="452.5" y="159.5703"/><text fill="#000000" font-family="sans-serif" font-size="14" lengthAdjust="spacingAndGlyphs" textLength="104" x="459.5" y="181.1035">: ShowController</text><polygon fill="#A80036" points="669.5,224.5313,679.5,228.5313,669.5,232.5313,673.5,228.5313" style="stroke: #A80036; stroke-width: 1.0;"/><line style="stroke: #A80036; stroke-width: 1.0;" x1="513.5" x2="675.5" y1="228.5313" y2="228.5313"/><text fill="#000000" font-family="sans-serif" font-size="13" lengthAdjust="spacingAndGlyphs" textLength="144" x="520.5" y="223.6748">getShow(idShow) : Show</text><polygon fill="#A80036" points="524.5,254.8828,514.5,258.8828,524.5,262.8828,520.5,258.8828" style="stroke: #A80036; stroke-width: 1.0;"/><line style="stroke: #A80036; stroke-width: 1.0; stroke-dasharray: 2.0,2.0;" x1="518.5" x2="680.5" y1="258.8828" y2="258.8828"/><text fill="#000000" font-family="sans-serif" font-size="13" lengthAdjust="spacingAndGlyphs" textLength="30" x="530.5" y="254.0264">show</text><polygon fill="#A80036" points="212,285.2344,202,289.2344,212,293.2344,208,289.2344" style="stroke: #A80036; stroke-width: 1.0;"/><line style="stroke: #A80036; stroke-width: 1.0;" x1="206" x2="512.5" y1="289.2344" y2="289.2344"/><text fill="#000000" font-family="sans-serif" font-size="13" lengthAdjust="spacingAndGlyphs" textLength="61" x="218" y="284.3779">new(show)</text><rect fill="#FEFECE" filter="url(#f1qdc359kfcq2)" height="31.6094" style="stroke: #A80036; stroke-width: 1.5;" width="119" x="78" y="266.8828"/><text fill="#000000" font-family="sans-serif" font-size="14" lengthAdjust="spacingAndGlyphs" textLength="105" x="85" y="288.416">: ShowReadView</text><path d="M13,320.4922 L74,320.4922 L74,328.4922 L64,338.4922 L13,338.4922 L13,320.4922 " fill="#EEEEEE" style="stroke: #000000; stroke-width: 1.0;"/><rect fill="none" height="457.9766" style="stroke: #000000; stroke-width: 2.0;" width="387" x="13" y="320.4922"/><text fill="#000000" font-family="sans-serif" font-size="13" font-weight="bold" lengthAdjust="spacingAndGlyphs" textLength="16" x="28" y="334.9873">alt</text><polygon fill="#A80036" points="127.5,357.1953,137.5,361.1953,127.5,365.1953,131.5,361.1953" style="stroke: #A80036; stroke-width: 1.0;"/><line style="stroke: #A80036; stroke-width: 1.0;" x1="45.5" x2="133.5" y1="361.1953" y2="361.1953"/><text fill="#000000" font-family="sans-serif" font-size="13" lengthAdjust="spacingAndGlyphs" textLength="43" x="52.5" y="356.3389">delete()</text><polygon fill="#A80036" points="343.5,387.5469,353.5,391.5469,343.5,395.5469,347.5,391.5469" style="stroke: #A80036; stroke-width: 1.0;"/><line style="stroke: #A80036; stroke-width: 1.0;" x1="139.5" x2="349.5" y1="391.5469" y2="391.5469"/><text fill="#000000" font-family="sans-serif" font-size="13" lengthAdjust="spacingAndGlyphs" textLength="167" x="146.5" y="386.6904">[GET]/show/delete/&lt;idshow&gt;</text><rect fill="#FFFFFF" filter="url(#f1qdc359kfcq2)" height="42.7031" style="stroke: #000000; stroke-width: 2.0;" width="131" x="318" y="399.5469"/><polygon fill="#EEEEEE" points="318,399.5469,380,399.5469,380,407.5469,370,417.5469,318,417.5469,318,399.5469" style="stroke: #000000; stroke-width: 2.0;"/><text fill="#000000" font-family="sans-serif" font-size="13" font-weight="bold" lengthAdjust="spacingAndGlyphs" textLength="17" x="331" y="415.042">ref</text><text fill="#000000" font-family="sans-serif" font-size="13" lengthAdjust="spacingAndGlyphs" textLength="123" x="324" y="435.042">SD_SHOW_DELETE</text><line style="stroke: #000000; stroke-width: 1.0; stroke-dasharray: 2.0,2.0;" x1="13" x2="400" y1="448.25" y2="448.25"/><polygon fill="#A80036" points="127.5,467.6016,137.5,471.6016,127.5,475.6016,131.5,471.6016" style="stroke: #A80036; stroke-width: 1.0;"/><line style="stroke: #A80036; stroke-width: 1.0;" x1="45.5" x2="133.5" y1="471.6016" y2="471.6016"/><text fill="#000000" font-family="sans-serif" font-size="13" lengthAdjust="spacingAndGlyphs" textLength="47" x="52.5" y="466.7451">update()</text><polygon fill="#A80036" points="343.5,497.9531,353.5,501.9531,343.5,505.9531,347.5,501.9531" style="stroke: #A80036; stroke-width: 1.0;"/><line style="stroke: #A80036; stroke-width: 1.0;" x1="139.5" x2="349.5" y1="501.9531" y2="501.9531"/><text fill="#000000" font-family="sans-serif" font-size="13" lengthAdjust="spacingAndGlyphs" textLength="171" x="146.5" y="497.0967">[GET]/show/update/&lt;idshow&gt;</text><rect fill="#FFFFFF" filter="url(#f1qdc359kfcq2)" height="42.7031" style="stroke: #000000; stroke-width: 2.0;" width="133" x="318" y="509.9531"/><polygon fill="#EEEEEE" points="318,509.9531,380,509.9531,380,517.9531,370,527.9531,318,527.9531,318,509.9531" style="stroke: #000000; stroke-width: 2.0;"/><text fill="#000000" font-family="sans-serif" font-size="13" font-weight="bold" lengthAdjust="spacingAndGlyphs" textLength="17" x="331" y="525.4482">ref</text><text fill="#000000" font-family="sans-serif" font-size="13" lengthAdjust="spacingAndGlyphs" textLength="125" x="324" y="545.4482">SD_SHOW_UPDATE</text><line style="stroke: #000000; stroke-width: 1.0; stroke-dasharray: 2.0,2.0;" x1="13" x2="400" y1="558.6563" y2="558.6563"/><polygon fill="#A80036" points="127.5,578.0078,137.5,582.0078,127.5,586.0078,131.5,582.0078" style="stroke: #A80036; stroke-width: 1.0;"/><line style="stroke: #A80036; stroke-width: 1.0;" x1="45.5" x2="133.5" y1="582.0078" y2="582.0078"/><text fill="#000000" font-family="sans-serif" font-size="13" lengthAdjust="spacingAndGlyphs" textLength="25" x="52.5" y="577.1514">list()</text><polygon fill="#A80036" points="343.5,608.3594,353.5,612.3594,343.5,616.3594,347.5,612.3594" style="stroke: #A80036; stroke-width: 1.0;"/><line style="stroke: #A80036; stroke-width: 1.0;" x1="139.5" x2="349.5" y1="612.3594" y2="612.3594"/><text fill="#000000" font-family="sans-serif" font-size="13" lengthAdjust="spacingAndGlyphs" textLength="192" x="146.5" y="607.5029">[GET]/performance/list/&lt;idShow&gt;</text><rect fill="#FFFFFF" filter="url(#f1qdc359kfcq2)" height="42.7031" style="stroke: #000000; stroke-width: 2.0;" width="167" x="318" y="620.3594"/><polygon fill="#EEEEEE" points="318,620.3594,380,620.3594,380,628.3594,370,638.3594,318,638.3594,318,620.3594" style="stroke: #000000; stroke-width: 2.0;"/><text fill="#000000" font-family="sans-serif" font-size="13" font-weight="bold" lengthAdjust="spacingAndGlyphs" textLength="17" x="331" y="635.8545">ref</text><text fill="#000000" font-family="sans-serif" font-size="13" lengthAdjust="spacingAndGlyphs" textLength="159" x="324" y="655.8545">SD_PERFORMANCE_LIST</text><line style="stroke: #000000; stroke-width: 1.0; stroke-dasharray: 2.0,2.0;" x1="13" x2="400" y1="669.0625" y2="669.0625"/><polygon fill="#A80036" points="127.5,688.4141,137.5,692.4141,127.5,696.4141,131.5,692.4141" style="stroke: #A80036; stroke-width: 1.0;"/><line style="stroke: #A80036; stroke-width: 1.0;" x1="45.5" x2="133.5" y1="692.4141" y2="692.4141"/><text fill="#000000" font-family="sans-serif" font-size="13" lengthAdjust="spacingAndGlyphs" textLength="36" x="52.5" y="687.5576">back()</text><polygon fill="#A80036" points="343.5,718.7656,353.5,722.7656,343.5,726.7656,347.5,722.7656" style="stroke: #A80036; stroke-width: 1.0;"/><line style="stroke: #A80036; stroke-width: 1.0;" x1="139.5" x2="349.5" y1="722.7656" y2="722.7656"/><text fill="#000000" font-family="sans-serif" font-size="13" lengthAdjust="spacingAndGlyphs" textLength="93" x="146.5" y="717.9092">[GET]/show/list/</text><rect fill="#FFFFFF" filter="url(#f1qdc359kfcq2)" height="42.7031" style="stroke: #000000; stroke-width: 2.0;" width="107" x="318" y="730.7656"/><polygon fill="#EEEEEE" points="318,730.7656,380,730.7656,380,738.7656,370,748.7656,318,748.7656,318,730.7656" style="stroke: #000000; stroke-width: 2.0;"/><text fill="#000000" font-family="sans-serif" font-size="13" font-weight="bold" lengthAdjust="spacingAndGlyphs" textLength="17" x="331" y="746.2607">ref</text><text fill="#000000" font-family="sans-serif" font-size="13" lengthAdjust="spacingAndGlyphs" textLength="99" x="324" y="766.2607">SD_SHOW_LIST</text><!--
@startuml SD_SHOW_READ

title SD_SHOW_READ

skinparam shadowing TRUE
hide footbox

actor Admin as a
participant ": ShowReadView" as V
participant ": Router" as R
participant ": ShowController" as SC
participant "Show" as SR <<class>>

-> R : [GET] /show/read/<idshow>

create SC
R -> SC : read(idshow)



SC -> SR : getShow(idShow) : Show
SR - -> SC : show

Create V
SC -> V : new(show)

alt
a->V : delete()
V-> R :[GET]/show/delete/<idshow>

ref over R : SD_SHOW_DELETE

else 
a->V : update()
V-> R :[GET]/show/update/<idshow>

ref over R : SD_SHOW_UPDATE

else
a-> V:  list()
V-> R : [GET]/performance/list/<idShow>

ref over R : SD_PERFORMANCE_LIST
else
a-> V:  back()
V-> R : [GET]/show/list/

ref over R : SD_SHOW_LIST


end

@enduml

PlantUML version 1.2019.09(Mon Aug 26 18:19:51 CEST 2019)
(GPL source distribution)
Java Runtime: Java(TM) SE Runtime Environment
JVM: Java HotSpot(TM) 64-Bit Server VM
Java Version: 1.8.0_221-b11
Operating System: Windows 10
OS Version: 10.0
Default Encoding: Cp1252
Language: fr
Country: FR
--></g></svg>