<?xml version="1.0" encoding="UTF-8" standalone="no"?><svg xmlns="http://www.w3.org/2000/svg" xmlns:xlink="http://www.w3.org/1999/xlink" contentScriptType="application/ecmascript" contentStyleType="text/css" height="727px" preserveAspectRatio="none" style="width:777px;height:727px;" version="1.1" viewBox="0 0 777 727" width="777px" zoomAndPan="magnify"><defs><filter height="300%" id="ft3ueztrote0w" width="300%" x="-1" y="-1"><feGaussianBlur result="blurOut" stdDeviation="2.0"/><feColorMatrix in="blurOut" result="blurOut2" type="matrix" values="0 0 0 0 0 0 0 0 0 0 0 0 0 0 0 0 0 0 .4 0"/><feOffset dx="4.0" dy="4.0" in="blurOut2" result="blurOut3"/><feBlend in="SourceGraphic" in2="blurOut3" mode="normal"/></filter></defs><g><text fill="#000000" font-family="sans-serif" font-size="14" font-weight="bold" lengthAdjust="spacingAndGlyphs" textLength="107" x="335.75" y="24.5332">SD_SHOW_LIST</text><rect fill="#FEFECE" filter="url(#ft3ueztrote0w)" height="31.6094" style="stroke: #A80036; stroke-width: 1.5;" width="114" x="509.5" y="159.5703"/><text fill="#000000" font-family="sans-serif" font-size="14" lengthAdjust="spacingAndGlyphs" textLength="100" x="516.5" y="181.1035">:ShowController</text><rect fill="#FEFECE" filter="url(#ft3ueztrote0w)" height="31.6094" style="stroke: #A80036; stroke-width: 1.5;" width="103" x="130" y="266.8828"/><text fill="#000000" font-family="sans-serif" font-size="14" lengthAdjust="spacingAndGlyphs" textLength="89" x="137" y="288.416">:ShowListView</text><rect fill="#FFFFFF" filter="url(#ft3ueztrote0w)" height="377.9219" style="stroke: #000000; stroke-width: 2.0;" width="400" x="13" y="320.4922"/><rect fill="#FFFFFF" height="110.4063" style="stroke: none; stroke-width: 1.0;" width="400" x="13" y="477.6016"/><rect fill="#FFFFFF" height="110.4063" style="stroke: none; stroke-width: 1.0;" width="400" x="13" y="588.0078"/><line style="stroke: #A80036; stroke-width: 1.0; stroke-dasharray: 5.0,5.0;" x1="45" x2="45" y1="119.2188" y2="715.4141"/><line style="stroke: #A80036; stroke-width: 1.0; stroke-dasharray: 5.0,5.0;" x1="183" x2="183" y1="300.1875" y2="715.4141"/><line style="stroke: #A80036; stroke-width: 1.0; stroke-dasharray: 5.0,5.0;" x1="366" x2="366" y1="119.2188" y2="715.4141"/><line style="stroke: #A80036; stroke-width: 1.0; stroke-dasharray: 5.0,5.0;" x1="568.5" x2="568.5" y1="192.875" y2="715.4141"/><line style="stroke: #A80036; stroke-width: 1.0; stroke-dasharray: 5.0,5.0;" x1="737.5" x2="737.5" y1="119.2188" y2="715.4141"/><text fill="#000000" font-family="sans-serif" font-size="14" lengthAdjust="spacingAndGlyphs" textLength="39" x="23" y="116.1426">Admin</text><ellipse cx="45.5" cy="44.6094" fill="#FEFECE" filter="url(#ft3ueztrote0w)" rx="8" ry="8" style="stroke: #A80036; stroke-width: 2.0;"/><path d="M45.5,52.6094 L45.5,79.6094 M32.5,60.6094 L58.5,60.6094 M45.5,79.6094 L32.5,94.6094 M45.5,79.6094 L58.5,94.6094 " fill="none" filter="url(#ft3ueztrote0w)" style="stroke: #A80036; stroke-width: 2.0;"/><rect fill="#FEFECE" filter="url(#ft3ueztrote0w)" height="31.6094" style="stroke: #A80036; stroke-width: 1.5;" width="69" x="330" y="82.6094"/><text fill="#000000" font-family="sans-serif" font-size="14" lengthAdjust="spacingAndGlyphs" textLength="55" x="337" y="104.1426">:Routeur</text><rect fill="#FEFECE" filter="url(#ft3ueztrote0w)" height="49.2188" style="stroke: #A80036; stroke-width: 1.5;" width="62" x="704.5" y="65"/><text fill="#000000" font-family="sans-serif" font-size="14" font-style="italic" lengthAdjust="spacingAndGlyphs" textLength="48" x="711.5" y="86">«class»</text><text fill="#000000" font-family="sans-serif" font-size="14" lengthAdjust="spacingAndGlyphs" textLength="34" x="718.5" y="103.6094">Show</text><polygon fill="#A80036" points="354.5,147.5703,364.5,151.5703,354.5,155.5703,358.5,151.5703" style="stroke: #A80036; stroke-width: 1.0;"/><line style="stroke: #A80036; stroke-width: 1.0;" x1="3" x2="360.5" y1="151.5703" y2="151.5703"/><text fill="#000000" font-family="sans-serif" font-size="13" lengthAdjust="spacingAndGlyphs" textLength="141" x="10" y="146.7139">[GET]/show/list/[&lt;filter&gt;]</text><polygon fill="#A80036" points="497.5,177.9219,507.5,181.9219,497.5,185.9219,501.5,181.9219" style="stroke: #A80036; stroke-width: 1.0;"/><line style="stroke: #A80036; stroke-width: 1.0;" x1="366.5" x2="503.5" y1="181.9219" y2="181.9219"/><text fill="#000000" font-family="sans-serif" font-size="13" lengthAdjust="spacingAndGlyphs" textLength="119" x="373.5" y="177.0654">list(filter : string = "")</text><rect fill="#FEFECE" filter="url(#ft3ueztrote0w)" height="31.6094" style="stroke: #A80036; stroke-width: 1.5;" width="114" x="509.5" y="159.5703"/><text fill="#000000" font-family="sans-serif" font-size="14" lengthAdjust="spacingAndGlyphs" textLength="100" x="516.5" y="181.1035">:ShowController</text><polygon fill="#A80036" points="725.5,224.5313,735.5,228.5313,725.5,232.5313,729.5,228.5313" style="stroke: #A80036; stroke-width: 1.0;"/><line style="stroke: #A80036; stroke-width: 1.0;" x1="568.5" x2="731.5" y1="228.5313" y2="228.5313"/><text fill="#000000" font-family="sans-serif" font-size="13" lengthAdjust="spacingAndGlyphs" textLength="145" x="575.5" y="223.6748">getFiltered(filter) : Show[]</text><polygon fill="#A80036" points="579.5,254.8828,569.5,258.8828,579.5,262.8828,575.5,258.8828" style="stroke: #A80036; stroke-width: 1.0;"/><line style="stroke: #A80036; stroke-width: 1.0; stroke-dasharray: 2.0,2.0;" x1="573.5" x2="736.5" y1="258.8828" y2="258.8828"/><text fill="#000000" font-family="sans-serif" font-size="13" lengthAdjust="spacingAndGlyphs" textLength="37" x="585.5" y="254.0264">shows</text><polygon fill="#A80036" points="248,285.2344,238,289.2344,248,293.2344,244,289.2344" style="stroke: #A80036; stroke-width: 1.0;"/><line style="stroke: #A80036; stroke-width: 1.0;" x1="242" x2="567.5" y1="289.2344" y2="289.2344"/><text fill="#000000" font-family="sans-serif" font-size="13" lengthAdjust="spacingAndGlyphs" textLength="68" x="254" y="284.3779">new(shows)</text><rect fill="#FEFECE" filter="url(#ft3ueztrote0w)" height="31.6094" style="stroke: #A80036; stroke-width: 1.5;" width="103" x="130" y="266.8828"/><text fill="#000000" font-family="sans-serif" font-size="14" lengthAdjust="spacingAndGlyphs" textLength="89" x="137" y="288.416">:ShowListView</text><path d="M13,320.4922 L74,320.4922 L74,328.4922 L64,338.4922 L13,338.4922 L13,320.4922 " fill="#EEEEEE" style="stroke: #000000; stroke-width: 1.0;"/><rect fill="none" height="377.9219" style="stroke: #000000; stroke-width: 2.0;" width="400" x="13" y="320.4922"/><text fill="#000000" font-family="sans-serif" font-size="13" font-weight="bold" lengthAdjust="spacingAndGlyphs" textLength="16" x="28" y="334.9873">alt</text><polygon fill="#A80036" points="171.5,357.1953,181.5,361.1953,171.5,365.1953,175.5,361.1953" style="stroke: #A80036; stroke-width: 1.0;"/><line style="stroke: #A80036; stroke-width: 1.0;" x1="45.5" x2="177.5" y1="361.1953" y2="361.1953"/><text fill="#000000" font-family="sans-serif" font-size="13" lengthAdjust="spacingAndGlyphs" textLength="114" x="52.5" y="356.3389">setFilter(val : string)</text><polygon fill="#A80036" points="171.5,387.5469,181.5,391.5469,171.5,395.5469,175.5,391.5469" style="stroke: #A80036; stroke-width: 1.0;"/><line style="stroke: #A80036; stroke-width: 1.0;" x1="45.5" x2="177.5" y1="391.5469" y2="391.5469"/><text fill="#000000" font-family="sans-serif" font-size="13" lengthAdjust="spacingAndGlyphs" textLength="68" x="52.5" y="386.6904">applyFilter()</text><polygon fill="#A80036" points="354.5,417.8984,364.5,421.8984,354.5,425.8984,358.5,421.8984" style="stroke: #A80036; stroke-width: 1.0;"/><line style="stroke: #A80036; stroke-width: 1.0;" x1="183.5" x2="360.5" y1="421.8984" y2="421.8984"/><text fill="#000000" font-family="sans-serif" font-size="13" lengthAdjust="spacingAndGlyphs" textLength="133" x="190.5" y="417.042">[GET]/show/list/&lt;filter&gt;</text><rect fill="#FFFFFF" filter="url(#ft3ueztrote0w)" height="42.7031" style="stroke: #000000; stroke-width: 2.0;" width="107" x="327" y="429.8984"/><polygon fill="#EEEEEE" points="327,429.8984,389,429.8984,389,437.8984,379,447.8984,327,447.8984,327,429.8984" style="stroke: #000000; stroke-width: 2.0;"/><text fill="#000000" font-family="sans-serif" font-size="13" font-weight="bold" lengthAdjust="spacingAndGlyphs" textLength="17" x="340" y="445.3936">ref</text><text fill="#000000" font-family="sans-serif" font-size="13" lengthAdjust="spacingAndGlyphs" textLength="99" x="333" y="465.3936">SD_SHOW_LIST</text><line style="stroke: #000000; stroke-width: 1.0; stroke-dasharray: 2.0,2.0;" x1="13" x2="413" y1="478.6016" y2="478.6016"/><polygon fill="#A80036" points="171.5,497.9531,181.5,501.9531,171.5,505.9531,175.5,501.9531" style="stroke: #A80036; stroke-width: 1.0;"/><line style="stroke: #A80036; stroke-width: 1.0;" x1="45.5" x2="177.5" y1="501.9531" y2="501.9531"/><text fill="#000000" font-family="sans-serif" font-size="13" lengthAdjust="spacingAndGlyphs" textLength="75" x="52.5" y="497.0967">read(idShow)</text><polygon fill="#A80036" points="354.5,528.3047,364.5,532.3047,354.5,536.3047,358.5,532.3047" style="stroke: #A80036; stroke-width: 1.0;"/><line style="stroke: #A80036; stroke-width: 1.0;" x1="183.5" x2="360.5" y1="532.3047" y2="532.3047"/><text fill="#000000" font-family="sans-serif" font-size="13" lengthAdjust="spacingAndGlyphs" textLength="159" x="190.5" y="527.4482">[GET]/show/read/&lt;idShow&gt;</text><rect fill="#FFFFFF" filter="url(#ft3ueztrote0w)" height="42.7031" style="stroke: #000000; stroke-width: 2.0;" width="117" x="327" y="540.3047"/><polygon fill="#EEEEEE" points="327,540.3047,389,540.3047,389,548.3047,379,558.3047,327,558.3047,327,540.3047" style="stroke: #000000; stroke-width: 2.0;"/><text fill="#000000" font-family="sans-serif" font-size="13" font-weight="bold" lengthAdjust="spacingAndGlyphs" textLength="17" x="340" y="555.7998">ref</text><text fill="#000000" font-family="sans-serif" font-size="13" lengthAdjust="spacingAndGlyphs" textLength="109" x="333" y="575.7998">SD_SHOW_READ</text><line style="stroke: #000000; stroke-width: 1.0; stroke-dasharray: 2.0,2.0;" x1="13" x2="413" y1="589.0078" y2="589.0078"/><polygon fill="#A80036" points="171.5,608.3594,181.5,612.3594,171.5,616.3594,175.5,612.3594" style="stroke: #A80036; stroke-width: 1.0;"/><line style="stroke: #A80036; stroke-width: 1.0;" x1="45.5" x2="177.5" y1="612.3594" y2="612.3594"/><text fill="#000000" font-family="sans-serif" font-size="13" lengthAdjust="spacingAndGlyphs" textLength="44" x="52.5" y="607.5029">create()</text><polygon fill="#A80036" points="354.5,638.7109,364.5,642.7109,354.5,646.7109,358.5,642.7109" style="stroke: #A80036; stroke-width: 1.0;"/><line style="stroke: #A80036; stroke-width: 1.0;" x1="183.5" x2="360.5" y1="642.7109" y2="642.7109"/><text fill="#000000" font-family="sans-serif" font-size="13" lengthAdjust="spacingAndGlyphs" textLength="108" x="190.5" y="637.8545">[GET]/show/create</text><rect fill="#FFFFFF" filter="url(#ft3ueztrote0w)" height="42.7031" style="stroke: #000000; stroke-width: 2.0;" width="133" x="327" y="650.7109"/><polygon fill="#EEEEEE" points="327,650.7109,389,650.7109,389,658.7109,379,668.7109,327,668.7109,327,650.7109" style="stroke: #000000; stroke-width: 2.0;"/><text fill="#000000" font-family="sans-serif" font-size="13" font-weight="bold" lengthAdjust="spacingAndGlyphs" textLength="17" x="340" y="666.2061">ref</text><text fill="#000000" font-family="sans-serif" font-size="13" lengthAdjust="spacingAndGlyphs" textLength="125" x="333" y="686.2061">SD_SHOW_CREATE</text><!--
@startuml SD_SHOW_LIST
title SD_SHOW_LIST
hide footbox
Actor "Admin" as A
Participant ":ShowListView" as SL
Participant ":Routeur" as R
Participant ":ShowController" as SC
Participant "Show" as S <<class>>
-> R : [GET]/show/list/[<filter>]
create SC
R -> SC : list(filter : string = "") 
SC -> S : getFiltered(filter) : Show[]
S - -> SC : shows
create SL 
SC -> SL : new(shows)
alt 
A -> SL : setFilter(val : string)
A -> SL : applyFilter()
SL -> R : [GET]/show/list/<filter>
ref over R : SD_SHOW_LIST
else 
A -> SL : read(idShow)
SL -> R : [GET]/show/read/<idShow>
ref over R : SD_SHOW_READ
else 
A -> SL : create()
SL -> R : [GET]/show/create
ref over R : SD_SHOW_CREATE
end 

@enduml

PlantUML version 1.2019.09(Mon Aug 26 18:19:51 CEST 2019)
(GPL source distribution)
Java Runtime: Java(TM) SE Runtime Environment
JVM: Java HotSpot(TM) 64-Bit Server VM
Java Version: 1.8.0_221-b11
Operating System: Windows 10
OS Version: 10.0
Default Encoding: Cp1252
Language: fr
Country: FR
--></g></svg>