<?xml version="1.0" encoding="UTF-8" standalone="no"?><svg xmlns="http://www.w3.org/2000/svg" xmlns:xlink="http://www.w3.org/1999/xlink" contentScriptType="application/ecmascript" contentStyleType="text/css" height="489px" preserveAspectRatio="none" style="width:249px;height:489px;" version="1.1" viewBox="0 0 249 489" width="249px" zoomAndPan="magnify"><defs><filter height="300%" id="f1gy2qxdjuvmp2" width="300%" x="-1" y="-1"><feGaussianBlur result="blurOut" stdDeviation="2.0"/><feColorMatrix in="blurOut" result="blurOut2" type="matrix" values="0 0 0 0 0 0 0 0 0 0 0 0 0 0 0 0 0 0 .4 0"/><feOffset dx="4.0" dy="4.0" in="blurOut2" result="blurOut3"/><feBlend in="SourceGraphic" in2="blurOut3" mode="normal"/></filter></defs><g><text fill="#000000" font-family="sans-serif" font-size="14" font-weight="bold" lengthAdjust="spacingAndGlyphs" textLength="208" x="21.25" y="24.5332">SSD_PERFORMANCE_CREATE</text><rect fill="#FFFFFF" filter="url(#f1gy2qxdjuvmp2)" height="124.4063" style="stroke: #000000; stroke-width: 2.0;" width="224.5" x="13" y="287.9766"/><rect fill="#FFFFFF" height="32.3516" style="stroke: none; stroke-width: 1.0;" width="224.5" x="13" y="380.0313"/><line style="stroke: #A80036; stroke-width: 1.0; stroke-dasharray: 5.0,5.0;" x1="45" x2="45" y1="119.2188" y2="477.0859"/><line style="stroke: #A80036; stroke-width: 1.0; stroke-dasharray: 5.0,5.0;" x1="182.5" x2="182.5" y1="119.2188" y2="477.0859"/><text fill="#000000" font-family="sans-serif" font-size="14" lengthAdjust="spacingAndGlyphs" textLength="39" x="23" y="116.1426">Admin</text><ellipse cx="45.5" cy="44.6094" fill="#FEFECE" filter="url(#f1gy2qxdjuvmp2)" rx="8" ry="8" style="stroke: #A80036; stroke-width: 2.0;"/><path d="M45.5,52.6094 L45.5,79.6094 M32.5,60.6094 L58.5,60.6094 M45.5,79.6094 L32.5,94.6094 M45.5,79.6094 L58.5,94.6094 " fill="none" filter="url(#f1gy2qxdjuvmp2)" style="stroke: #A80036; stroke-width: 2.0;"/><rect fill="#FEFECE" filter="url(#f1gy2qxdjuvmp2)" height="31.6094" style="stroke: #A80036; stroke-width: 1.5;" width="68" x="146.5" y="82.6094"/><text fill="#000000" font-family="sans-serif" font-size="14" lengthAdjust="spacingAndGlyphs" textLength="54" x="153.5" y="104.1426">Systeme</text><polygon fill="#A80036" points="56.5,147.5703,46.5,151.5703,56.5,155.5703,52.5,151.5703" style="stroke: #A80036; stroke-width: 1.0;"/><line style="stroke: #A80036; stroke-width: 1.0;" x1="50.5" x2="181.5" y1="151.5703" y2="151.5703"/><text fill="#000000" font-family="sans-serif" font-size="13" lengthAdjust="spacingAndGlyphs" textLength="113" x="62.5" y="146.7139">display create page</text><polygon fill="#A80036" points="170.5,177.9219,180.5,181.9219,170.5,185.9219,174.5,181.9219" style="stroke: #A80036; stroke-width: 1.0;"/><line style="stroke: #A80036; stroke-width: 1.0;" x1="45.5" x2="176.5" y1="181.9219" y2="181.9219"/><text fill="#000000" font-family="sans-serif" font-size="13" lengthAdjust="spacingAndGlyphs" textLength="84" x="52.5" y="177.0654">give beginDate</text><polygon fill="#A80036" points="170.5,208.2734,180.5,212.2734,170.5,216.2734,174.5,212.2734" style="stroke: #A80036; stroke-width: 1.0;"/><line style="stroke: #A80036; stroke-width: 1.0;" x1="45.5" x2="176.5" y1="212.2734" y2="212.2734"/><text fill="#000000" font-family="sans-serif" font-size="13" lengthAdjust="spacingAndGlyphs" textLength="74" x="52.5" y="207.417">give endDate</text><polygon fill="#A80036" points="170.5,238.625,180.5,242.625,170.5,246.625,174.5,242.625" style="stroke: #A80036; stroke-width: 1.0;"/><line style="stroke: #A80036; stroke-width: 1.0;" x1="45.5" x2="176.5" y1="242.625" y2="242.625"/><text fill="#000000" font-family="sans-serif" font-size="13" lengthAdjust="spacingAndGlyphs" textLength="82" x="52.5" y="237.7686">give frequency</text><polygon fill="#A80036" points="170.5,268.9766,180.5,272.9766,170.5,276.9766,174.5,272.9766" style="stroke: #A80036; stroke-width: 1.0;"/><line style="stroke: #A80036; stroke-width: 1.0;" x1="45.5" x2="176.5" y1="272.9766" y2="272.9766"/><text fill="#000000" font-family="sans-serif" font-size="13" lengthAdjust="spacingAndGlyphs" textLength="66" x="52.5" y="268.1201">give theater</text><path d="M13,287.9766 L74,287.9766 L74,295.9766 L64,305.9766 L13,305.9766 L13,287.9766 " fill="#EEEEEE" style="stroke: #000000; stroke-width: 1.0;"/><rect fill="none" height="124.4063" style="stroke: #000000; stroke-width: 2.0;" width="224.5" x="13" y="287.9766"/><text fill="#000000" font-family="sans-serif" font-size="13" font-weight="bold" lengthAdjust="spacingAndGlyphs" textLength="16" x="28" y="302.4717">alt</text><polygon fill="#A80036" points="170.5,324.6797,180.5,328.6797,170.5,332.6797,174.5,328.6797" style="stroke: #A80036; stroke-width: 1.0;"/><line style="stroke: #A80036; stroke-width: 1.0;" x1="45.5" x2="176.5" y1="328.6797" y2="328.6797"/><text fill="#000000" font-family="sans-serif" font-size="13" lengthAdjust="spacingAndGlyphs" textLength="113" x="52.5" y="323.8232">click confirm button</text><line style="stroke: #A80036; stroke-width: 1.0;" x1="182.5" x2="224.5" y1="359.0313" y2="359.0313"/><line style="stroke: #A80036; stroke-width: 1.0;" x1="224.5" x2="224.5" y1="359.0313" y2="372.0313"/><line style="stroke: #A80036; stroke-width: 1.0;" x1="183.5" x2="224.5" y1="372.0313" y2="372.0313"/><polygon fill="#A80036" points="193.5,368.0313,183.5,372.0313,193.5,376.0313,189.5,372.0313" style="stroke: #A80036; stroke-width: 1.0;"/><text fill="#000000" font-family="sans-serif" font-size="13" lengthAdjust="spacingAndGlyphs" textLength="36" x="189.5" y="354.1748">create</text><line style="stroke: #000000; stroke-width: 1.0; stroke-dasharray: 2.0,2.0;" x1="13" x2="237.5" y1="381.0313" y2="381.0313"/><polygon fill="#A80036" points="170.5,400.3828,180.5,404.3828,170.5,408.3828,174.5,404.3828" style="stroke: #A80036; stroke-width: 1.0;"/><line style="stroke: #A80036; stroke-width: 1.0;" x1="45.5" x2="176.5" y1="404.3828" y2="404.3828"/><text fill="#000000" font-family="sans-serif" font-size="13" lengthAdjust="spacingAndGlyphs" textLength="109" x="52.5" y="399.5264">click cancel button</text><rect fill="#FFFFFF" filter="url(#f1gy2qxdjuvmp2)" height="42.7031" style="stroke: #000000; stroke-width: 2.0;" width="197.5" x="20" y="419.3828"/><polygon fill="#EEEEEE" points="20,419.3828,82,419.3828,82,427.3828,72,437.3828,20,437.3828,20,419.3828" style="stroke: #000000; stroke-width: 2.0;"/><text fill="#000000" font-family="sans-serif" font-size="13" font-weight="bold" lengthAdjust="spacingAndGlyphs" textLength="17" x="33" y="434.8779">ref</text><text fill="#000000" font-family="sans-serif" font-size="13" lengthAdjust="spacingAndGlyphs" textLength="168" x="36.75" y="454.8779">SSD_PERFORMANCE_LIST</text><!--
@startuml SSD_PERFORMANCE_CREATE
    title SSD_PERFORMANCE_CREATE
    hide footbox
    Actor "Admin" as A
    Participant "Systeme" as S


    S -> A : display create page
    
    A -> S : give beginDate 
    A -> S : give endDate
    A -> S : give frequency
    A -> S : give theater

    alt
    A -> S : click confirm button
    S -> S : create
    else
    A -> S : click cancel button
    end
    ref over A,S : SSD_PERFORMANCE_LIST
@enduml

PlantUML version 1.2019.09(Mon Aug 26 18:19:51 CEST 2019)
(GPL source distribution)
Java Runtime: Java(TM) SE Runtime Environment
JVM: Java HotSpot(TM) 64-Bit Server VM
Java Version: 1.8.0_221-b11
Operating System: Windows 10
OS Version: 10.0
Default Encoding: Cp1252
Language: fr
Country: BE
--></g></svg>