<?xml version="1.0" encoding="UTF-8" standalone="no"?><svg xmlns="http://www.w3.org/2000/svg" xmlns:xlink="http://www.w3.org/1999/xlink" contentScriptType="application/ecmascript" contentStyleType="text/css" height="796px" preserveAspectRatio="none" style="width:1252px;height:796px;" version="1.1" viewBox="0 0 1252 796" width="1252px" zoomAndPan="magnify"><defs><filter height="300%" id="f1jv2h25i3n3c7" width="300%" x="-1" y="-1"><feGaussianBlur result="blurOut" stdDeviation="2.0"/><feColorMatrix in="blurOut" result="blurOut2" type="matrix" values="0 0 0 0 0 0 0 0 0 0 0 0 0 0 0 0 0 0 .4 0"/><feOffset dx="4.0" dy="4.0" in="blurOut2" result="blurOut3"/><feBlend in="SourceGraphic" in2="blurOut3" mode="normal"/></filter></defs><g><text fill="#000000" font-family="sans-serif" font-size="14" font-weight="bold" lengthAdjust="spacingAndGlyphs" textLength="197" x="528" y="24.5332">SD_PERFORMANCE_DELETE</text><rect fill="#FEFECE" filter="url(#f1jv2h25i3n3c7)" height="31.6094" style="stroke: #A80036; stroke-width: 1.5;" width="161" x="498.5" y="159.5703"/><text fill="#000000" font-family="sans-serif" font-size="14" lengthAdjust="spacingAndGlyphs" textLength="147" x="505.5" y="181.1035">:PerformanceController</text><rect fill="#FEFECE" filter="url(#f1jv2h25i3n3c7)" height="31.6094" style="stroke: #A80036; stroke-width: 1.5;" width="169" x="78" y="266.8828"/><text fill="#000000" font-family="sans-serif" font-size="14" lengthAdjust="spacingAndGlyphs" textLength="155" x="85" y="288.416">:PerformanceDeleteView</text><rect fill="#FFFFFF" filter="url(#f1jv2h25i3n3c7)" height="399.7344" style="stroke: #000000; stroke-width: 2.0;" width="1227" x="13" y="320.4922"/><rect fill="#FEFECE" filter="url(#f1jv2h25i3n3c7)" height="31.6094" style="stroke: #A80036; stroke-width: 1.5;" width="161" x="673.5" y="399.5469"/><text fill="#000000" font-family="sans-serif" font-size="14" lengthAdjust="spacingAndGlyphs" textLength="147" x="680.5" y="421.0801">:PerformanceController</text><rect fill="#FEFECE" filter="url(#f1jv2h25i3n3c7)" height="31.6094" style="stroke: #A80036; stroke-width: 1.5;" width="187" x="971.5" y="476.5078"/><text fill="#000000" font-family="sans-serif" font-size="14" lengthAdjust="spacingAndGlyphs" textLength="173" x="978.5" y="498.041">performance : Performance</text><rect fill="#FFFFFF" height="62.7031" style="stroke: none; stroke-width: 1.0;" width="1227" x="13" y="657.5234"/><line style="stroke: #A80036; stroke-width: 1.0; stroke-dasharray: 5.0,5.0;" x1="45" x2="45" y1="119.2188" y2="784.9297"/><line style="stroke: #A80036; stroke-width: 1.0; stroke-dasharray: 5.0,5.0;" x1="164" x2="164" y1="300.1875" y2="784.9297"/><line style="stroke: #A80036; stroke-width: 1.0; stroke-dasharray: 5.0,5.0;" x1="398" x2="398" y1="119.2188" y2="784.9297"/><line style="stroke: #A80036; stroke-width: 1.0; stroke-dasharray: 5.0,5.0;" x1="580.5" x2="580.5" y1="192.875" y2="784.9297"/><line style="stroke: #A80036; stroke-width: 1.0; stroke-dasharray: 5.0,5.0;" x1="755.5" x2="755.5" y1="432.8516" y2="784.9297"/><line style="stroke: #A80036; stroke-width: 1.0; stroke-dasharray: 5.0,5.0;" x1="911.5" x2="911.5" y1="119.2188" y2="784.9297"/><line style="stroke: #A80036; stroke-width: 1.0; stroke-dasharray: 5.0,5.0;" x1="1066.5" x2="1066.5" y1="509.8125" y2="784.9297"/><text fill="#000000" font-family="sans-serif" font-size="14" lengthAdjust="spacingAndGlyphs" textLength="39" x="23" y="116.1426">Admin</text><ellipse cx="45.5" cy="44.6094" fill="#FEFECE" filter="url(#f1jv2h25i3n3c7)" rx="8" ry="8" style="stroke: #A80036; stroke-width: 2.0;"/><path d="M45.5,52.6094 L45.5,79.6094 M32.5,60.6094 L58.5,60.6094 M45.5,79.6094 L32.5,94.6094 M45.5,79.6094 L58.5,94.6094 " fill="none" filter="url(#f1jv2h25i3n3c7)" style="stroke: #A80036; stroke-width: 2.0;"/><rect fill="#FEFECE" filter="url(#f1jv2h25i3n3c7)" height="31.6094" style="stroke: #A80036; stroke-width: 1.5;" width="69" x="362" y="82.6094"/><text fill="#000000" font-family="sans-serif" font-size="14" lengthAdjust="spacingAndGlyphs" textLength="55" x="369" y="104.1426">:Routeur</text><rect fill="#FEFECE" filter="url(#f1jv2h25i3n3c7)" height="49.2188" style="stroke: #A80036; stroke-width: 1.5;" width="95" x="862.5" y="65"/><text fill="#000000" font-family="sans-serif" font-size="14" font-style="italic" lengthAdjust="spacingAndGlyphs" textLength="48" x="886" y="86">«class»</text><text fill="#000000" font-family="sans-serif" font-size="14" lengthAdjust="spacingAndGlyphs" textLength="81" x="869.5" y="103.6094">Performance</text><polygon fill="#A80036" points="386.5,147.5703,396.5,151.5703,386.5,155.5703,390.5,151.5703" style="stroke: #A80036; stroke-width: 1.0;"/><line style="stroke: #A80036; stroke-width: 1.0;" x1="3" x2="392.5" y1="151.5703" y2="151.5703"/><text fill="#000000" font-family="sans-serif" font-size="13" lengthAdjust="spacingAndGlyphs" textLength="201" x="10" y="146.7139">[GET]/performance/delete/&lt;idPerf&gt;</text><polygon fill="#A80036" points="486.5,177.9219,496.5,181.9219,486.5,185.9219,490.5,181.9219" style="stroke: #A80036; stroke-width: 1.0;"/><line style="stroke: #A80036; stroke-width: 1.0;" x1="398.5" x2="492.5" y1="181.9219" y2="181.9219"/><text fill="#000000" font-family="sans-serif" font-size="13" lengthAdjust="spacingAndGlyphs" textLength="76" x="405.5" y="177.0654">delete(idPerf)</text><rect fill="#FEFECE" filter="url(#f1jv2h25i3n3c7)" height="31.6094" style="stroke: #A80036; stroke-width: 1.5;" width="161" x="498.5" y="159.5703"/><text fill="#000000" font-family="sans-serif" font-size="14" lengthAdjust="spacingAndGlyphs" textLength="147" x="505.5" y="181.1035">:PerformanceController</text><polygon fill="#A80036" points="900,224.5313,910,228.5313,900,232.5313,904,228.5313" style="stroke: #A80036; stroke-width: 1.0;"/><line style="stroke: #A80036; stroke-width: 1.0;" x1="581" x2="906" y1="228.5313" y2="228.5313"/><text fill="#000000" font-family="sans-serif" font-size="13" lengthAdjust="spacingAndGlyphs" textLength="217" x="588" y="223.6748">getPerformance(idPerf) : Performance</text><polygon fill="#A80036" points="592,254.8828,582,258.8828,592,262.8828,588,258.8828" style="stroke: #A80036; stroke-width: 1.0;"/><line style="stroke: #A80036; stroke-width: 1.0; stroke-dasharray: 2.0,2.0;" x1="586" x2="911" y1="258.8828" y2="258.8828"/><text fill="#000000" font-family="sans-serif" font-size="13" lengthAdjust="spacingAndGlyphs" textLength="71" x="598" y="254.0264">performance</text><polygon fill="#A80036" points="262,285.2344,252,289.2344,262,293.2344,258,289.2344" style="stroke: #A80036; stroke-width: 1.0;"/><line style="stroke: #A80036; stroke-width: 1.0;" x1="256" x2="580" y1="289.2344" y2="289.2344"/><text fill="#000000" font-family="sans-serif" font-size="13" lengthAdjust="spacingAndGlyphs" textLength="102" x="268" y="284.3779">new(performance)</text><rect fill="#FEFECE" filter="url(#f1jv2h25i3n3c7)" height="31.6094" style="stroke: #A80036; stroke-width: 1.5;" width="169" x="78" y="266.8828"/><text fill="#000000" font-family="sans-serif" font-size="14" lengthAdjust="spacingAndGlyphs" textLength="155" x="85" y="288.416">:PerformanceDeleteView</text><path d="M13,320.4922 L74,320.4922 L74,328.4922 L64,338.4922 L13,338.4922 L13,320.4922 " fill="#EEEEEE" style="stroke: #000000; stroke-width: 1.0;"/><rect fill="none" height="399.7344" style="stroke: #000000; stroke-width: 2.0;" width="1227" x="13" y="320.4922"/><text fill="#000000" font-family="sans-serif" font-size="13" font-weight="bold" lengthAdjust="spacingAndGlyphs" textLength="16" x="28" y="334.9873">alt</text><polygon fill="#A80036" points="152.5,357.1953,162.5,361.1953,152.5,365.1953,156.5,361.1953" style="stroke: #A80036; stroke-width: 1.0;"/><line style="stroke: #A80036; stroke-width: 1.0;" x1="45.5" x2="158.5" y1="361.1953" y2="361.1953"/><text fill="#000000" font-family="sans-serif" font-size="13" lengthAdjust="spacingAndGlyphs" textLength="50" x="52.5" y="356.3389">confirm()</text><polygon fill="#A80036" points="386.5,387.5469,396.5,391.5469,386.5,395.5469,390.5,391.5469" style="stroke: #A80036; stroke-width: 1.0;"/><line style="stroke: #A80036; stroke-width: 1.0;" x1="164.5" x2="392.5" y1="391.5469" y2="391.5469"/><text fill="#000000" font-family="sans-serif" font-size="13" lengthAdjust="spacingAndGlyphs" textLength="210" x="171.5" y="386.6904">[POST]/performance/delete/&lt;idPerf&gt;</text><polygon fill="#A80036" points="661.5,417.8984,671.5,421.8984,661.5,425.8984,665.5,421.8984" style="stroke: #A80036; stroke-width: 1.0;"/><line style="stroke: #A80036; stroke-width: 1.0;" x1="398.5" x2="667.5" y1="421.8984" y2="421.8984"/><text fill="#000000" font-family="sans-serif" font-size="13" lengthAdjust="spacingAndGlyphs" textLength="76" x="405.5" y="417.042">delete(idPerf)</text><rect fill="#FEFECE" filter="url(#f1jv2h25i3n3c7)" height="31.6094" style="stroke: #A80036; stroke-width: 1.5;" width="161" x="673.5" y="399.5469"/><text fill="#000000" font-family="sans-serif" font-size="14" lengthAdjust="spacingAndGlyphs" textLength="147" x="680.5" y="421.0801">:PerformanceController</text><polygon fill="#A80036" points="900,464.5078,910,468.5078,900,472.5078,904,468.5078" style="stroke: #A80036; stroke-width: 1.0;"/><line style="stroke: #A80036; stroke-width: 1.0;" x1="756" x2="906" y1="468.5078" y2="468.5078"/><text fill="#000000" font-family="sans-serif" font-size="13" lengthAdjust="spacingAndGlyphs" textLength="132" x="763" y="463.6514">getPerformance(idPerf)</text><polygon fill="#A80036" points="959.5,494.8594,969.5,498.8594,959.5,502.8594,963.5,498.8594" style="stroke: #A80036; stroke-width: 1.0;"/><line style="stroke: #A80036; stroke-width: 1.0;" x1="912" x2="965.5" y1="498.8594" y2="498.8594"/><text fill="#000000" font-family="sans-serif" font-size="13" lengthAdjust="spacingAndGlyphs" textLength="31" x="919" y="494.0029">new()</text><rect fill="#FEFECE" filter="url(#f1jv2h25i3n3c7)" height="31.6094" style="stroke: #A80036; stroke-width: 1.5;" width="187" x="971.5" y="476.5078"/><text fill="#000000" font-family="sans-serif" font-size="14" lengthAdjust="spacingAndGlyphs" textLength="173" x="978.5" y="498.041">performance : Performance</text><polygon fill="#A80036" points="767,541.4688,757,545.4688,767,549.4688,763,545.4688" style="stroke: #A80036; stroke-width: 1.0;"/><line style="stroke: #A80036; stroke-width: 1.0; stroke-dasharray: 2.0,2.0;" x1="761" x2="911" y1="545.4688" y2="545.4688"/><text fill="#000000" font-family="sans-serif" font-size="13" lengthAdjust="spacingAndGlyphs" textLength="71" x="773" y="540.6123">performance</text><polygon fill="#A80036" points="1055,571.8203,1065,575.8203,1055,579.8203,1059,575.8203" style="stroke: #A80036; stroke-width: 1.0;"/><line style="stroke: #A80036; stroke-width: 1.0;" x1="756" x2="1061" y1="575.8203" y2="575.8203"/><text fill="#000000" font-family="sans-serif" font-size="13" lengthAdjust="spacingAndGlyphs" textLength="47" x="763" y="570.9639">delete ()</text><line style="stroke: #A80036; stroke-width: 1.0;" x1="1067" x2="1109" y1="606.1719" y2="606.1719"/><line style="stroke: #A80036; stroke-width: 1.0;" x1="1109" x2="1109" y1="606.1719" y2="619.1719"/><line style="stroke: #A80036; stroke-width: 1.0;" x1="1068" x2="1109" y1="619.1719" y2="619.1719"/><polygon fill="#A80036" points="1078,615.1719,1068,619.1719,1078,623.1719,1074,619.1719" style="stroke: #A80036; stroke-width: 1.0;"/><text fill="#000000" font-family="sans-serif" font-size="13" lengthAdjust="spacingAndGlyphs" textLength="154" x="1074" y="601.3154">deleteRelatedReservation()</text><polygon fill="#A80036" points="409.5,645.5234,399.5,649.5234,409.5,653.5234,405.5,649.5234" style="stroke: #A80036; stroke-width: 1.0;"/><line style="stroke: #A80036; stroke-width: 1.0;" x1="403.5" x2="755" y1="649.5234" y2="649.5234"/><text fill="#000000" font-family="sans-serif" font-size="13" lengthAdjust="spacingAndGlyphs" textLength="130" x="415.5" y="644.667">[GET]/performance/list</text><line style="stroke: #000000; stroke-width: 1.0; stroke-dasharray: 2.0,2.0;" x1="13" x2="1240" y1="658.5234" y2="658.5234"/><polygon fill="#A80036" points="152.5,677.875,162.5,681.875,152.5,685.875,156.5,681.875" style="stroke: #A80036; stroke-width: 1.0;"/><line style="stroke: #A80036; stroke-width: 1.0;" x1="45.5" x2="158.5" y1="681.875" y2="681.875"/><text fill="#000000" font-family="sans-serif" font-size="13" lengthAdjust="spacingAndGlyphs" textLength="46" x="52.5" y="677.0186">cancel()</text><polygon fill="#A80036" points="386.5,708.2266,396.5,712.2266,386.5,716.2266,390.5,712.2266" style="stroke: #A80036; stroke-width: 1.0;"/><line style="stroke: #A80036; stroke-width: 1.0;" x1="164.5" x2="392.5" y1="712.2266" y2="712.2266"/><text fill="#000000" font-family="sans-serif" font-size="13" lengthAdjust="spacingAndGlyphs" textLength="130" x="171.5" y="707.3701">[GET]/performance/list</text><rect fill="#FFFFFF" filter="url(#f1jv2h25i3n3c7)" height="42.7031" style="stroke: #000000; stroke-width: 2.0;" width="167" x="359" y="727.2266"/><polygon fill="#EEEEEE" points="359,727.2266,421,727.2266,421,735.2266,411,745.2266,359,745.2266,359,727.2266" style="stroke: #000000; stroke-width: 2.0;"/><text fill="#000000" font-family="sans-serif" font-size="13" font-weight="bold" lengthAdjust="spacingAndGlyphs" textLength="17" x="372" y="742.7217">ref</text><text fill="#000000" font-family="sans-serif" font-size="13" lengthAdjust="spacingAndGlyphs" textLength="159" x="365" y="762.7217">SD_PERFORMANCE_LIST</text><!--
@startuml SD_PERFORMANCE_DELETE
title SD_PERFORMANCE_DELETE
hide footbox
Actor "Admin" as A
Participant ":PerformanceDeleteView" as PV
Participant ":Routeur" as R
Participant ":PerformanceController" as PC
Participant ":PerformanceController" as PC2
Participant "Performance"  as P <<class>>
Participant "performance : Performance" as p

-> R : [GET]/performance/delete/<idPerf>
create PC
R -> PC : delete(idPerf)
PC -> P : getPerformance(idPerf) : Performance
P - -> PC : performance
create PV
PC -> PV : new(performance)
alt
A -> PV : confirm()
PV -> R : [POST]/performance/delete/<idPerf>
create PC2
R -> PC2 : delete(idPerf)
PC2 -> P : getPerformance(idPerf)
create p
P -> p : new()
P - -> PC2 : performance
PC2 -> p : delete ()
p -> p : deleteRelatedReservation()
PC2 -> R : [GET]/performance/list
else
A -> PV : cancel()
PV -> R : [GET]/performance/list
end
ref over R : SD_PERFORMANCE_LIST
@enduml

PlantUML version 1.2019.09(Mon Aug 26 18:19:51 CEST 2019)
(GPL source distribution)
Java Runtime: Java(TM) SE Runtime Environment
JVM: Java HotSpot(TM) 64-Bit Server VM
Java Version: 1.8.0_221-b11
Operating System: Windows 10
OS Version: 10.0
Default Encoding: Cp1252
Language: fr
Country: FR
--></g></svg>