<?xml version="1.0" encoding="UTF-8" standalone="no"?><svg xmlns="http://www.w3.org/2000/svg" xmlns:xlink="http://www.w3.org/1999/xlink" contentScriptType="application/ecmascript" contentStyleType="text/css" height="807px" preserveAspectRatio="none" style="width:886px;height:807px;" version="1.1" viewBox="0 0 886 807" width="886px" zoomAndPan="magnify"><defs><filter height="300%" id="f9wc5aq577x1t" width="300%" x="-1" y="-1"><feGaussianBlur result="blurOut" stdDeviation="2.0"/><feColorMatrix in="blurOut" result="blurOut2" type="matrix" values="0 0 0 0 0 0 0 0 0 0 0 0 0 0 0 0 0 0 .4 0"/><feOffset dx="4.0" dy="4.0" in="blurOut2" result="blurOut3"/><feBlend in="SourceGraphic" in2="blurOut3" mode="normal"/></filter></defs><g><text fill="#000000" font-family="sans-serif" font-size="14" font-weight="bold" lengthAdjust="spacingAndGlyphs" textLength="153" x="367" y="24.5332">SD_CUSTOMER_READ</text><rect fill="#FEFECE" filter="url(#f9wc5aq577x1t)" height="31.6094" style="stroke: #A80036; stroke-width: 1.5;" width="145" x="521" y="159.5703"/><text fill="#000000" font-family="sans-serif" font-size="14" lengthAdjust="spacingAndGlyphs" textLength="131" x="528" y="181.1035">: CustomerController</text><rect fill="#FEFECE" filter="url(#f9wc5aq577x1t)" height="31.6094" style="stroke: #A80036; stroke-width: 1.5;" width="146" x="78" y="266.8828"/><text fill="#000000" font-family="sans-serif" font-size="14" lengthAdjust="spacingAndGlyphs" textLength="132" x="85" y="288.416">: CustomerReadView</text><rect fill="#FFFFFF" filter="url(#f9wc5aq577x1t)" height="457.9766" style="stroke: #000000; stroke-width: 2.0;" width="429.5" x="13" y="320.4922"/><rect fill="#FFFFFF" height="110.4063" style="stroke: none; stroke-width: 1.0;" width="429.5" x="13" y="447.25"/><rect fill="#FFFFFF" height="110.4063" style="stroke: none; stroke-width: 1.0;" width="429.5" x="13" y="557.6563"/><rect fill="#FFFFFF" height="110.4063" style="stroke: none; stroke-width: 1.0;" width="429.5" x="13" y="668.0625"/><line style="stroke: #A80036; stroke-width: 1.0; stroke-dasharray: 5.0,5.0;" x1="45" x2="45" y1="119.2188" y2="795.4688"/><line style="stroke: #A80036; stroke-width: 1.0; stroke-dasharray: 5.0,5.0;" x1="153" x2="153" y1="300.1875" y2="795.4688"/><line style="stroke: #A80036; stroke-width: 1.0; stroke-dasharray: 5.0,5.0;" x1="397.5" x2="397.5" y1="119.2188" y2="795.4688"/><line style="stroke: #A80036; stroke-width: 1.0; stroke-dasharray: 5.0,5.0;" x1="595" x2="595" y1="192.875" y2="795.4688"/><line style="stroke: #A80036; stroke-width: 1.0; stroke-dasharray: 5.0,5.0;" x1="839" x2="839" y1="119.2188" y2="795.4688"/><text fill="#000000" font-family="sans-serif" font-size="14" lengthAdjust="spacingAndGlyphs" textLength="39" x="23" y="116.1426">Admin</text><ellipse cx="45.5" cy="44.6094" fill="#FEFECE" filter="url(#f9wc5aq577x1t)" rx="8" ry="8" style="stroke: #A80036; stroke-width: 2.0;"/><path d="M45.5,52.6094 L45.5,79.6094 M32.5,60.6094 L58.5,60.6094 M45.5,79.6094 L32.5,94.6094 M45.5,79.6094 L58.5,94.6094 " fill="none" filter="url(#f9wc5aq577x1t)" style="stroke: #A80036; stroke-width: 2.0;"/><rect fill="#FEFECE" filter="url(#f9wc5aq577x1t)" height="31.6094" style="stroke: #A80036; stroke-width: 1.5;" width="65" x="363.5" y="82.6094"/><text fill="#000000" font-family="sans-serif" font-size="14" lengthAdjust="spacingAndGlyphs" textLength="51" x="370.5" y="104.1426">: Router</text><rect fill="#FEFECE" filter="url(#f9wc5aq577x1t)" height="49.2188" style="stroke: #A80036; stroke-width: 1.5;" width="75" x="800" y="65"/><text fill="#000000" font-family="sans-serif" font-size="14" font-style="italic" lengthAdjust="spacingAndGlyphs" textLength="48" x="813.5" y="86">«class»</text><text fill="#000000" font-family="sans-serif" font-size="14" lengthAdjust="spacingAndGlyphs" textLength="61" x="807" y="103.6094">Customer</text><polygon fill="#A80036" points="386,147.5703,396,151.5703,386,155.5703,390,151.5703" style="stroke: #A80036; stroke-width: 1.0;"/><line style="stroke: #A80036; stroke-width: 1.0;" x1="3" x2="392" y1="151.5703" y2="151.5703"/><text fill="#000000" font-family="sans-serif" font-size="13" lengthAdjust="spacingAndGlyphs" textLength="211" x="10" y="146.7139">[GET] /customer/read/&lt;idCustomer&gt;</text><polygon fill="#A80036" points="509,177.9219,519,181.9219,509,185.9219,513,181.9219" style="stroke: #A80036; stroke-width: 1.0;"/><line style="stroke: #A80036; stroke-width: 1.0;" x1="398" x2="515" y1="181.9219" y2="181.9219"/><text fill="#000000" font-family="sans-serif" font-size="13" lengthAdjust="spacingAndGlyphs" textLength="99" x="405" y="177.0654">read(idCustomer)</text><rect fill="#FEFECE" filter="url(#f9wc5aq577x1t)" height="31.6094" style="stroke: #A80036; stroke-width: 1.5;" width="145" x="521" y="159.5703"/><text fill="#000000" font-family="sans-serif" font-size="14" lengthAdjust="spacingAndGlyphs" textLength="131" x="528" y="181.1035">: CustomerController</text><polygon fill="#A80036" points="827.5,224.5313,837.5,228.5313,827.5,232.5313,831.5,228.5313" style="stroke: #A80036; stroke-width: 1.0;"/><line style="stroke: #A80036; stroke-width: 1.0;" x1="595.5" x2="833.5" y1="228.5313" y2="228.5313"/><text fill="#000000" font-family="sans-serif" font-size="13" lengthAdjust="spacingAndGlyphs" textLength="220" x="602.5" y="223.6748">getCustomer(idCustomer) :  Customer</text><polygon fill="#A80036" points="606.5,254.8828,596.5,258.8828,606.5,262.8828,602.5,258.8828" style="stroke: #A80036; stroke-width: 1.0;"/><line style="stroke: #A80036; stroke-width: 1.0; stroke-dasharray: 2.0,2.0;" x1="600.5" x2="838.5" y1="258.8828" y2="258.8828"/><text fill="#000000" font-family="sans-serif" font-size="13" lengthAdjust="spacingAndGlyphs" textLength="54" x="612.5" y="254.0264">customer</text><polygon fill="#A80036" points="239,285.2344,229,289.2344,239,293.2344,235,289.2344" style="stroke: #A80036; stroke-width: 1.0;"/><line style="stroke: #A80036; stroke-width: 1.0;" x1="233" x2="594.5" y1="289.2344" y2="289.2344"/><text fill="#000000" font-family="sans-serif" font-size="13" lengthAdjust="spacingAndGlyphs" textLength="85" x="245" y="284.3779">new(customer)</text><rect fill="#FEFECE" filter="url(#f9wc5aq577x1t)" height="31.6094" style="stroke: #A80036; stroke-width: 1.5;" width="146" x="78" y="266.8828"/><text fill="#000000" font-family="sans-serif" font-size="14" lengthAdjust="spacingAndGlyphs" textLength="132" x="85" y="288.416">: CustomerReadView</text><path d="M13,320.4922 L74,320.4922 L74,328.4922 L64,338.4922 L13,338.4922 L13,320.4922 " fill="#EEEEEE" style="stroke: #000000; stroke-width: 1.0;"/><rect fill="none" height="457.9766" style="stroke: #000000; stroke-width: 2.0;" width="429.5" x="13" y="320.4922"/><text fill="#000000" font-family="sans-serif" font-size="13" font-weight="bold" lengthAdjust="spacingAndGlyphs" textLength="16" x="28" y="334.9873">alt</text><polygon fill="#A80036" points="141,357.1953,151,361.1953,141,365.1953,145,361.1953" style="stroke: #A80036; stroke-width: 1.0;"/><line style="stroke: #A80036; stroke-width: 1.0;" x1="45.5" x2="147" y1="361.1953" y2="361.1953"/><text fill="#000000" font-family="sans-serif" font-size="13" lengthAdjust="spacingAndGlyphs" textLength="43" x="52.5" y="356.3389">delete()</text><polygon fill="#A80036" points="386,387.5469,396,391.5469,386,395.5469,390,391.5469" style="stroke: #A80036; stroke-width: 1.0;"/><line style="stroke: #A80036; stroke-width: 1.0;" x1="153" x2="392" y1="391.5469" y2="391.5469"/><text fill="#000000" font-family="sans-serif" font-size="13" lengthAdjust="spacingAndGlyphs" textLength="221" x="160" y="386.6904">[GET] /customer/delete/&lt;idCustomer&gt;</text><rect fill="#FFFFFF" filter="url(#f9wc5aq577x1t)" height="42.7031" style="stroke: #000000; stroke-width: 2.0;" width="163" x="360.5" y="399.5469"/><polygon fill="#EEEEEE" points="360.5,399.5469,422.5,399.5469,422.5,407.5469,412.5,417.5469,360.5,417.5469,360.5,399.5469" style="stroke: #000000; stroke-width: 2.0;"/><text fill="#000000" font-family="sans-serif" font-size="13" font-weight="bold" lengthAdjust="spacingAndGlyphs" textLength="17" x="373.5" y="415.042">ref</text><text fill="#000000" font-family="sans-serif" font-size="13" lengthAdjust="spacingAndGlyphs" textLength="155" x="366.5" y="435.042">SD_CUSTOMER_DELETE</text><line style="stroke: #000000; stroke-width: 1.0; stroke-dasharray: 2.0,2.0;" x1="13" x2="442.5" y1="448.25" y2="448.25"/><polygon fill="#A80036" points="141,467.6016,151,471.6016,141,475.6016,145,471.6016" style="stroke: #A80036; stroke-width: 1.0;"/><line style="stroke: #A80036; stroke-width: 1.0;" x1="45.5" x2="147" y1="471.6016" y2="471.6016"/><text fill="#000000" font-family="sans-serif" font-size="13" lengthAdjust="spacingAndGlyphs" textLength="47" x="52.5" y="466.7451">update()</text><polygon fill="#A80036" points="386,497.9531,396,501.9531,386,505.9531,390,501.9531" style="stroke: #A80036; stroke-width: 1.0;"/><line style="stroke: #A80036; stroke-width: 1.0;" x1="153" x2="392" y1="501.9531" y2="501.9531"/><text fill="#000000" font-family="sans-serif" font-size="13" lengthAdjust="spacingAndGlyphs" textLength="221" x="160" y="497.0967">[GET]/customer/update/&lt;idCustomer&gt;</text><rect fill="#FFFFFF" filter="url(#f9wc5aq577x1t)" height="42.7031" style="stroke: #000000; stroke-width: 2.0;" width="165" x="360.5" y="509.9531"/><polygon fill="#EEEEEE" points="360.5,509.9531,422.5,509.9531,422.5,517.9531,412.5,527.9531,360.5,527.9531,360.5,509.9531" style="stroke: #000000; stroke-width: 2.0;"/><text fill="#000000" font-family="sans-serif" font-size="13" font-weight="bold" lengthAdjust="spacingAndGlyphs" textLength="17" x="373.5" y="525.4482">ref</text><text fill="#000000" font-family="sans-serif" font-size="13" lengthAdjust="spacingAndGlyphs" textLength="157" x="366.5" y="545.4482">SD_CUSTOMER_UPDATE</text><line style="stroke: #000000; stroke-width: 1.0; stroke-dasharray: 2.0,2.0;" x1="13" x2="442.5" y1="558.6563" y2="558.6563"/><polygon fill="#A80036" points="141,578.0078,151,582.0078,141,586.0078,145,582.0078" style="stroke: #A80036; stroke-width: 1.0;"/><line style="stroke: #A80036; stroke-width: 1.0;" x1="45.5" x2="147" y1="582.0078" y2="582.0078"/><text fill="#000000" font-family="sans-serif" font-size="13" lengthAdjust="spacingAndGlyphs" textLength="29" x="52.5" y="577.1514">list ()</text><polygon fill="#A80036" points="386,608.3594,396,612.3594,386,616.3594,390,612.3594" style="stroke: #A80036; stroke-width: 1.0;"/><line style="stroke: #A80036; stroke-width: 1.0;" x1="153" x2="392" y1="612.3594" y2="612.3594"/><text fill="#000000" font-family="sans-serif" font-size="13" lengthAdjust="spacingAndGlyphs" textLength="207" x="160" y="607.5029">[GET]/reservation/list/&lt;idCustomer&gt;</text><rect fill="#FFFFFF" filter="url(#f9wc5aq577x1t)" height="42.7031" style="stroke: #000000; stroke-width: 2.0;" width="158" x="360.5" y="620.3594"/><polygon fill="#EEEEEE" points="360.5,620.3594,422.5,620.3594,422.5,628.3594,412.5,638.3594,360.5,638.3594,360.5,620.3594" style="stroke: #000000; stroke-width: 2.0;"/><text fill="#000000" font-family="sans-serif" font-size="13" font-weight="bold" lengthAdjust="spacingAndGlyphs" textLength="17" x="373.5" y="635.8545">ref</text><text fill="#000000" font-family="sans-serif" font-size="13" lengthAdjust="spacingAndGlyphs" textLength="150" x="366.5" y="655.8545">SD_RESERVATION_LIST</text><line style="stroke: #000000; stroke-width: 1.0; stroke-dasharray: 2.0,2.0;" x1="13" x2="442.5" y1="669.0625" y2="669.0625"/><polygon fill="#A80036" points="141,688.4141,151,692.4141,141,696.4141,145,692.4141" style="stroke: #A80036; stroke-width: 1.0;"/><line style="stroke: #A80036; stroke-width: 1.0;" x1="45.5" x2="147" y1="692.4141" y2="692.4141"/><text fill="#000000" font-family="sans-serif" font-size="13" lengthAdjust="spacingAndGlyphs" textLength="36" x="52.5" y="687.5576">back()</text><polygon fill="#A80036" points="386,718.7656,396,722.7656,386,726.7656,390,722.7656" style="stroke: #A80036; stroke-width: 1.0;"/><line style="stroke: #A80036; stroke-width: 1.0;" x1="153" x2="392" y1="722.7656" y2="722.7656"/><text fill="#000000" font-family="sans-serif" font-size="13" lengthAdjust="spacingAndGlyphs" textLength="113" x="160" y="717.9092">[GET]/customer/list</text><rect fill="#FFFFFF" filter="url(#f9wc5aq577x1t)" height="42.7031" style="stroke: #000000; stroke-width: 2.0;" width="139" x="360.5" y="730.7656"/><polygon fill="#EEEEEE" points="360.5,730.7656,422.5,730.7656,422.5,738.7656,412.5,748.7656,360.5,748.7656,360.5,730.7656" style="stroke: #000000; stroke-width: 2.0;"/><text fill="#000000" font-family="sans-serif" font-size="13" font-weight="bold" lengthAdjust="spacingAndGlyphs" textLength="17" x="373.5" y="746.2607">ref</text><text fill="#000000" font-family="sans-serif" font-size="13" lengthAdjust="spacingAndGlyphs" textLength="131" x="366.5" y="766.2607">SD_CUSTOMER_LIST</text><!--
@startuml SD_CUSTOMER_READ

title SD_CUSTOMER_READ

hide footbox

actor Admin as A
participant ": CustomerReadView" as V
participant ": Router" as R
participant ": CustomerController" as C
participant "Customer" as EC <<class>>

-> R : [GET] /customer/read/<idCustomer>

create C
R -> C : read(idCustomer)


C -> EC : getCustomer(idCustomer) :  Customer
EC - -> C : customer

create V
C -> V : new(customer)

alt 
A -> V : delete()

V -> R : [GET] /customer/delete/<idCustomer>
ref over R : SD_CUSTOMER_DELETE

else
A -> V : update()
V -> R : [GET]/customer/update/<idCustomer>
ref over R : SD_CUSTOMER_UPDATE

else
A -> V : list ()
V -> R : [GET]/reservation/list/<idCustomer>
ref over R : SD_RESERVATION_LIST
else 
A -> V : back()
V -> R : [GET]/customer/list
ref over R : SD_CUSTOMER_LIST
end

@enduml

PlantUML version 1.2019.09(Mon Aug 26 18:19:51 CEST 2019)
(GPL source distribution)
Java Runtime: Java(TM) SE Runtime Environment
JVM: Java HotSpot(TM) 64-Bit Server VM
Java Version: 1.8.0_221-b11
Operating System: Windows 10
OS Version: 10.0
Default Encoding: Cp1252
Language: fr
Country: FR
--></g></svg>