<?xml version="1.0" encoding="UTF-8" standalone="no"?><svg xmlns="http://www.w3.org/2000/svg" xmlns:xlink="http://www.w3.org/1999/xlink" contentScriptType="application/ecmascript" contentStyleType="text/css" height="946px" preserveAspectRatio="none" style="width:1148px;height:946px;" version="1.1" viewBox="0 0 1148 946" width="1148px" zoomAndPan="magnify"><defs><filter height="300%" id="fk1jl327fwoe2" width="300%" x="-1" y="-1"><feGaussianBlur result="blurOut" stdDeviation="2.0"/><feColorMatrix in="blurOut" result="blurOut2" type="matrix" values="0 0 0 0 0 0 0 0 0 0 0 0 0 0 0 0 0 0 .4 0"/><feOffset dx="4.0" dy="4.0" in="blurOut2" result="blurOut3"/><feBlend in="SourceGraphic" in2="blurOut3" mode="normal"/></filter></defs><g><text fill="#000000" font-family="sans-serif" font-size="14" font-weight="bold" lengthAdjust="spacingAndGlyphs" textLength="170" x="489.75" y="24.5332">SD_CUSTOMER_CREATE</text><rect fill="#FEFECE" filter="url(#fk1jl327fwoe2)" height="31.6094" style="stroke: #A80036; stroke-width: 1.5;" width="141" x="578.5" y="159.5703"/><text fill="#000000" font-family="sans-serif" font-size="14" lengthAdjust="spacingAndGlyphs" textLength="127" x="585.5" y="181.1035">:CustomerController</text><rect fill="#FEFECE" filter="url(#fk1jl327fwoe2)" height="31.6094" style="stroke: #A80036; stroke-width: 1.5;" width="151" x="144" y="206.1797"/><text fill="#000000" font-family="sans-serif" font-size="14" lengthAdjust="spacingAndGlyphs" textLength="137" x="151" y="227.7129">:CustomerCreateView</text><rect fill="#FEFECE" filter="url(#fk1jl327fwoe2)" height="31.6094" style="stroke: #A80036; stroke-width: 1.5;" width="141" x="733.5" y="525.9531"/><text fill="#000000" font-family="sans-serif" font-size="14" lengthAdjust="spacingAndGlyphs" textLength="127" x="740.5" y="547.4863">:CustomerController</text><rect fill="#FEFECE" filter="url(#fk1jl327fwoe2)" height="31.6094" style="stroke: #A80036; stroke-width: 1.5;" width="145" x="977.5" y="572.5625"/><text fill="#000000" font-family="sans-serif" font-size="14" lengthAdjust="spacingAndGlyphs" textLength="131" x="984.5" y="594.0957">customer : Customer</text><rect fill="#FFFFFF" filter="url(#fk1jl327fwoe2)" height="230.7188" style="stroke: #000000; stroke-width: 2.0;" width="1123.5" x="13" y="686.875"/><rect fill="#FFFFFF" height="103.9609" style="stroke: none; stroke-width: 1.0;" width="1123.5" x="13" y="813.6328"/><rect fill="#FEFECE" filter="url(#fk1jl327fwoe2)" height="31.6094" style="stroke: #A80036; stroke-width: 1.5;" width="151" x="309" y="840.6328"/><text fill="#000000" font-family="sans-serif" font-size="14" lengthAdjust="spacingAndGlyphs" textLength="137" x="316" y="862.166">:CustomerCreateView</text><line style="stroke: #A80036; stroke-width: 1.0; stroke-dasharray: 5.0,5.0;" x1="45" x2="45" y1="119.2188" y2="934.5938"/><line style="stroke: #A80036; stroke-width: 1.0; stroke-dasharray: 5.0,5.0;" x1="221" x2="221" y1="239.4844" y2="934.5938"/><line style="stroke: #A80036; stroke-width: 1.0; stroke-dasharray: 5.0,5.0;" x1="386" x2="386" y1="873.9375" y2="934.5938"/><line style="stroke: #A80036; stroke-width: 1.0; stroke-dasharray: 5.0,5.0;" x1="510" x2="510" y1="119.2188" y2="934.5938"/><line style="stroke: #A80036; stroke-width: 1.0; stroke-dasharray: 5.0,5.0;" x1="650.5" x2="650.5" y1="192.875" y2="934.5938"/><line style="stroke: #A80036; stroke-width: 1.0; stroke-dasharray: 5.0,5.0;" x1="805.5" x2="805.5" y1="559.2578" y2="934.5938"/><line style="stroke: #A80036; stroke-width: 1.0; stroke-dasharray: 5.0,5.0;" x1="927.5" x2="927.5" y1="119.2188" y2="934.5938"/><line style="stroke: #A80036; stroke-width: 1.0; stroke-dasharray: 5.0,5.0;" x1="1051.5" x2="1051.5" y1="605.8672" y2="934.5938"/><text fill="#000000" font-family="sans-serif" font-size="14" lengthAdjust="spacingAndGlyphs" textLength="39" x="23" y="116.1426">Admin</text><ellipse cx="45.5" cy="44.6094" fill="#FEFECE" filter="url(#fk1jl327fwoe2)" rx="8" ry="8" style="stroke: #A80036; stroke-width: 2.0;"/><path d="M45.5,52.6094 L45.5,79.6094 M32.5,60.6094 L58.5,60.6094 M45.5,79.6094 L32.5,94.6094 M45.5,79.6094 L58.5,94.6094 " fill="none" filter="url(#fk1jl327fwoe2)" style="stroke: #A80036; stroke-width: 2.0;"/><rect fill="#FEFECE" filter="url(#fk1jl327fwoe2)" height="31.6094" style="stroke: #A80036; stroke-width: 1.5;" width="69" x="474" y="82.6094"/><text fill="#000000" font-family="sans-serif" font-size="14" lengthAdjust="spacingAndGlyphs" textLength="55" x="481" y="104.1426">:Routeur</text><rect fill="#FEFECE" filter="url(#fk1jl327fwoe2)" height="49.2188" style="stroke: #A80036; stroke-width: 1.5;" width="75" x="888.5" y="65"/><text fill="#000000" font-family="sans-serif" font-size="14" font-style="italic" lengthAdjust="spacingAndGlyphs" textLength="48" x="902" y="86">«class»</text><text fill="#000000" font-family="sans-serif" font-size="14" lengthAdjust="spacingAndGlyphs" textLength="61" x="895.5" y="103.6094">Customer</text><polygon fill="#A80036" points="498.5,147.5703,508.5,151.5703,498.5,155.5703,502.5,151.5703" style="stroke: #A80036; stroke-width: 1.0;"/><line style="stroke: #A80036; stroke-width: 1.0;" x1="3" x2="504.5" y1="151.5703" y2="151.5703"/><text fill="#000000" font-family="sans-serif" font-size="13" lengthAdjust="spacingAndGlyphs" textLength="136" x="10" y="146.7139">[GET]/customer/create/</text><polygon fill="#A80036" points="566.5,177.9219,576.5,181.9219,566.5,185.9219,570.5,181.9219" style="stroke: #A80036; stroke-width: 1.0;"/><line style="stroke: #A80036; stroke-width: 1.0;" x1="510.5" x2="572.5" y1="181.9219" y2="181.9219"/><text fill="#000000" font-family="sans-serif" font-size="13" lengthAdjust="spacingAndGlyphs" textLength="44" x="517.5" y="177.0654">create()</text><rect fill="#FEFECE" filter="url(#fk1jl327fwoe2)" height="31.6094" style="stroke: #A80036; stroke-width: 1.5;" width="141" x="578.5" y="159.5703"/><text fill="#000000" font-family="sans-serif" font-size="14" lengthAdjust="spacingAndGlyphs" textLength="127" x="585.5" y="181.1035">:CustomerController</text><polygon fill="#A80036" points="310,224.5313,300,228.5313,310,232.5313,306,228.5313" style="stroke: #A80036; stroke-width: 1.0;"/><line style="stroke: #A80036; stroke-width: 1.0;" x1="304" x2="650" y1="228.5313" y2="228.5313"/><text fill="#000000" font-family="sans-serif" font-size="13" lengthAdjust="spacingAndGlyphs" textLength="31" x="316" y="223.6748">new()</text><rect fill="#FEFECE" filter="url(#fk1jl327fwoe2)" height="31.6094" style="stroke: #A80036; stroke-width: 1.5;" width="151" x="144" y="206.1797"/><text fill="#000000" font-family="sans-serif" font-size="14" lengthAdjust="spacingAndGlyphs" textLength="137" x="151" y="227.7129">:CustomerCreateView</text><polygon fill="#A80036" points="209.5,271.1406,219.5,275.1406,209.5,279.1406,213.5,275.1406" style="stroke: #A80036; stroke-width: 1.0;"/><line style="stroke: #A80036; stroke-width: 1.0;" x1="45.5" x2="215.5" y1="275.1406" y2="275.1406"/><text fill="#000000" font-family="sans-serif" font-size="13" lengthAdjust="spacingAndGlyphs" textLength="145" x="52.5" y="270.2842">setFirstName(val : string)</text><polygon fill="#A80036" points="209.5,301.4922,219.5,305.4922,209.5,309.4922,213.5,305.4922" style="stroke: #A80036; stroke-width: 1.0;"/><line style="stroke: #A80036; stroke-width: 1.0;" x1="45.5" x2="215.5" y1="305.4922" y2="305.4922"/><text fill="#000000" font-family="sans-serif" font-size="13" lengthAdjust="spacingAndGlyphs" textLength="144" x="52.5" y="300.6357">setLastName(val : string)</text><polygon fill="#A80036" points="209.5,331.8438,219.5,335.8438,209.5,339.8438,213.5,335.8438" style="stroke: #A80036; stroke-width: 1.0;"/><line style="stroke: #A80036; stroke-width: 1.0;" x1="45.5" x2="215.5" y1="335.8438" y2="335.8438"/><text fill="#000000" font-family="sans-serif" font-size="13" lengthAdjust="spacingAndGlyphs" textLength="133" x="52.5" y="330.9873">setAddress(val : string)</text><polygon fill="#A80036" points="209.5,362.1953,219.5,366.1953,209.5,370.1953,213.5,366.1953" style="stroke: #A80036; stroke-width: 1.0;"/><line style="stroke: #A80036; stroke-width: 1.0;" x1="45.5" x2="215.5" y1="366.1953" y2="366.1953"/><text fill="#000000" font-family="sans-serif" font-size="13" lengthAdjust="spacingAndGlyphs" textLength="108" x="52.5" y="361.3389">setCity(val : string)</text><polygon fill="#A80036" points="209.5,392.5469,219.5,396.5469,209.5,400.5469,213.5,396.5469" style="stroke: #A80036; stroke-width: 1.0;"/><line style="stroke: #A80036; stroke-width: 1.0;" x1="45.5" x2="215.5" y1="396.5469" y2="396.5469"/><text fill="#000000" font-family="sans-serif" font-size="13" lengthAdjust="spacingAndGlyphs" textLength="104" x="52.5" y="391.6904">setZIP(val : string)</text><polygon fill="#A80036" points="209.5,422.8984,219.5,426.8984,209.5,430.8984,213.5,426.8984" style="stroke: #A80036; stroke-width: 1.0;"/><line style="stroke: #A80036; stroke-width: 1.0;" x1="45.5" x2="215.5" y1="426.8984" y2="426.8984"/><text fill="#000000" font-family="sans-serif" font-size="13" lengthAdjust="spacingAndGlyphs" textLength="130" x="52.5" y="422.042">setCountry(val : string)</text><polygon fill="#A80036" points="209.5,453.25,219.5,457.25,209.5,461.25,213.5,457.25" style="stroke: #A80036; stroke-width: 1.0;"/><line style="stroke: #A80036; stroke-width: 1.0;" x1="45.5" x2="215.5" y1="457.25" y2="457.25"/><text fill="#000000" font-family="sans-serif" font-size="13" lengthAdjust="spacingAndGlyphs" textLength="152" x="52.5" y="452.3936">setDateOfBirth(val : string)</text><polygon fill="#A80036" points="209.5,483.6016,219.5,487.6016,209.5,491.6016,213.5,487.6016" style="stroke: #A80036; stroke-width: 1.0;"/><line style="stroke: #A80036; stroke-width: 1.0;" x1="45.5" x2="215.5" y1="487.6016" y2="487.6016"/><text fill="#000000" font-family="sans-serif" font-size="13" lengthAdjust="spacingAndGlyphs" textLength="44" x="52.5" y="482.7451">create()</text><polygon fill="#A80036" points="498.5,513.9531,508.5,517.9531,498.5,521.9531,502.5,517.9531" style="stroke: #A80036; stroke-width: 1.0;"/><line style="stroke: #A80036; stroke-width: 1.0;" x1="221.5" x2="504.5" y1="517.9531" y2="517.9531"/><text fill="#000000" font-family="sans-serif" font-size="13" lengthAdjust="spacingAndGlyphs" textLength="156" x="228.5" y="513.0967">[GET]/customer/create {...}</text><polygon fill="#A80036" points="721.5,544.3047,731.5,548.3047,721.5,552.3047,725.5,548.3047" style="stroke: #A80036; stroke-width: 1.0;"/><line style="stroke: #A80036; stroke-width: 1.0;" x1="510.5" x2="727.5" y1="548.3047" y2="548.3047"/><text fill="#000000" font-family="sans-serif" font-size="13" lengthAdjust="spacingAndGlyphs" textLength="56" x="517.5" y="543.4482">create(...)</text><rect fill="#FEFECE" filter="url(#fk1jl327fwoe2)" height="31.6094" style="stroke: #A80036; stroke-width: 1.5;" width="141" x="733.5" y="525.9531"/><text fill="#000000" font-family="sans-serif" font-size="14" lengthAdjust="spacingAndGlyphs" textLength="127" x="740.5" y="547.4863">:CustomerController</text><polygon fill="#A80036" points="965.5,590.9141,975.5,594.9141,965.5,598.9141,969.5,594.9141" style="stroke: #A80036; stroke-width: 1.0;"/><line style="stroke: #A80036; stroke-width: 1.0;" x1="806" x2="971.5" y1="594.9141" y2="594.9141"/><text fill="#000000" font-family="sans-serif" font-size="13" lengthAdjust="spacingAndGlyphs" textLength="43" x="813" y="590.0576">new(...)</text><rect fill="#FEFECE" filter="url(#fk1jl327fwoe2)" height="31.6094" style="stroke: #A80036; stroke-width: 1.5;" width="145" x="977.5" y="572.5625"/><text fill="#000000" font-family="sans-serif" font-size="14" lengthAdjust="spacingAndGlyphs" textLength="131" x="984.5" y="594.0957">customer : Customer</text><polygon fill="#A80036" points="1040,637.5234,1050,641.5234,1040,645.5234,1044,641.5234" style="stroke: #A80036; stroke-width: 1.0;"/><line style="stroke: #A80036; stroke-width: 1.0;" x1="806" x2="1046" y1="641.5234" y2="641.5234"/><text fill="#000000" font-family="sans-serif" font-size="13" lengthAdjust="spacingAndGlyphs" textLength="126" x="813" y="636.667">validateData() : Error[]</text><polygon fill="#A80036" points="817,667.875,807,671.875,817,675.875,813,671.875" style="stroke: #A80036; stroke-width: 1.0;"/><line style="stroke: #A80036; stroke-width: 1.0; stroke-dasharray: 2.0,2.0;" x1="811" x2="1051" y1="671.875" y2="671.875"/><text fill="#000000" font-family="sans-serif" font-size="13" lengthAdjust="spacingAndGlyphs" textLength="33" x="823" y="667.0186">errors</text><path d="M13,686.875 L74,686.875 L74,694.875 L64,704.875 L13,704.875 L13,686.875 " fill="#EEEEEE" style="stroke: #000000; stroke-width: 1.0;"/><rect fill="none" height="230.7188" style="stroke: #000000; stroke-width: 2.0;" width="1123.5" x="13" y="686.875"/><text fill="#000000" font-family="sans-serif" font-size="13" font-weight="bold" lengthAdjust="spacingAndGlyphs" textLength="16" x="28" y="701.3701">alt</text><text fill="#000000" font-family="sans-serif" font-size="11" font-weight="bold" lengthAdjust="spacingAndGlyphs" textLength="70" x="89" y="700.2939">[errors == []]</text><polygon fill="#A80036" points="1040,723.5781,1050,727.5781,1040,731.5781,1044,727.5781" style="stroke: #A80036; stroke-width: 1.0;"/><line style="stroke: #A80036; stroke-width: 1.0;" x1="806" x2="1046" y1="727.5781" y2="727.5781"/><text fill="#000000" font-family="sans-serif" font-size="13" lengthAdjust="spacingAndGlyphs" textLength="34" x="813" y="722.7217">save()</text><polygon fill="#A80036" points="521.5,753.9297,511.5,757.9297,521.5,761.9297,517.5,757.9297" style="stroke: #A80036; stroke-width: 1.0;"/><line style="stroke: #A80036; stroke-width: 1.0;" x1="515.5" x2="805" y1="757.9297" y2="757.9297"/><text fill="#000000" font-family="sans-serif" font-size="13" lengthAdjust="spacingAndGlyphs" textLength="113" x="527.5" y="753.0732">[GET]/customer/list</text><rect fill="#FFFFFF" filter="url(#fk1jl327fwoe2)" height="42.7031" style="stroke: #000000; stroke-width: 2.0;" width="139" x="471" y="765.9297"/><polygon fill="#EEEEEE" points="471,765.9297,533,765.9297,533,773.9297,523,783.9297,471,783.9297,471,765.9297" style="stroke: #000000; stroke-width: 2.0;"/><text fill="#000000" font-family="sans-serif" font-size="13" font-weight="bold" lengthAdjust="spacingAndGlyphs" textLength="17" x="484" y="781.4248">ref</text><text fill="#000000" font-family="sans-serif" font-size="13" lengthAdjust="spacingAndGlyphs" textLength="131" x="477" y="801.4248">SD_CUSTOMER_LIST</text><line style="stroke: #000000; stroke-width: 1.0; stroke-dasharray: 2.0,2.0;" x1="13" x2="1136.5" y1="814.6328" y2="814.6328"/><polygon fill="#A80036" points="475,858.9844,465,862.9844,475,866.9844,471,862.9844" style="stroke: #A80036; stroke-width: 1.0;"/><line style="stroke: #A80036; stroke-width: 1.0;" x1="469" x2="805" y1="862.9844" y2="862.9844"/><text fill="#000000" font-family="sans-serif" font-size="13" lengthAdjust="spacingAndGlyphs" textLength="84" x="481" y="858.1279">new (errors,...)</text><rect fill="#FEFECE" filter="url(#fk1jl327fwoe2)" height="31.6094" style="stroke: #A80036; stroke-width: 1.5;" width="151" x="309" y="840.6328"/><text fill="#000000" font-family="sans-serif" font-size="14" lengthAdjust="spacingAndGlyphs" textLength="137" x="316" y="862.166">:CustomerCreateView</text><polygon fill="#A80036" points="374.5,905.5938,384.5,909.5938,374.5,913.5938,378.5,909.5938" style="stroke: #A80036; stroke-width: 1.0;"/><line style="stroke: #A80036; stroke-width: 1.0;" x1="45.5" x2="380.5" y1="909.5938" y2="909.5938"/><text fill="#000000" font-family="sans-serif" font-size="13" lengthAdjust="spacingAndGlyphs" textLength="52" x="52.5" y="904.7373">/* retry */</text><!--
@startuml SD_CUSTOMER_CREATE
    hide footbox
    title SD_CUSTOMER_CREATE
    Actor "Admin" as A 
    Participant ":CustomerCreateView" as CV
       Participant ":CustomerCreateView" as CV2
    Participant ":Routeur" as R
    Participant ":CustomerController" as C
      Participant ":CustomerController" as C2
      Participant "Customer" as c <<class>>
      Participant "customer : Customer" as cc

    -> R : [GET]/customer/create/
    create C
    R -> C : create()
    create CV
    C -> CV : new()
    A -> CV : setFirstName(val : string)
    A -> CV: setLastName(val : string)
    A -> CV : setAddress(val : string)
    A -> CV : setCity(val : string)
    A -> CV : setZIP(val : string)
    A -> CV : setCountry(val : string)
    A -> CV : setDateOfBirth(val : string)
    A -> CV : create()
    CV -> R : [GET]/customer/create {...}
    create C2 
    R -> C2 : create(...)
    create cc
    C2 -> cc : new(...)
    C2 -> cc : validateData() : Error[]
    cc - -> C2 : errors
    alt errors == []
        C2 -> cc : save()
        C2 -> R : [GET]/customer/list
        ref over R : SD_CUSTOMER_LIST
    else
    |||
        create CV2
        C2 -> CV2 : new (errors,...)
        A -> CV2 : /* retry */
    end

@enduml

PlantUML version 1.2019.09(Mon Aug 26 18:19:51 CEST 2019)
(GPL source distribution)
Java Runtime: Java(TM) SE Runtime Environment
JVM: Java HotSpot(TM) 64-Bit Server VM
Java Version: 1.8.0_221-b11
Operating System: Windows 10
OS Version: 10.0
Default Encoding: Cp1252
Language: fr
Country: FR
--></g></svg>