<?xml version="1.0" encoding="UTF-8" standalone="no"?><svg xmlns="http://www.w3.org/2000/svg" xmlns:xlink="http://www.w3.org/1999/xlink" contentScriptType="application/ecmascript" contentStyleType="text/css" height="532px" preserveAspectRatio="none" style="width:373px;height:532px;" version="1.1" viewBox="0 0 373 532" width="373px" zoomAndPan="magnify"><defs><filter height="300%" id="fow9bqhr0t9sp" width="300%" x="-1" y="-1"><feGaussianBlur result="blurOut" stdDeviation="2.0"/><feColorMatrix in="blurOut" result="blurOut2" type="matrix" values="0 0 0 0 0 0 0 0 0 0 0 0 0 0 0 0 0 0 .4 0"/><feOffset dx="4.0" dy="4.0" in="blurOut2" result="blurOut3"/><feBlend in="SourceGraphic" in2="blurOut3" mode="normal"/></filter></defs><g><text fill="#000000" font-family="sans-serif" font-size="14" font-weight="bold" lengthAdjust="spacingAndGlyphs" textLength="162" x="104.75" y="24.5332">SSD_CUSTOMER_READ</text><rect fill="#FFFFFF" filter="url(#fow9bqhr0t9sp)" height="336.5703" style="stroke: #000000; stroke-width: 2.0;" width="252.5" x="13" y="166.5703"/><rect fill="#FFFFFF" height="80.0547" style="stroke: none; stroke-width: 1.0;" width="252.5" x="13" y="262.9766"/><rect fill="#FFFFFF" height="80.0547" style="stroke: none; stroke-width: 1.0;" width="252.5" x="13" y="343.0313"/><rect fill="#FFFFFF" height="80.0547" style="stroke: none; stroke-width: 1.0;" width="252.5" x="13" y="423.0859"/><line style="stroke: #A80036; stroke-width: 1.0; stroke-dasharray: 5.0,5.0;" x1="45" x2="45" y1="119.2188" y2="520.1406"/><line style="stroke: #A80036; stroke-width: 1.0; stroke-dasharray: 5.0,5.0;" x1="223.5" x2="223.5" y1="119.2188" y2="520.1406"/><text fill="#000000" font-family="sans-serif" font-size="14" lengthAdjust="spacingAndGlyphs" textLength="39" x="23" y="116.1426">Admin</text><ellipse cx="45.5" cy="44.6094" fill="#FEFECE" filter="url(#fow9bqhr0t9sp)" rx="8" ry="8" style="stroke: #A80036; stroke-width: 2.0;"/><path d="M45.5,52.6094 L45.5,79.6094 M32.5,60.6094 L58.5,60.6094 M45.5,79.6094 L32.5,94.6094 M45.5,79.6094 L58.5,94.6094 " fill="none" filter="url(#fow9bqhr0t9sp)" style="stroke: #A80036; stroke-width: 2.0;"/><rect fill="#FEFECE" filter="url(#fow9bqhr0t9sp)" height="31.6094" style="stroke: #A80036; stroke-width: 1.5;" width="60" x="191.5" y="82.6094"/><text fill="#000000" font-family="sans-serif" font-size="14" lengthAdjust="spacingAndGlyphs" textLength="46" x="198.5" y="104.1426">System</text><polygon fill="#A80036" points="56.5,147.5703,46.5,151.5703,56.5,155.5703,52.5,151.5703" style="stroke: #A80036; stroke-width: 1.0;"/><line style="stroke: #A80036; stroke-width: 1.0;" x1="50.5" x2="222.5" y1="151.5703" y2="151.5703"/><text fill="#000000" font-family="sans-serif" font-size="13" lengthAdjust="spacingAndGlyphs" textLength="132" x="62.5" y="146.7139">Display Customer data</text><path d="M13,166.5703 L74,166.5703 L74,174.5703 L64,184.5703 L13,184.5703 L13,166.5703 " fill="#EEEEEE" style="stroke: #000000; stroke-width: 1.0;"/><rect fill="none" height="336.5703" style="stroke: #000000; stroke-width: 2.0;" width="252.5" x="13" y="166.5703"/><text fill="#000000" font-family="sans-serif" font-size="13" font-weight="bold" lengthAdjust="spacingAndGlyphs" textLength="16" x="28" y="181.0654">alt</text><polygon fill="#A80036" points="211.5,203.2734,221.5,207.2734,211.5,211.2734,215.5,207.2734" style="stroke: #A80036; stroke-width: 1.0;"/><line style="stroke: #A80036; stroke-width: 1.0;" x1="45.5" x2="217.5" y1="207.2734" y2="207.2734"/><text fill="#000000" font-family="sans-serif" font-size="13" lengthAdjust="spacingAndGlyphs" textLength="110" x="52.5" y="202.417">Click delete Button</text><rect fill="#FFFFFF" filter="url(#fow9bqhr0t9sp)" height="42.7031" style="stroke: #000000; stroke-width: 2.0;" width="172" x="188.5" y="215.2734"/><polygon fill="#EEEEEE" points="188.5,215.2734,250.5,215.2734,250.5,223.2734,240.5,233.2734,188.5,233.2734,188.5,215.2734" style="stroke: #000000; stroke-width: 2.0;"/><text fill="#000000" font-family="sans-serif" font-size="13" font-weight="bold" lengthAdjust="spacingAndGlyphs" textLength="17" x="201.5" y="230.7686">ref</text><text fill="#000000" font-family="sans-serif" font-size="13" lengthAdjust="spacingAndGlyphs" textLength="164" x="194.5" y="250.7686">SSD_CUSTOMER_DELETE</text><line style="stroke: #000000; stroke-width: 1.0; stroke-dasharray: 2.0,2.0;" x1="13" x2="265.5" y1="263.9766" y2="263.9766"/><polygon fill="#A80036" points="211.5,283.3281,221.5,287.3281,211.5,291.3281,215.5,287.3281" style="stroke: #A80036; stroke-width: 1.0;"/><line style="stroke: #A80036; stroke-width: 1.0;" x1="45.5" x2="217.5" y1="287.3281" y2="287.3281"/><text fill="#000000" font-family="sans-serif" font-size="13" lengthAdjust="spacingAndGlyphs" textLength="114" x="52.5" y="282.4717">click update  button</text><rect fill="#FFFFFF" filter="url(#fow9bqhr0t9sp)" height="42.7031" style="stroke: #000000; stroke-width: 2.0;" width="174" x="188.5" y="295.3281"/><polygon fill="#EEEEEE" points="188.5,295.3281,250.5,295.3281,250.5,303.3281,240.5,313.3281,188.5,313.3281,188.5,295.3281" style="stroke: #000000; stroke-width: 2.0;"/><text fill="#000000" font-family="sans-serif" font-size="13" font-weight="bold" lengthAdjust="spacingAndGlyphs" textLength="17" x="201.5" y="310.8232">ref</text><text fill="#000000" font-family="sans-serif" font-size="13" lengthAdjust="spacingAndGlyphs" textLength="166" x="194.5" y="330.8232">SSD_CUSTOMER_UPDATE</text><line style="stroke: #000000; stroke-width: 1.0; stroke-dasharray: 2.0,2.0;" x1="13" x2="265.5" y1="344.0313" y2="344.0313"/><polygon fill="#A80036" points="211.5,363.3828,221.5,367.3828,211.5,371.3828,215.5,367.3828" style="stroke: #A80036; stroke-width: 1.0;"/><line style="stroke: #A80036; stroke-width: 1.0;" x1="45.5" x2="217.5" y1="367.3828" y2="367.3828"/><text fill="#000000" font-family="sans-serif" font-size="13" lengthAdjust="spacingAndGlyphs" textLength="154" x="52.5" y="362.5264">click reservation list button</text><rect fill="#FFFFFF" filter="url(#fow9bqhr0t9sp)" height="42.7031" style="stroke: #000000; stroke-width: 2.0;" width="167" x="188.5" y="375.3828"/><polygon fill="#EEEEEE" points="188.5,375.3828,250.5,375.3828,250.5,383.3828,240.5,393.3828,188.5,393.3828,188.5,375.3828" style="stroke: #000000; stroke-width: 2.0;"/><text fill="#000000" font-family="sans-serif" font-size="13" font-weight="bold" lengthAdjust="spacingAndGlyphs" textLength="17" x="201.5" y="390.8779">ref</text><text fill="#000000" font-family="sans-serif" font-size="13" lengthAdjust="spacingAndGlyphs" textLength="159" x="194.5" y="410.8779">SSD_RESERVATION_LIST</text><line style="stroke: #000000; stroke-width: 1.0; stroke-dasharray: 2.0,2.0;" x1="13" x2="265.5" y1="424.0859" y2="424.0859"/><polygon fill="#A80036" points="211.5,443.4375,221.5,447.4375,211.5,451.4375,215.5,447.4375" style="stroke: #A80036; stroke-width: 1.0;"/><line style="stroke: #A80036; stroke-width: 1.0;" x1="45.5" x2="217.5" y1="447.4375" y2="447.4375"/><text fill="#000000" font-family="sans-serif" font-size="13" lengthAdjust="spacingAndGlyphs" textLength="99" x="52.5" y="442.5811">click back button</text><rect fill="#FFFFFF" filter="url(#fow9bqhr0t9sp)" height="42.7031" style="stroke: #000000; stroke-width: 2.0;" width="148" x="188.5" y="455.4375"/><polygon fill="#EEEEEE" points="188.5,455.4375,250.5,455.4375,250.5,463.4375,240.5,473.4375,188.5,473.4375,188.5,455.4375" style="stroke: #000000; stroke-width: 2.0;"/><text fill="#000000" font-family="sans-serif" font-size="13" font-weight="bold" lengthAdjust="spacingAndGlyphs" textLength="17" x="201.5" y="470.9326">ref</text><text fill="#000000" font-family="sans-serif" font-size="13" lengthAdjust="spacingAndGlyphs" textLength="140" x="194.5" y="490.9326">SSD_CUSTOMER_LIST</text><!--
@startuml SSD_CUSTOMER_READ

title SSD_CUSTOMER_READ

hide footbox
actor Admin as A
participant System as S

A <- S : Display Customer data


alt 
A -> S : Click delete Button

ref over S : SSD_CUSTOMER_DELETE
else
A -> S : click update  button
ref over S : SSD_CUSTOMER_UPDATE

else
A -> S : click reservation list button
ref over S : SSD_RESERVATION_LIST
else
A -> S : click back button
ref over S : SSD_CUSTOMER_LIST
end
@enduml

PlantUML version 1.2019.09(Mon Aug 26 18:19:51 CEST 2019)
(GPL source distribution)
Java Runtime: Java(TM) SE Runtime Environment
JVM: Java HotSpot(TM) 64-Bit Server VM
Java Version: 1.8.0_221-b11
Operating System: Windows 10
OS Version: 10.0
Default Encoding: Cp1252
Language: fr
Country: FR
--></g></svg>