<?xml version="1.0" encoding="UTF-8" standalone="no"?><svg xmlns="http://www.w3.org/2000/svg" xmlns:xlink="http://www.w3.org/1999/xlink" contentScriptType="application/ecmascript" contentStyleType="text/css" height="411px" preserveAspectRatio="none" style="width:387px;height:411px;" version="1.1" viewBox="0 0 387 411" width="387px" zoomAndPan="magnify"><defs><filter height="300%" id="f1b7by38r87pnf" width="300%" x="-1" y="-1"><feGaussianBlur result="blurOut" stdDeviation="2.0"/><feColorMatrix in="blurOut" result="blurOut2" type="matrix" values="0 0 0 0 0 0 0 0 0 0 0 0 0 0 0 0 0 0 .4 0"/><feOffset dx="4.0" dy="4.0" in="blurOut2" result="blurOut3"/><feBlend in="SourceGraphic" in2="blurOut3" mode="normal"/></filter></defs><g><text fill="#000000" font-family="sans-serif" font-size="14" font-weight="bold" lengthAdjust="spacingAndGlyphs" textLength="178" x="105.25" y="24.5332">SDD_CUSTOMER_DELETE</text><rect fill="#FFFFFF" filter="url(#f1b7by38r87pnf)" height="167.7578" style="stroke: #000000; stroke-width: 2.0;" width="362.5" x="13" y="166.5703"/><rect fill="#FFFFFF" height="32.3516" style="stroke: none; stroke-width: 1.0;" width="362.5" x="13" y="301.9766"/><line style="stroke: #A80036; stroke-width: 1.0; stroke-dasharray: 5.0,5.0;" x1="45" x2="45" y1="119.2188" y2="399.0313"/><line style="stroke: #A80036; stroke-width: 1.0; stroke-dasharray: 5.0,5.0;" x1="205.5" x2="205.5" y1="119.2188" y2="399.0313"/><text fill="#000000" font-family="sans-serif" font-size="14" lengthAdjust="spacingAndGlyphs" textLength="39" x="23" y="116.1426">Admin</text><ellipse cx="45.5" cy="44.6094" fill="#FEFECE" filter="url(#f1b7by38r87pnf)" rx="8" ry="8" style="stroke: #A80036; stroke-width: 2.0;"/><path d="M45.5,52.6094 L45.5,79.6094 M32.5,60.6094 L58.5,60.6094 M45.5,79.6094 L32.5,94.6094 M45.5,79.6094 L58.5,94.6094 " fill="none" filter="url(#f1b7by38r87pnf)" style="stroke: #A80036; stroke-width: 2.0;"/><rect fill="#FEFECE" filter="url(#f1b7by38r87pnf)" height="31.6094" style="stroke: #A80036; stroke-width: 1.5;" width="68" x="169.5" y="82.6094"/><text fill="#000000" font-family="sans-serif" font-size="14" lengthAdjust="spacingAndGlyphs" textLength="54" x="176.5" y="104.1426">Systeme</text><polygon fill="#A80036" points="56.5,147.5703,46.5,151.5703,56.5,155.5703,52.5,151.5703" style="stroke: #A80036; stroke-width: 1.0;"/><line style="stroke: #A80036; stroke-width: 1.0;" x1="50.5" x2="204.5" y1="151.5703" y2="151.5703"/><text fill="#000000" font-family="sans-serif" font-size="13" lengthAdjust="spacingAndGlyphs" textLength="136" x="62.5" y="146.7139">show confirmation page</text><path d="M13,166.5703 L74,166.5703 L74,174.5703 L64,184.5703 L13,184.5703 L13,166.5703 " fill="#EEEEEE" style="stroke: #000000; stroke-width: 1.0;"/><rect fill="none" height="167.7578" style="stroke: #000000; stroke-width: 2.0;" width="362.5" x="13" y="166.5703"/><text fill="#000000" font-family="sans-serif" font-size="13" font-weight="bold" lengthAdjust="spacingAndGlyphs" textLength="16" x="28" y="181.0654">alt</text><polygon fill="#A80036" points="193.5,203.2734,203.5,207.2734,193.5,211.2734,197.5,207.2734" style="stroke: #A80036; stroke-width: 1.0;"/><line style="stroke: #A80036; stroke-width: 1.0;" x1="45.5" x2="199.5" y1="207.2734" y2="207.2734"/><text fill="#000000" font-family="sans-serif" font-size="13" lengthAdjust="spacingAndGlyphs" textLength="113" x="52.5" y="202.417">click confirm button</text><line style="stroke: #A80036; stroke-width: 1.0;" x1="205.5" x2="247.5" y1="237.625" y2="237.625"/><line style="stroke: #A80036; stroke-width: 1.0;" x1="247.5" x2="247.5" y1="237.625" y2="250.625"/><line style="stroke: #A80036; stroke-width: 1.0;" x1="206.5" x2="247.5" y1="250.625" y2="250.625"/><polygon fill="#A80036" points="216.5,246.625,206.5,250.625,216.5,254.625,212.5,250.625" style="stroke: #A80036; stroke-width: 1.0;"/><text fill="#000000" font-family="sans-serif" font-size="13" lengthAdjust="spacingAndGlyphs" textLength="35" x="212.5" y="232.7686">delete</text><line style="stroke: #A80036; stroke-width: 1.0;" x1="205.5" x2="247.5" y1="280.9766" y2="280.9766"/><line style="stroke: #A80036; stroke-width: 1.0;" x1="247.5" x2="247.5" y1="280.9766" y2="293.9766"/><line style="stroke: #A80036; stroke-width: 1.0;" x1="206.5" x2="247.5" y1="293.9766" y2="293.9766"/><polygon fill="#A80036" points="216.5,289.9766,206.5,293.9766,216.5,297.9766,212.5,293.9766" style="stroke: #A80036; stroke-width: 1.0;"/><text fill="#000000" font-family="sans-serif" font-size="13" lengthAdjust="spacingAndGlyphs" textLength="151" x="212.5" y="276.1201">delete related reservations</text><line style="stroke: #000000; stroke-width: 1.0; stroke-dasharray: 2.0,2.0;" x1="13" x2="375.5" y1="302.9766" y2="302.9766"/><polygon fill="#A80036" points="193.5,322.3281,203.5,326.3281,193.5,330.3281,197.5,326.3281" style="stroke: #A80036; stroke-width: 1.0;"/><line style="stroke: #A80036; stroke-width: 1.0;" x1="45.5" x2="199.5" y1="326.3281" y2="326.3281"/><text fill="#000000" font-family="sans-serif" font-size="13" lengthAdjust="spacingAndGlyphs" textLength="109" x="52.5" y="321.4717">click cancel button</text><rect fill="#FFFFFF" filter="url(#f1b7by38r87pnf)" height="42.7031" style="stroke: #000000; stroke-width: 2.0;" width="220.5" x="20" y="341.3281"/><polygon fill="#EEEEEE" points="20,341.3281,82,341.3281,82,349.3281,72,359.3281,20,359.3281,20,341.3281" style="stroke: #000000; stroke-width: 2.0;"/><text fill="#000000" font-family="sans-serif" font-size="13" font-weight="bold" lengthAdjust="spacingAndGlyphs" textLength="17" x="33" y="356.8232">ref</text><text fill="#000000" font-family="sans-serif" font-size="13" lengthAdjust="spacingAndGlyphs" textLength="140" x="62.25" y="376.8232">SSD_CUSTOMER_LIST</text><!--
@startuml SSD_CUSTOMER_DELETE
    title SDD_CUSTOMER_DELETE
    hide footbox 
    Actor "Admin" as A  
    Participant "Systeme" as S 
    S -> A : show confirmation page 
    alt 
    A -> S : click confirm button
    S -> S : delete
    S -> S : delete related reservations
    else
    A -> S : click cancel button
    end
    ref over A,S : SSD_CUSTOMER_LIST
    
@enduml

PlantUML version 1.2019.09(Mon Aug 26 18:19:51 CEST 2019)
(GPL source distribution)
Java Runtime: Java(TM) SE Runtime Environment
JVM: Java HotSpot(TM) 64-Bit Server VM
Java Version: 1.8.0_221-b11
Operating System: Windows 10
OS Version: 10.0
Default Encoding: Cp1252
Language: fr
Country: FR
--></g></svg>